<svg width="16" height="20" viewBox="0 0 16 20" fill="none" xmlns="http://www.w3.org/2000/svg">
<path d="M7.56527 0C3.39374 0 0 3.3938 0 7.56527C0 9.28592 1.18604 11.8021 3.52508 15.0438C5.21612 17.3875 6.87989 19.2393 6.94986 19.317L7.56533 20L8.1808 19.317C8.25077 19.2393 9.91453 17.3875 11.6056 15.0438C13.9446 11.8021 15.1307 9.28598 15.1307 7.56527C15.1306 3.3938 11.7368 0 7.56527 0ZM7.56527 17.5052C5.48133 15.0689 1.65686 10.0785 1.65686 7.56527C1.65686 4.30739 4.30734 1.65686 7.56527 1.65686C10.8232 1.65686 13.4737 4.30739 13.4737 7.56527C13.4737 10.0785 9.64922 15.0689 7.56527 17.5052Z" fill="#FAD2D6"/>
<path d="M7.56593 10.31C9.08176 10.31 10.3106 9.08114 10.3106 7.56532C10.3106 6.0495 9.08176 4.82068 7.56593 4.82068C6.05011 4.82068 4.82129 6.0495 4.82129 7.56532C4.82129 9.08114 6.05011 10.31 7.56593 10.31Z" fill="#FAD2D6"/>
</svg>
