<svg width="20" height="20" viewBox="0 0 20 20" fill="none" xmlns="http://www.w3.org/2000/svg">
<path d="M18 6.66667C18.3681 6.66667 18.6667 6.36819 18.6667 6C18.6667 5.63181 18.3681 5.33333 18 5.33333V6.66667ZM3.95231 3.75241C3.81557 3.41055 3.42759 3.24428 3.08573 3.38101C2.74388 3.51776 2.5776 3.90573 2.71435 4.2476L3.95231 3.75241ZM18.6667 10C18.6667 14.7871 14.7871 18.6667 10 18.6667V20C15.5235 20 20 15.5235 20 10H18.6667ZM10 18.6667C5.21295 18.6667 1.33333 14.7871 1.33333 10H0C0 15.5235 4.47656 20 10 20V18.6667ZM1.33333 10C1.33333 5.21295 5.21295 1.33333 10 1.33333V0C4.47656 0 0 4.47656 0 10H1.33333ZM10 1.33333C14.7871 1.33333 18.6667 5.21295 18.6667 10H20C20 4.47656 15.5235 0 10 0V1.33333ZM10 6.66667H18V5.33333H10V6.66667ZM6.61897 10.4191L3.95231 3.75241L2.71435 4.2476L5.38101 10.9143L6.61897 10.4191ZM12.332 12.4017L7.46535 18.9351L8.53463 19.7316L13.4013 13.1983L12.332 12.4017ZM10 13.3333C8.15905 13.3333 6.66667 11.8409 6.66667 10H5.33333C5.33333 12.5773 7.42267 14.6667 10 14.6667V13.3333ZM13.3333 10C13.3333 11.8409 11.8409 13.3333 10 13.3333V14.6667C12.5773 14.6667 14.6667 12.5773 14.6667 10H13.3333ZM10 6.66667C11.8409 6.66667 13.3333 8.15905 13.3333 10H14.6667C14.6667 7.42267 12.5773 5.33333 10 5.33333V6.66667ZM10 5.33333C7.42267 5.33333 5.33333 7.42267 5.33333 10H6.66667C6.66667 8.15905 8.15905 6.66667 10 6.66667V5.33333Z" fill="#FAD2D6"/>
</svg>
