<svg width="26" height="20" viewBox="0 0 26 20" fill="none" xmlns="http://www.w3.org/2000/svg">
<path d="M24.6154 15.8974V7.17949H23.5897V0H1.53846V9.23077H0V20H6.66667V16.9231H7.69231V17.6923C7.69231 18.9648 8.72746 20 10 20H23.3333C24.6058 20 25.641 18.9648 25.641 17.6923V15.8974H24.6154ZM5.12821 18.4615H1.53846V10.7692H5.12821V18.4615ZM8.71795 15.3846H6.66667V13.8462H8.71795V15.3846ZM8.71795 12.3077H6.66667V9.23077H3.07692V1.53846H22.0513V7.17949H8.71795V12.3077ZM23.0769 8.71795V15.8974H10.2564V8.71795H23.0769ZM24.1026 17.6923C24.1026 18.1164 23.7576 18.4615 23.3333 18.4615H10C9.57587 18.4615 9.23077 18.1164 9.23077 17.6923V17.4359H24.1026V17.6923Z" fill="#FAD2D6"/>
</svg>
