<svg width="20" height="20" viewBox="0 0 20 20" fill="none" xmlns="http://www.w3.org/2000/svg">
<path d="M10 0C4.47734 0 0 4.47734 0 10C0 15.5227 4.47734 20 10 20C15.5227 20 20 15.5227 20 10C20 4.47734 15.5227 0 10 0ZM6.72699 1.62535C5.75301 2.68469 4.98168 4.20836 4.51 6.00004H1.94332C2.93668 4.01332 4.64332 2.44234 6.72699 1.62535ZM1 10C1 8.94535 1.19832 7.94035 1.53367 7H4.28734C4.10734 7.94898 4 8.95168 4 10C4 11.0483 4.10734 12.051 4.28699 13H1.53367C1.19832 12.0596 1 11.0547 1 10ZM1.94332 14H4.51C4.98199 15.7917 5.75301 17.3153 6.72699 18.3746C4.64332 17.5577 2.93668 15.9867 1.94332 14ZM9.5 18.9527C7.78867 18.6303 6.30168 16.6777 5.54066 14H9.5V18.9527ZM9.5 13H5.30234C5.11 12.056 5 11.047 5 10C5 8.95301 5.11 7.94398 5.30234 7H9.5V13ZM9.5 6H5.54066C6.30168 3.32234 7.78867 1.36965 9.5 1.04734V6ZM18.0567 6H15.49C15.018 4.20832 14.247 2.68465 13.273 1.62531C15.3567 2.44234 17.0633 4.01332 18.0567 6ZM10.5 1.04734C12.2113 1.36969 13.6983 3.32234 14.4593 6H10.5V1.04734ZM10.5 7H14.6977C14.89 7.94398 15 8.95301 15 10C15 11.047 14.89 12.056 14.6977 13H10.5V7ZM10.5 18.9527V14H14.4593C13.6983 16.6777 12.2113 18.6304 10.5 18.9527ZM13.273 18.3746C14.247 17.315 15.018 15.7916 15.49 14H18.0567C17.0633 15.9867 15.3567 17.5577 13.273 18.3746ZM15.7127 13C15.8927 12.051 16 11.0483 16 10C16 8.95168 15.8927 7.94898 15.713 7H18.4667C18.8017 7.94035 19 8.94535 19 10C19 11.0547 18.8017 12.0596 18.4663 13H15.7127Z" fill="#FAD2D6"/>
</svg>
