<svg width="18" height="20" viewBox="0 0 18 20" fill="none" xmlns="http://www.w3.org/2000/svg">
<path d="M12.207 9.27363C13.5682 8.34031 14.4546 6.82984 14.4546 5.1282C14.4546 2.30051 12.0076 0 9 0C5.99236 0 3.54545 2.30051 3.54545 5.1282C3.54545 6.82984 4.4318 8.34031 5.79301 9.27363C2.40931 10.491 0 13.5754 0 17.1795C0 18.7347 1.34579 20 3 20H15C16.6542 20 18 18.7347 18 17.1795C18 13.5754 15.5907 10.491 12.207 9.27363ZM5.18183 5.1282C5.18183 3.14883 6.89466 1.53848 9 1.53848C11.1053 1.53848 12.8182 3.14883 12.8182 5.1282C12.8182 7.10758 11.1053 8.71797 9 8.71797C6.89466 8.71797 5.18183 7.10758 5.18183 5.1282ZM15 18.4615H3C2.2481 18.4615 1.63638 17.8864 1.63638 17.1795C1.63638 13.362 4.93964 10.2564 9.00004 10.2564C13.0604 10.2564 16.3637 13.362 16.3637 17.1795C16.3637 17.8864 15.7519 18.4615 15 18.4615Z" fill="#FAD2D6"/>
</svg>
