<svg width="20" height="21" viewBox="0 0 20 21" fill="none" xmlns="http://www.w3.org/2000/svg">
<path d="M14.4607 7.71488V3.45048L15.3129 4.346C15.739 4.77245 16.3355 4.51659 16.4634 4.38866C16.8042 4.04752 16.8042 3.53579 16.506 3.19461L14.1625 0.76391C13.8642 0.422772 13.2677 0.422772 12.9694 0.76391L10.6684 3.19461C10.3702 3.53575 10.3702 4.09014 10.7111 4.38866C11.0519 4.68718 11.6059 4.68718 11.9042 4.346L12.7563 3.45048V7.71488C12.1172 7.80016 11.478 8.0134 10.8815 8.26927C9.85889 7.58695 8.6658 7.24581 7.38751 7.24581C6.5779 7.24581 5.81093 7.37374 5.08657 7.67226L3.80828 5.28422L5.2144 4.51663C5.64051 4.26076 5.76834 3.74904 5.55527 3.36524C5.29961 2.93879 4.78829 2.81086 4.4048 3.0241L2.99868 3.79169L2.44474 2.7255C2.2317 2.34171 1.76297 2.17112 1.3369 2.38437C0.953408 2.59757 0.782955 3.06668 0.996031 3.49309L1.59256 4.60186L0.44209 5.24152C0.0159783 5.49739 -0.111851 6.00911 0.101225 6.39291C0.229054 6.64877 0.527336 6.81936 0.825578 6.81936C0.953408 6.81936 1.08124 6.7767 1.20907 6.69143L2.35953 6.05177L3.63783 8.43982C1.08124 10.2735 0.186431 13.8129 1.72038 16.6701C2.87085 18.8023 5.00133 20.0816 7.38751 20.0816C8.32493 20.0816 9.26232 19.8684 10.1145 19.4419C11.1372 20.1243 12.3303 20.5081 13.6086 20.5081C17.1452 20.5081 20 17.6083 20 14.0688C20 10.8705 17.5712 8.14129 14.4607 7.71488ZM7.38751 18.4611C5.64048 18.4611 4.02132 17.4803 3.21172 15.9451C1.97604 13.6424 2.87085 10.7426 5.17178 9.50589C5.85355 9.16475 6.62053 8.9515 7.38751 8.9515C8.06928 8.9515 8.70842 9.07943 9.30495 9.37795C8.02665 10.572 7.21705 12.2351 7.21705 14.1114C7.21705 15.6893 7.77099 17.1391 8.70838 18.2479C8.28231 18.3759 7.81358 18.4611 7.38751 18.4611ZM10.2423 17.4804C9.39015 16.6275 8.87884 15.4334 8.87884 14.1541C8.87884 12.6189 9.60319 11.2117 10.7537 10.3588C11.0519 10.6573 11.3502 11.0411 11.5633 11.4676C12.6711 13.5571 12.0746 16.1157 10.2423 17.4804ZM13.6085 18.9302C12.9268 18.9302 12.245 18.7596 11.6485 18.5038C13.8216 16.5848 14.4607 13.3438 13.0546 10.6573C12.8415 10.2735 12.5859 9.88968 12.3302 9.54854C12.7563 9.42061 13.1824 9.37795 13.6085 9.37795C16.2077 9.37795 18.3382 11.5101 18.3382 14.1541C18.3382 16.798 16.2077 18.9302 13.6085 18.9302Z" fill="#FAD2D6"/>
</svg>
