<svg width="20" height="20" viewBox="0 0 20 20" fill="none" xmlns="http://www.w3.org/2000/svg">
<path d="M19.7391 5.73913L14.2609 0.26087C13.913 -0.0869565 13.3696 -0.0869565 13.0217 0.26087C12.9565 0.326087 11.3696 1.95652 11.9783 4.08696L9.5 6.56522C8.13043 6.15217 4.63043 5.43478 2.04348 8.02174C1.69565 8.36957 1.69565 8.91304 2.04348 9.26087L5.78261 13L0.26087 18.5217C-0.0869565 18.8696 -0.0869565 19.413 0.26087 19.7609C0.434783 19.913 0.652174 20 0.869565 20C1.08696 20 1.30435 19.913 1.47826 19.7391L7 14.2174L10.7391 17.9565C10.913 18.1304 11.1304 18.2174 11.3478 18.2174C11.5652 18.2174 11.7826 18.1304 11.9565 17.9565C14.5435 15.3696 13.8261 11.8478 13.413 10.5L15.8913 8.02174C18.0217 8.63043 19.6304 7.04348 19.7174 6.97826C20.087 6.63043 20.087 6.08696 19.7391 5.73913ZM16.0652 6.21739C15.7391 6.06522 15.3478 6.13043 15.087 6.3913L11.8261 9.65217C11.587 9.8913 11.5 10.2826 11.6304 10.587C11.6304 10.587 12.0217 11.5652 12.087 12.8261C12.1522 14.087 11.8913 15.1522 11.3043 16.0435L7.6087 12.3913L3.91304 8.69565C6.23913 7.13043 9.23913 8.30435 9.36957 8.36957C9.69565 8.5 10.0652 8.43478 10.3261 8.17391L13.587 4.91304C13.8478 4.65217 13.913 4.26087 13.7609 3.93478C13.4565 3.28261 13.5652 2.69565 13.7609 2.23913L17.7609 6.23913C17.3261 6.41304 16.7174 6.52174 16.0652 6.21739ZM10.913 10.9348C10.9348 11 11.2174 11.6304 11.1957 12.3043C11.1957 12.7174 10.8478 13.0435 10.4348 13.0435H10.413C10 13.0217 9.65217 12.6739 9.67391 12.2609C9.67391 11.9783 9.56522 11.6522 9.52174 11.5435C9.34783 11.1522 9.52174 10.7174 9.91304 10.5435C10.3043 10.3913 10.7609 10.5435 10.913 10.9348Z" fill="#FAD2D6"/>
</svg>
