<svg width="75" height="68" viewBox="0 0 75 68" fill="none" xmlns="http://www.w3.org/2000/svg">
<path d="M14.1228 52.2927C14.5685 52.8984 15.626 54.8468 16.252 53.8176C17.1417 52.3498 13.1127 49.657 13.3155 49.4407C13.8522 48.8852 17.4621 49.0297 18.3086 48.8863C19.8707 48.6305 22.5059 48.2978 22.6291 46.2235C22.8557 42.3835 16.7236 44.4487 14.7317 44.4978C13.4596 44.5319 10.4018 44.8625 10.7959 43.5881C11.3251 41.8858 14.0213 40.7909 14.7796 39.0892C15.4076 37.6834 15.1511 35.9481 13.4858 35.362C11.9233 34.813 11.011 35.9421 10.0208 36.8587C7.66416 39.0464 4.50916 41.8515 2.82303 44.594C0.638813 48.1356 4.92771 50.0633 7.31675 51.8571C8.35005 52.6262 12.8381 56.9296 14.2966 55.5211C15.6016 54.2532 12.4088 50.0254 13.0931 49.4256C13.0091 49.4925 13.3004 49.7089 12.8973 49.5358C13.3495 49.7246 13.975 51.9347 14.1284 52.2882C12.9109 49.461 16.1353 55.0268 14.1284 52.2882L14.1228 52.2927Z" fill="#EA5160"/>
<path d="M43.1846 43.6243C44.3211 42.7192 45.8263 41.4383 45.1102 39.7579C44.0562 37.2853 41.8193 38.9111 40.4424 39.8245C36.9297 42.146 33.555 42.7565 29.4557 43.02C28.0035 43.1151 26.0811 43.5388 26.0322 45.4076C25.9721 47.7793 28.5656 48.1294 30.3205 48.1043C34.871 48.0396 39.528 46.3165 43.179 43.6287C43.5653 43.3211 42.5677 44.0789 43.179 43.6287L43.1846 43.6243Z" fill="#EA5160"/>
<path d="M55.1707 22.1904C53.5084 22.9279 54.1983 24.0603 53.9706 25.4075C53.6823 27.0969 52.4988 29.2626 51.4696 30.5989C50.4941 31.8588 48.6592 32.7602 48.7909 34.5864C48.8921 35.9996 50.1914 36.9202 51.6553 36.6976C54.875 36.2097 57.2458 30.7392 58.2116 28.0439C59.0507 25.718 58.8842 20.6637 55.1707 22.1904C54.8226 22.3412 55.6142 22.008 55.1707 22.1904Z" fill="#EA5160"/>
<path d="M59.0765 11.2951C59.2609 9.0932 58.2331 3.26111 55.0836 3.47492C51.4626 3.71932 53.8641 9.36134 54.129 11.2328C54.4054 13.1897 53.0417 17.3276 55.9014 17.9164C59.2537 18.6098 59.1763 13.3038 59.0769 11.3023C59.1985 9.85588 59.1106 11.9813 59.0769 11.3023L59.0765 11.2951Z" fill="#EA5160"/>
</svg>
