<svg width="79" height="21" viewBox="0 0 79 21" fill="none" xmlns="http://www.w3.org/2000/svg">
<path d="M63.8414 8.18068C65.6485 8.15908 68.7802 8.32465 70.4721 7.78469C69.781 5.62487 66.2964 5.08492 66.3324 2.37074C66.3756 -0.861801 69.6514 -0.25705 71.3144 1.06764C73.3951 2.72351 75.7781 5.02734 77.5923 6.94958C78.6362 8.05109 79.5362 9.84374 78.6218 11.2836C77.7723 12.6299 75.9941 13.9258 74.9573 15.2505C73.8126 16.7048 72.4231 19.0806 70.9113 20.0813C69.349 21.118 66.7428 20.4773 66.6132 18.2743C66.4908 16.1648 69.061 14.6961 69.9105 13.0115C67.0812 12.5219 61.9048 14.7753 59.5002 12.8387C55.8501 9.88694 61.6888 8.18068 63.8414 8.18068C63.2871 8.18068 64.8709 8.16628 63.8414 8.18068Z" fill="#EA5160"/>
<path d="M5.89299 9.0518C8.3264 8.88622 14.6835 7.15836 16.2458 9.66376C18.8591 13.8682 11.1558 13.5802 9.20472 13.6882C7.0449 13.8106 2.75404 14.9841 0.968588 13.2131C-2.8543 9.41897 5.87139 8.76383 5.89299 9.0518C5.89299 9.0374 7.42647 8.94381 5.89299 9.0518Z" fill="#EA5160"/>
<path d="M47.1242 13.177C45.1516 13.177 41.4511 14.149 40.7383 11.6508C39.6872 7.97906 45.7635 8.25264 47.8298 8.15904C49.8816 8.07265 54.4964 7.22311 54.4388 10.5852C54.3813 13.8034 49.2049 13.177 47.1242 13.177Z" fill="#EA5160"/>
<path d="M27.3403 8.6918C29.4641 8.87178 33.2366 7.35272 34.5109 9.85091C36.5556 13.861 29.8457 13.5442 27.9162 13.6234C25.9148 13.7026 21.588 14.6169 21.156 11.7156C20.7384 8.92939 25.4396 8.40382 27.3403 8.6918C26.3828 8.54781 29.2985 8.85738 27.3403 8.6918Z" fill="#EA5160"/>
</svg>
