<svg width="24" height="24" viewBox="0 0 24 24" fill="none" xmlns="http://www.w3.org/2000/svg">
<g clip-path="url(#clip0_97_3248)">
<path d="M12 0C5.37261 0 0 5.37261 0 12C0 18.6274 5.37261 24 12 24C18.6274 24 24 18.6274 24 12C24 5.37256 18.6274 0 12 0ZM14 19.6883C14 20.141 13.633 20.508 13.1803 20.508H10.9316C10.4789 20.508 10.1119 20.141 10.1119 19.6883V10.564C10.1119 10.1114 10.4789 9.74436 10.9316 9.74436H13.1803C13.633 9.74436 14 10.1113 14 10.564V19.6883ZM12 8.1913C10.8762 8.1913 9.96522 7.2803 9.96522 6.15652C9.96522 5.03275 10.8762 4.12174 12 4.12174C13.1238 4.12174 14.0348 5.03275 14.0348 6.15652C14.0348 7.2803 13.1238 8.1913 12 8.1913Z" fill="white"/>
</g>
<defs>
<clipPath id="clip0_97_3248">
<rect width="24" height="24" fill="white"/>
</clipPath>
</defs>
</svg>
