<svg width="20" height="26" viewBox="0 0 20 26" fill="none" xmlns="http://www.w3.org/2000/svg">
<path d="M18.1267 10.7687H17.0792V7.07944C17.0792 3.17589 13.9034 0 9.99985 0H9.99964C6.09625 0.000105794 2.92041 3.17594 2.92041 7.07949V7.1554H5.44641V7.07949C5.44641 5.82403 5.95703 4.68568 6.78153 3.86117C6.98762 3.65509 7.21344 3.46852 7.45566 3.30475C7.9403 2.97716 8.49096 2.74028 9.0833 2.61878C9.37931 2.558 9.6859 2.52605 9.99964 2.52605H9.99985C12.5107 2.52605 14.5532 4.56857 14.5532 7.07949V10.7687H9.99964H5.44641H2.92041H1.87268C1.04442 10.7687 0.373047 11.4401 0.373047 12.2684V13.1806V23.5881V24.5004C0.373047 25.3286 1.04442 26 1.87268 26H9.99969H18.1268C18.9549 26 19.6264 25.3286 19.6264 24.5004V23.5881V13.1806V12.2684C19.6263 11.4401 18.9549 10.7687 18.1267 10.7687ZM11.502 21.3269H8.49725L9.03511 18.7643C8.53222 18.4443 8.19627 17.8855 8.19627 17.2452C8.19627 16.2492 9.00364 15.4418 9.99964 15.4418C10.9957 15.4418 11.803 16.2492 11.803 17.2452C11.803 17.8854 11.4671 18.4443 10.9643 18.7643L11.502 21.3269Z" fill="#EA5160"/>
</svg>
