<svg width="232" height="11" viewBox="0 0 232 11" fill="none" xmlns="http://www.w3.org/2000/svg">
<path d="M227.96 4.95842C219.637 4.40091 201.557 4.17778 173.718 4.28904C167.654 4.30738 162.068 4.33612 156.961 4.37525C154.481 4.38747 143.914 4.47426 125.262 4.63565C98.4893 4.79703 83.9901 4.89425 81.7641 4.92726H81.7285C64.9893 5.0703 46.2514 5.31053 25.5149 5.64797C24.5473 5.63814 23.6238 5.41681 22.9368 5.03012C22.2499 4.64344 21.8524 4.12123 21.8274 3.57237C21.8024 3.02352 22.1517 2.49037 22.8026 2.08406C23.4534 1.67776 24.3556 1.42965 25.3209 1.39147V1.39147C46.0898 1.05403 64.8578 0.81316 81.6251 0.668892H81.5863C83.8489 0.634659 98.3826 0.536241 125.187 0.373634H125.171C143.893 0.21225 154.473 0.125459 156.913 0.113233C162.084 0.0741094 167.687 0.045361 173.721 0.0270219C201.836 -0.0842356 220.2 0.148069 228.813 0.723918C229.778 0.802742 230.65 1.09356 231.241 1.53369C231.831 1.97382 232.094 2.52801 231.971 3.07682C231.932 3.35132 231.797 3.61863 231.573 3.86291C231.349 4.10719 231.041 4.32347 230.667 4.49893C230.293 4.6744 229.86 4.80548 229.395 4.88441C228.93 4.96334 228.442 4.9885 227.96 4.95842V4.95842Z" fill="#EA5160"/>
<path d="M3.40204 6.75546C9.49177 6.57574 13.8016 6.42779 16.3314 6.31164L16.5835 6.29882C57.9295 4.39888 81.2691 3.37433 86.6025 3.22517H86.5346C97.238 2.80215 108.12 2.4861 119.181 2.27703C132.809 2.00561 146.35 1.93776 159.805 2.07347C170.509 2.18351 184.437 2.53562 201.59 3.12981C202.563 3.17384 203.466 3.43466 204.101 3.85527C204.737 4.27588 205.053 4.82209 204.98 5.37452C204.965 5.64702 204.855 5.9151 204.656 6.16335C204.458 6.41161 204.174 6.63513 203.823 6.82107C203.471 7.00701 203.059 7.15171 202.608 7.24682C202.158 7.34194 201.679 7.38562 201.199 7.37532V7.37532C184.151 6.7848 170.321 6.43512 159.708 6.32631C146.376 6.19182 132.954 6.25908 119.443 6.52806C108.453 6.7359 97.6495 7.0495 87.0324 7.46885H86.9645C81.6958 7.61557 58.4229 8.63766 17.1459 10.5352L16.8938 10.5461C14.295 10.6684 9.91736 10.8194 3.76083 10.9991C3.28075 11.0069 2.80267 10.9609 2.35402 10.8637C1.90536 10.7664 1.49495 10.6199 1.14631 10.4325C0.797668 10.2451 0.517655 10.0205 0.322333 9.77152C0.127011 9.52258 0.0202246 9.25424 0.00808536 8.98183C-0.0561301 8.43204 0.264107 7.89003 0.899406 7.47329C1.5347 7.05654 2.43388 6.79864 3.40204 6.75546V6.75546Z" fill="#EA5160"/>
</svg>
