<svg width="832" height="11" viewBox="0 0 832 11" fill="none" xmlns="http://www.w3.org/2000/svg">
<path d="M817.508 4.95842C787.663 4.40091 722.822 4.17778 622.986 4.28904C601.239 4.30738 581.209 4.33612 562.894 4.37525C553.999 4.38747 516.105 4.47427 449.212 4.63565C353.201 4.79703 301.204 4.89425 293.221 4.92726H293.094C233.063 5.0703 165.865 5.31053 91.4999 5.64797C88.0301 5.63814 84.7182 5.41681 82.2545 5.03012C79.7909 4.64344 78.3657 4.12123 78.276 3.57237C78.1863 3.02352 79.4391 2.49037 81.7731 2.08406C84.1072 1.67776 87.3425 1.42965 90.8044 1.39147C165.286 1.05403 232.592 0.81316 292.723 0.668892H292.584C300.698 0.634659 352.819 0.536241 448.946 0.373634H448.888C516.028 0.21225 553.972 0.125459 562.72 0.113233C581.267 0.0741094 601.359 0.045361 622.997 0.0270219C723.823 -0.0842356 789.68 0.148069 820.568 0.723918C824.03 0.802742 827.156 1.09356 829.275 1.53369C831.393 1.97382 832.334 2.52801 831.894 3.07682C831.755 3.35132 831.27 3.61863 830.466 3.86291C829.663 4.10719 828.558 4.32347 827.216 4.49893C825.875 4.6744 824.324 4.80548 822.657 4.88441C820.989 4.96334 819.238 4.9885 817.508 4.95842Z" fill="#EA5160"/>
<path d="M12.2004 6.75546C34.0394 6.57574 49.4952 6.42779 58.5678 6.31164L59.4719 6.29882C207.747 4.39888 291.448 3.37433 310.574 3.22517H310.331C348.715 2.80215 387.741 2.4861 427.408 2.27703C476.28 2.00561 524.842 1.93776 573.095 2.07347C611.479 2.18351 661.428 2.53562 722.942 3.12981C726.433 3.17384 729.671 3.43466 731.949 3.85527C734.228 4.27588 735.361 4.82209 735.102 5.37452C735.047 5.64702 734.652 5.9151 733.939 6.16335C733.227 6.41161 732.211 6.63513 730.951 6.82107C729.69 7.00701 728.21 7.15171 726.595 7.24682C724.98 7.34194 723.262 7.38562 721.54 7.37532C660.404 6.7848 610.807 6.43512 572.747 6.32631C524.934 6.19182 476.801 6.25908 428.347 6.52806C388.935 6.7359 350.191 7.0495 312.116 7.46885H311.873C292.978 7.61557 209.517 8.63766 61.4889 10.5352L60.5847 10.5461C51.2649 10.6684 35.5657 10.8194 13.4871 10.9991C11.7654 11.0069 10.051 10.9609 8.44199 10.8637C6.83301 10.7664 5.3612 10.6199 4.1109 10.4325C2.8606 10.2451 1.85642 10.0205 1.15595 9.77152C0.455489 9.52258 0.0725295 9.25424 0.0289958 8.98183C-0.201294 8.43204 0.947142 7.89003 3.22545 7.47329C5.50376 7.05654 8.72839 6.79864 12.2004 6.75546Z" fill="#EA5160"/>
<path d="M12.2004 6.75546C34.0394 6.57574 49.4952 6.42779 58.5678 6.31164L59.4719 6.29882C207.747 4.39888 291.448 3.37433 310.574 3.22517H310.331C348.715 2.80215 387.741 2.4861 427.408 2.27703C476.28 2.00561 524.842 1.93776 573.095 2.07347C611.479 2.18351 661.428 2.53562 722.942 3.12981C726.433 3.17384 729.671 3.43466 731.949 3.85527C734.228 4.27588 735.361 4.82209 735.102 5.37452C735.047 5.64702 734.652 5.9151 733.939 6.16335C733.227 6.41161 732.211 6.63513 730.951 6.82107C729.69 7.00701 728.21 7.15171 726.595 7.24682C724.98 7.34194 723.262 7.38562 721.54 7.37532C660.404 6.7848 610.807 6.43512 572.747 6.32631C524.934 6.19182 476.801 6.25908 428.347 6.52806C388.935 6.7359 350.191 7.0495 312.116 7.46885H311.873C292.978 7.61557 209.517 8.63766 61.4889 10.5352L60.5847 10.5461C51.2649 10.6684 35.5657 10.8194 13.4871 10.9991C11.7654 11.0069 10.051 10.9609 8.44199 10.8637C6.83301 10.7664 5.3612 10.6199 4.1109 10.4325C2.8606 10.2451 1.85642 10.0205 1.15595 9.77152C0.455489 9.52258 0.0725295 9.25424 0.0289958 8.98183C-0.201294 8.43204 0.947142 7.89003 3.22545 7.47329C5.50376 7.05654 8.72839 6.79864 12.2004 6.75546Z" fill="#EA5160"/>
</svg>
