<svg width="14" height="16" viewBox="0 0 14 16" fill="none" xmlns="http://www.w3.org/2000/svg">
<path d="M6.52729 15.0333C5.34953 14.1337 4.25784 13.1474 3.26365 12.0848C1.77169 10.4891 8.19543e-07 8.11264 8.19543e-07 5.84807C-0.00064622 4.69153 0.381855 3.56082 1.0991 2.59903C1.81634 1.63724 2.83608 0.887599 4.02927 0.444988C5.22246 0.00237707 6.53545 -0.113312 7.80209 0.112562C9.06873 0.338436 10.2321 0.89572 11.1449 1.71389C11.7526 2.2557 12.2343 2.90006 12.5621 3.60969C12.8899 4.31932 13.0573 5.08013 13.0546 5.84807C13.0546 8.11264 11.2829 10.4891 9.79094 12.0848C8.79674 13.1474 7.70506 14.1337 6.52729 15.0333ZM6.52729 3.34301C5.78537 3.34301 5.07384 3.60693 4.54923 4.07672C4.02461 4.54651 3.72988 5.18369 3.72988 5.84807C3.72988 6.51245 4.02461 7.14962 4.54923 7.61941C5.07384 8.0892 5.78537 8.35313 6.52729 8.35313C7.26921 8.35313 7.98075 8.0892 8.50536 7.61941C9.02998 7.14962 9.32471 6.51245 9.32471 5.84807C9.32471 5.18369 9.02998 4.54651 8.50536 4.07672C7.98075 3.60693 7.26921 3.34301 6.52729 3.34301Z" fill="#E82222"/>
</svg>
