<svg width="20" height="21" viewBox="0 0 20 21" fill="none" xmlns="http://www.w3.org/2000/svg">
<path d="M17.3048 0.5H2.69504C1.20664 0.5 0 1.70659 0 3.19504V17.8049C0 19.2933 1.20659 20.4999 2.69504 20.4999H9.90049L9.91277 13.353H8.05601C7.81471 13.353 7.61886 13.1579 7.61793 12.9166L7.60903 10.6129C7.6081 10.3703 7.80453 10.1731 8.04715 10.1731H9.90054V7.94709C9.90054 5.36384 11.4782 3.95724 13.7826 3.95724H15.6736C15.9155 3.95724 16.1117 4.15339 16.1117 4.39537V6.33789C16.1117 6.57978 15.9157 6.77587 15.6738 6.77602L14.5134 6.77655C13.2602 6.77655 13.0175 7.37207 13.0175 8.24602V10.1731H15.7713C16.0336 10.1731 16.2372 10.4022 16.2063 10.6628L15.9332 12.9666C15.9071 13.187 15.7202 13.3531 15.4982 13.3531H13.0298L13.0175 20.5H17.3049C18.7933 20.5 19.9999 19.2934 19.9999 17.805V3.19504C19.9998 1.70659 18.7932 0.5 17.3048 0.5Z" fill="#475993"/>
</svg>
