<svg width="392" height="374" viewBox="0 0 392 374" fill="none" xmlns="http://www.w3.org/2000/svg">
<g clip-path="url(#clip0_85_522)">
<path d="M315.503 57.1565H73.8652V315.708H315.503V57.1565Z" fill="#AAE0FF"/>
<path d="M2.13522 374H388.865C390.044 374 391 372.973 391 371.706C391 370.44 390.044 369.413 388.865 369.413H2.13522C0.955965 369.413 0 370.44 0 371.706C0 372.973 0.955965 374 2.13522 374Z" fill="#2D5B98"/>
<path d="M84.7371 296.384H127.956V328.026C127.956 340.838 118.273 351.239 106.346 351.239C94.4189 351.239 84.7354 340.838 84.7354 328.026V296.384H84.7371Z" fill="#5896FA"/>
<path d="M84.7369 320.299H82.3418V369.415H84.7369V320.299Z" fill="#0E0E0E"/>
<path d="M130.351 320.299H127.956V369.415H130.351V320.299Z" fill="#0E0E0E"/>
<path d="M112.022 320.299H109.627V369.415H112.022V320.299Z" fill="#0E0E0E"/>
<path d="M128.068 351.239H82.3418V353.812H128.068V351.239Z" fill="#0E0E0E"/>
<path d="M140.001 244.107C142.609 248.141 137.36 251.619 136.542 257.212C135.724 262.805 141.688 265.951 135.363 273.274C131.467 277.784 128.177 271.794 125.011 278.706C121.845 285.619 124.339 286.784 120.781 289.271C114.576 293.607 105.082 284.024 108.275 277.119C111.467 270.214 117.927 270.833 114.938 265.151C111.95 259.47 110.839 257.023 115.992 254.103C122.37 250.491 127.989 253.809 128.503 248.523C129.016 243.237 136.552 238.768 140.003 244.107H140.001Z" fill="#FFCA59"/>
<path d="M112.739 296.067L111.666 295.839C116.694 268.539 133.364 249.425 133.533 249.234L134.327 250.043C134.161 250.23 117.705 269.113 112.741 296.067H112.739Z" fill="#0E0E0E"/>
<path d="M56.4206 234.02C53.7237 239.923 61.3226 243.391 63.4508 250.616C65.5791 257.842 57.7412 260.394 67.4823 268.719C73.4832 273.846 74.7375 270.641 76.9442 282.111C78.8858 292.209 86.0294 282.6 91.3709 288.527C98.2633 296.174 109.034 279.39 103.516 270.943C97.9981 262.496 91.5593 264.681 94.4499 256.517C97.3405 248.355 93.8934 242.203 86.5283 239.454C77.4117 236.049 74.1339 244.268 72.4644 237.384C70.7967 230.499 59.9863 226.214 56.4206 234.022V234.02Z" fill="#ED5A24"/>
<path d="M102.225 296.893C90.602 262.277 65.2969 240.865 65.0439 240.651L65.9423 239.409C66.2005 239.625 91.8371 261.319 103.604 296.359L102.225 296.893Z" fill="#0E0E0E"/>
<path d="M216.352 20.6494C218.651 20.6494 220.514 18.6477 220.514 16.1785C220.514 13.7093 218.651 11.7076 216.352 11.7076C214.053 11.7076 212.189 13.7093 212.189 16.1785C212.189 18.6477 214.053 20.6494 216.352 20.6494Z" fill="#AAE0FF"/>
<path d="M111.175 33.6154C111.564 31.1819 110.043 28.8701 107.778 28.452C105.512 28.0338 103.36 29.6676 102.971 32.1012C102.581 34.5347 104.102 36.8464 106.368 37.2646C108.633 37.6827 110.786 36.049 111.175 33.6154Z" fill="#AAE0FF"/>
<path d="M245.535 94.7129C246.737 94.7129 247.712 93.666 247.712 92.3745C247.712 91.0829 246.737 90.0359 245.535 90.0359C244.332 90.0359 243.357 91.0829 243.357 92.3745C243.357 93.666 244.332 94.7129 245.535 94.7129Z" fill="white"/>
<path d="M19.8068 97.293C20.0816 96.0357 19.3554 94.7772 18.1848 94.482C17.0143 94.1869 15.8426 94.9669 15.5678 96.2242C15.2931 97.4816 16.0192 98.7401 17.1898 99.0352C18.3603 99.3304 19.532 98.5504 19.8068 97.293Z" fill="#AAE0FF"/>
<path d="M53.5423 186.019C55.6129 184.947 56.4822 182.274 55.4839 180.05C54.4856 177.826 51.9977 176.892 49.927 177.964C47.8563 179.037 46.987 181.709 47.9854 183.933C48.9837 186.158 51.4716 187.091 53.5423 186.019Z" fill="#AAE0FF"/>
<path d="M200.595 94.9565C200.198 94.9565 199.875 94.6099 199.875 94.1827V85.8911C199.875 85.4639 200.198 85.1172 200.595 85.1172C200.993 85.1172 201.316 85.4639 201.316 85.8911V94.1827C201.316 94.6099 200.993 94.9565 200.595 94.9565Z" fill="white"/>
<path d="M196.015 90.036C196.015 89.6087 196.337 89.2621 196.735 89.2621H204.454C204.852 89.2621 205.175 89.6087 205.175 90.036C205.175 90.4632 204.852 90.8098 204.454 90.8098H196.735C196.337 90.8098 196.015 90.4632 196.015 90.036Z" fill="white"/>
<path d="M192.747 204.172C192.349 204.172 192.026 203.826 192.026 203.399V195.107C192.026 194.68 192.349 194.333 192.747 194.333C193.145 194.333 193.467 194.68 193.467 195.107V203.399C193.467 203.826 193.145 204.172 192.747 204.172Z" fill="white"/>
<path d="M188.166 199.252C188.166 198.825 188.489 198.478 188.886 198.478H196.606C197.003 198.478 197.326 198.825 197.326 199.252C197.326 199.679 197.003 200.026 196.606 200.026H188.886C188.489 200.026 188.166 199.679 188.166 199.252Z" fill="white"/>
<path d="M128.495 144.758C129.77 144.758 130.803 143.648 130.803 142.279C130.803 140.91 129.77 139.8 128.495 139.8C127.221 139.8 126.188 140.91 126.188 142.279C126.188 143.648 127.221 144.758 128.495 144.758Z" stroke="white" stroke-width="4.23" stroke-miterlimit="10"/>
<path d="M185.224 369.389H176.191L175.258 348.293H186.159L185.224 369.389Z" fill="#0E0E0E"/>
<path d="M342.202 369.389H333.17L332.236 348.293H343.137L342.202 369.389Z" fill="#0E0E0E"/>
<path d="M334.328 311.68C333.332 314.996 332.247 318.401 331.06 321.894H181.115C181.115 321.894 161.764 237.29 181.115 221.818C181.611 221.423 182.204 221.033 182.896 220.653C208.959 206.267 313.452 202.891 334.666 221.396C334.828 221.533 334.978 221.676 335.123 221.818C342.94 229.527 349.737 260.293 334.329 311.68H334.328Z" fill="#EA7B00"/>
<path d="M237.648 321.894H181.148L186.657 262.597C196.51 267.19 222.738 291.435 237.646 321.894H237.648Z" fill="#982C20"/>
<path d="M334.328 311.68C333.332 314.996 332.247 318.401 331.061 321.894H276.599C285.965 303.236 308.676 274.976 330.729 261.966L334.33 311.68H334.328Z" fill="#982C20"/>
<path d="M353.118 261.767H332.329C328.835 261.767 325.881 264.548 325.423 268.269L318.792 322.118H197.294L190.663 268.269C190.204 264.548 187.251 261.767 183.757 261.767H162.968C158.631 261.767 155.348 265.978 156.11 270.565L167.652 360.241H348.434L359.975 270.565C360.737 265.978 357.454 261.767 353.118 261.767Z" fill="#EA7B00"/>
<path d="M317.582 292.705C327.365 296.223 325.458 318.472 317.582 321.894H198.902C190.039 319.437 189.29 290.005 202.072 292.22C280.301 308.02 284.091 282.814 317.582 292.707V292.705Z" fill="#F2B066"/>
<path d="M227.126 270.154C227.09 275.9 227.377 281.305 227.953 286.042H283.601L286.897 227.677C283.591 206.359 274.542 201.193 260.219 201.193C247.4 201.193 238.863 212.425 233.675 227.46C229.19 240.451 227.206 256.275 227.126 270.154Z" fill="#007880"/>
<path d="M227.126 271.281L247.264 269.978C236.084 266.047 235.194 247.616 246.559 236.147L233.673 227.458C229.188 240.449 227.204 257.401 227.124 271.279L227.126 271.281Z" fill="#005459"/>
<path d="M223.292 298.104H299.748V270.156H230.879L223.292 298.104Z" fill="#0E0E0E"/>
<path d="M309.517 289.235L288.981 369.389H272.967C278.036 335.28 276.901 313.107 281.67 284.785C285.853 261.537 314.495 267.689 309.517 289.235Z" fill="#0E0E0E"/>
<path d="M283.229 369.389C283.229 369.336 283.226 369.284 283.226 369.229C283.226 363.288 287.711 358.47 293.242 358.47C298.774 358.47 303.259 363.288 303.259 369.229C303.259 369.282 303.256 369.334 303.256 369.389H283.231H283.229Z" fill="#B15626"/>
<path d="M295.172 358.671L291.531 357.475C289.127 352.397 278.879 353.027 280.306 359.206C276.285 359.849 274.169 357.698 274.169 357.698L272.967 369.387H294.682L295.172 358.671Z" fill="#B15626"/>
<path d="M219.342 289.235L239.878 369.389H255.892C250.822 335.28 251.958 313.107 247.189 284.785C243.005 261.537 214.363 267.689 219.342 289.235Z" fill="#0E0E0E"/>
<path d="M245.63 369.389C245.63 369.336 245.633 369.284 245.633 369.229C245.633 363.288 241.148 358.47 235.616 358.47C230.085 358.47 225.6 363.288 225.6 369.229C225.6 369.282 225.603 369.334 225.603 369.389H245.628H245.63Z" fill="#B15626"/>
<path d="M233.687 358.671L237.327 357.475C239.731 352.397 249.98 353.027 248.553 359.206C252.574 359.849 254.69 357.698 254.69 357.698L255.892 369.387H234.177L233.687 358.671Z" fill="#B15626"/>
<path d="M251.643 203.067C259.153 207.963 260.224 222.502 256.374 228.294L234.943 245.443L256.763 257.512L253.218 269.978C253.218 269.978 230.444 267.988 219.295 255.704C208.591 243.91 234.686 209.267 251.644 203.065L251.643 203.067Z" fill="#007880"/>
<path d="M266.879 225.122C260.454 216.457 264.892 203.067 273.081 203.461C299.748 213.545 307.98 241.545 299.532 254.115C292.294 264.883 260.454 269.03 260.454 269.03V257.24L282.577 252.106C282.577 252.106 271.17 233.123 266.879 225.122Z" fill="#007880"/>
<path d="M243.51 266.041C243.096 262.093 245.247 257.156 250.779 256.077C260.441 254.192 263.939 259.886 264.851 263.958C265.089 265.018 264.192 266.141 263.361 266.041C262.531 265.942 261.948 265.44 261.805 264.632C261.634 263.66 261.155 262.457 260.119 261.829C261.116 263.932 260.699 266.041 257.98 266.041H243.508H243.51Z" fill="#F7A594"/>
<path d="M265.326 266.03L272.93 225.077H274.542C274.027 227.897 266.547 268.875 266.313 270.154H243.525L241.036 266.03H265.326Z" fill="#99C1FF"/>
<path d="M274.54 225.077H331.122L322.754 270.156H266.312L274.54 225.077Z" fill="white"/>
<path d="M258.045 206.003C258.045 210.663 271.05 213.753 275.301 208.855C275.945 208.121 276.386 207.208 276.557 206.091L279.006 194.288L263.474 187.998L263.011 189.54L258.045 206.003Z" fill="#F7A594"/>
<path d="M276.555 206.091L279.004 194.288L264.309 190.038C260.504 202.197 274.078 211.913 276.553 206.091H276.555Z" fill="#F4856D"/>
<path d="M262.326 183.463C261.508 195.064 270.044 205.28 277.205 205.799C284.366 206.318 294.227 197.725 295.043 186.124C295.862 174.523 289.2 164.525 280.165 163.789C271.13 163.054 263.142 171.863 262.326 183.463Z" fill="#F7A594"/>
<path d="M274.298 164.669C284.202 157.933 289.651 164.268 294.583 170.988C298.044 175.702 300.495 179.09 304.8 179.8C296.516 191.024 279.949 183.619 274.729 172.372C274.215 178.775 267.19 184.078 262.326 183.465C260.751 176.341 265.344 161.939 274.3 164.669H274.298Z" fill="#0E0E0E"/>
<path d="M264.912 188.174C267.261 187.764 268.857 185.385 268.476 182.861C268.094 180.337 265.88 178.623 263.53 179.033C261.18 179.443 259.585 181.821 259.966 184.345C260.347 186.869 262.562 188.583 264.912 188.174Z" fill="#F7A594"/>
<path d="M140.953 67.4545C130.424 79.5717 113.619 89.4999 95.6388 93.7326C95.6318 95.0243 95.6041 102.168 95.4655 135.11C95.2818 179.052 134.215 200.524 140.26 203.818C146.117 200.922 185.539 179.483 185.722 135.541C185.861 102.604 185.889 95.4561 185.896 94.1644C167.95 89.7605 151.381 79.6722 140.953 67.4545Z" fill="white"/>
<path d="M140.845 75.3987C130.535 85.5577 116.249 93.5465 100.539 97.8983L100.383 135.128C100.314 152.163 106.611 167.575 119.112 180.935C127.322 189.713 135.959 195.159 140.339 197.605C140.526 197.501 140.734 197.386 140.939 197.274V75.488C140.908 75.4582 140.876 75.4322 140.849 75.4024L140.845 75.3987Z" fill="#296ACC"/>
<path d="M140.932 75.4843V197.27C145.486 194.724 153.769 189.464 161.698 181.136C174.306 167.899 180.735 152.546 180.804 135.512L180.96 98.2816C165.334 93.7921 151.152 85.7029 140.932 75.4843Z" fill="#2E77E6"/>
<path d="M122.682 129.146V157.989C122.682 161.201 159.189 161.201 159.189 157.989V129.146H122.682ZM142.783 144.461V152.636C142.783 153.726 141.958 154.627 140.946 154.627C139.934 154.627 139.092 153.723 139.092 152.636V144.442C137.529 143.686 136.43 141.989 136.43 140.031C136.43 137.354 138.457 135.195 140.949 135.195C143.441 135.195 145.451 137.354 145.451 140.031C145.451 142.004 144.37 143.701 142.79 144.461H142.783Z" fill="white"/>
<path d="M155.991 127.091H152.296V125.148C152.296 118.417 147.198 112.945 140.936 112.945C134.673 112.945 129.575 118.421 129.575 125.148V127.091H125.881V125.148C125.881 116.228 132.635 108.973 140.939 108.973C149.243 108.973 155.994 116.228 155.994 125.148V127.091H155.991Z" fill="white"/>
</g>
<defs>
<clipPath id="clip0_85_522">
<rect width="391" height="374" fill="white" transform="translate(0.5)"/>
</clipPath>
</defs>
</svg>
