<svg width="841" height="803" viewBox="0 0 841 803" fill="none" xmlns="http://www.w3.org/2000/svg">
<g filter="url(#filter0_f_205_5)">
<ellipse cx="419.5" cy="427" rx="209.5" ry="200" fill="#00BEFF"/>
</g>
<g filter="url(#filter1_f_205_5)">
<ellipse cx="429" cy="401.5" rx="329" ry="301.5" fill="white" fill-opacity="0.1"/>
</g>
<g opacity="0.4">
<path d="M386.439 347.487L364.91 322.668C364.552 322.807 364.171 322.886 363.774 322.886C361.805 322.886 360.206 321.046 360.206 318.773C360.206 316.5 361.802 314.661 363.774 314.661C365.746 314.661 367.341 316.5 367.341 318.773C367.341 319.376 367.226 319.949 367.023 320.464L389.287 346.129V418.485L363.393 448.335V508.164H360.548V446.977L386.442 417.127V347.49L386.439 347.487Z" fill="url(#paint0_linear_205_5)"/>
<path d="M357.34 366.907C356.078 366.274 355.198 364.825 355.198 363.137C355.198 360.867 356.794 359.025 358.765 359.025C360.737 359.025 362.333 360.864 362.333 363.137C362.333 364.825 361.45 366.274 360.19 366.907V413.802L341.739 435.072V508.161H338.895V433.714L357.346 412.444V366.907H357.34Z" fill="url(#paint1_linear_205_5)"/>
<path d="M315.448 258.807C314.186 258.174 313.305 256.725 313.305 255.037C313.305 252.767 314.901 250.924 316.873 250.924C318.844 250.924 320.44 252.764 320.44 255.037C320.44 256.725 319.557 258.174 318.298 258.807V340.41L291.028 445.568V550.171L317.535 507.004L315.524 509.322L288.184 551.528V444.207L315.453 339.049V258.807H315.448Z" fill="url(#paint2_linear_205_5)"/>
<path d="M228.876 360.476L205.267 333.26C204.788 333.533 204.252 333.691 203.684 333.691C201.715 333.691 200.116 331.851 200.116 329.578C200.116 327.305 201.712 325.465 203.684 325.465C205.656 325.465 207.252 327.305 207.252 329.578C207.252 329.981 207.199 330.369 207.104 330.739L231.721 359.116V466.437L204.452 497.872V581.884H201.607V496.514L228.876 465.079V360.476V360.476Z" fill="url(#paint3_linear_205_5)"/>
<path d="M409.578 232.003C411.547 232.003 413.146 233.843 413.146 236.116C413.146 237.804 412.262 239.253 411.003 239.886V508.164H408.158V239.883C406.896 239.25 406.016 237.801 406.016 236.113C406.016 233.843 407.611 232 409.583 232L409.578 232.003Z" fill="url(#paint4_linear_205_5)"/>
<path d="M384.293 307.678C384.293 307.335 384.333 307.008 384.401 306.69L342.911 258.862C342.506 259.046 342.067 259.15 341.607 259.15C339.638 259.15 338.039 257.31 338.039 255.037C338.039 252.764 339.635 250.924 341.607 250.924C343.579 250.924 345.174 252.764 345.174 255.037C345.174 255.567 345.085 256.073 344.925 256.54L386.152 304.065C386.659 303.744 387.24 303.562 387.861 303.562C389.83 303.562 391.429 305.402 391.429 307.675C391.429 309.948 389.833 311.787 387.861 311.787C385.889 311.787 384.293 309.948 384.293 307.675V307.678Z" fill="url(#paint5_linear_205_5)"/>
<path d="M386.775 445.549C388.745 445.549 390.343 447.389 390.343 449.662C390.343 451.35 389.46 452.799 388.2 453.432V508.164H385.356V453.432C384.094 452.799 383.213 451.35 383.213 449.662C383.213 447.392 384.809 445.549 386.781 445.549H386.775Z" fill="url(#paint6_linear_205_5)"/>
<path d="M336.746 295.67C336.746 293.4 338.342 291.557 340.314 291.557C342.286 291.557 343.881 293.397 343.881 295.67C343.881 297.358 342.998 298.807 341.739 299.44V390.256C343.001 390.89 343.881 392.338 343.881 394.027C343.881 396.297 342.286 398.139 340.314 398.139C338.342 398.139 336.746 396.3 336.746 394.027C336.746 392.338 337.629 390.89 338.889 390.256V299.44C337.627 298.807 336.746 297.358 336.746 295.67Z" fill="url(#paint7_linear_205_5)"/>
<path d="M313.303 469.759C313.303 468.071 314.186 466.622 315.445 465.988V374.675C314.183 374.042 313.303 372.593 313.303 370.905C313.303 368.635 314.899 366.792 316.87 366.792C318.842 366.792 320.438 368.632 320.438 370.905C320.438 372.593 319.555 374.042 318.295 374.675V465.988C319.557 466.622 320.438 468.071 320.438 469.759C320.438 472.029 318.842 473.871 316.87 473.871C314.899 473.871 313.303 472.032 313.303 469.759V469.759Z" fill="url(#paint8_linear_205_5)"/>
<path d="M429.249 504.394V433.714L447.7 412.444V365.598C446.438 364.965 445.558 363.516 445.558 361.828C445.558 359.558 447.153 357.715 449.125 357.715C451.097 357.715 452.693 359.555 452.693 361.828C452.693 363.516 451.81 364.965 450.55 365.598V413.805L432.099 435.075V504.394C433.361 505.028 434.242 506.476 434.242 508.165C434.242 510.435 432.646 512.277 430.674 512.277C428.702 512.277 427.106 510.438 427.106 508.165C427.106 506.476 427.99 505.028 429.249 504.394Z" fill="url(#paint9_linear_205_5)"/>
<path d="M274.126 392.496C274.126 394.766 272.53 396.609 270.558 396.609C268.586 396.609 266.99 394.769 266.99 392.496C266.99 390.808 267.874 389.359 269.133 388.726V325.653C267.871 325.019 266.99 323.571 266.99 321.883C266.99 319.613 268.586 317.77 270.558 317.77C272.53 317.77 274.126 319.61 274.126 321.883C274.126 323.571 273.242 325.019 271.983 325.653V388.726C273.245 389.359 274.126 390.808 274.126 392.496Z" fill="url(#paint10_linear_205_5)"/>
<path d="M266.383 453.132C266.383 450.862 267.979 449.019 269.951 449.019C271.922 449.019 273.518 450.859 273.518 453.132C273.518 454.82 272.635 456.269 271.376 456.902V499.948C272.637 500.581 273.518 502.03 273.518 503.718C273.518 505.988 271.922 507.831 269.951 507.831C267.979 507.831 266.383 505.991 266.383 503.718C266.383 502.03 267.266 500.581 268.526 499.948V456.902C267.264 456.269 266.383 454.82 266.383 453.132Z" fill="url(#paint11_linear_205_5)"/>
<path d="M269.948 522.166C271.917 522.166 273.516 524.006 273.516 526.279C273.516 527.967 272.633 529.416 271.373 530.049V563.754L286.099 580.729L284.088 583.048L268.528 565.112V530.046C267.266 529.413 266.386 527.964 266.386 526.276C266.386 524.006 267.982 522.163 269.953 522.163L269.948 522.166Z" fill="url(#paint12_linear_205_5)"/>
<path d="M269.948 429.926C270.408 429.926 270.847 430.029 271.252 430.214L288.176 410.705V282.671C286.914 282.038 286.033 280.589 286.033 278.901C286.033 276.631 287.629 274.788 289.601 274.788C291.572 274.788 293.168 276.628 293.168 278.901C293.168 280.589 292.285 282.038 291.026 282.671V412.063L273.268 432.532C273.429 432.999 273.518 433.505 273.518 434.035C273.518 436.305 271.922 438.148 269.951 438.148C267.979 438.148 266.383 436.308 266.383 434.035C266.383 431.762 267.979 429.923 269.951 429.923L269.948 429.926Z" fill="url(#paint13_linear_205_5)"/>
<path d="M249.341 514.041C251.31 514.041 252.908 515.881 252.908 518.154C252.908 519.842 252.025 521.291 250.766 521.924V581.887H247.921V521.924C246.659 521.291 245.778 519.842 245.778 518.154C245.778 515.884 247.374 514.041 249.346 514.041H249.341Z" fill="url(#paint14_linear_205_5)"/>
<path d="M245.776 476.608C245.776 474.338 247.372 472.496 249.344 472.496C251.316 472.496 252.912 474.335 252.912 476.608C252.912 478.881 251.316 480.721 249.344 480.721C249.055 480.721 248.773 480.676 248.503 480.6L231.724 499.942V581.887H228.879V498.584L246.221 478.593C245.939 478.005 245.776 477.33 245.776 476.608V476.608Z" fill="url(#paint15_linear_205_5)"/>
<path d="M253.372 456.869C253.372 459.139 251.776 460.982 249.804 460.982C247.832 460.982 246.236 459.142 246.236 456.869C246.236 455.117 247.188 453.626 248.526 453.032V410.765C247.188 410.174 246.236 408.68 246.236 406.928C246.236 404.658 247.832 402.816 249.804 402.816C251.776 402.816 253.372 404.655 253.372 406.928C253.372 408.55 252.557 409.947 251.374 410.617V453.181C252.554 453.85 253.372 455.248 253.372 456.869V456.869Z" fill="url(#paint16_linear_205_5)"/>
<path d="M249.341 388.483C247.371 388.483 245.773 386.644 245.773 384.371C245.773 382.683 246.656 381.234 247.916 380.6V346.896L235.603 332.703C235.283 332.812 234.943 332.872 234.591 332.872C232.622 332.872 231.023 331.033 231.023 328.76C231.023 326.487 232.619 324.647 234.591 324.647C236.563 324.647 238.159 326.487 238.159 328.76C238.159 329.414 238.022 330.029 237.788 330.578L250.763 345.535V380.6C252.025 381.234 252.906 382.683 252.906 384.371C252.906 386.641 251.31 388.483 249.338 388.483H249.341Z" fill="url(#paint17_linear_205_5)"/>
<path d="M199.464 368.129C199.464 365.859 201.06 364.016 203.032 364.016C205.003 364.016 206.599 365.856 206.599 368.129C206.599 369.817 205.716 371.266 204.457 371.899V461.276C205.771 461.882 206.702 463.361 206.702 465.092C206.702 467.362 205.106 469.204 203.134 469.204C201.162 469.204 199.566 467.365 199.566 465.092C199.566 463.452 200.402 462.04 201.609 461.379V371.899C200.347 371.266 199.466 369.817 199.466 368.129H199.464Z" fill="url(#paint18_linear_205_5)"/>
<path d="M176.291 541.254C176.291 539.69 177.05 538.329 178.165 537.635V446.173C176.903 445.54 176.022 444.091 176.022 442.403C176.022 440.133 177.618 438.291 179.59 438.291C181.562 438.291 183.158 440.13 183.158 442.403C183.158 444.091 182.275 445.54 181.015 446.173V537.369C182.416 537.923 183.429 539.451 183.429 541.257C183.429 543.527 181.833 545.37 179.861 545.37C177.889 545.37 176.293 543.53 176.293 541.257L176.291 541.254Z" fill="url(#paint19_linear_205_5)"/>
<path d="M132.04 524.455C134.01 524.455 135.608 526.294 135.608 528.567C135.608 529.098 135.519 529.604 135.358 530.071L179.299 580.723L177.288 583.042L133.344 532.389C132.94 532.574 132.5 532.677 132.04 532.677C130.071 532.677 128.473 530.837 128.473 528.564C128.473 526.291 130.069 524.452 132.04 524.452V524.455Z" fill="url(#paint20_linear_205_5)"/>
<path d="M89.4541 472.535C89.4541 470.847 90.3375 469.398 91.5968 468.765V378.206C90.3349 377.573 89.4541 376.124 89.4541 374.436C89.4541 372.166 91.05 370.323 93.0218 370.323C94.9937 370.323 96.5895 372.163 96.5895 374.436C96.5895 376.124 95.7062 377.573 94.4468 378.206V468.765C95.7088 469.398 96.5895 470.847 96.5895 472.535C96.5895 474.805 94.9937 476.648 93.0218 476.648C91.05 476.648 89.4541 474.808 89.4541 472.535Z" fill="url(#paint21_linear_205_5)"/>
<path d="M136.691 387.262C136.691 389.532 135.095 391.375 133.123 391.375C131.152 391.375 129.556 389.535 129.556 387.262C129.556 385.574 130.439 384.125 131.698 383.492V313.606C130.436 312.972 129.556 311.524 129.556 309.836C129.556 307.565 131.152 305.723 133.123 305.723C135.095 305.723 136.691 307.562 136.691 309.836C136.691 311.524 135.808 312.972 134.548 313.606V383.492C135.81 384.125 136.691 385.574 136.691 387.262Z" fill="url(#paint22_linear_205_5)"/>
<path d="M181.01 297.364V403.21L162.559 424.48V470.016C163.821 470.65 164.702 472.099 164.702 473.787C164.702 476.057 163.106 477.899 161.134 477.899C159.162 477.899 157.566 476.06 157.566 473.787C157.566 472.099 158.45 470.65 159.709 470.016V423.122L178.16 401.852V297.364C176.898 296.731 176.018 295.282 176.018 293.594C176.018 291.324 177.613 289.481 179.585 289.481C181.557 289.481 183.153 291.321 183.153 293.594C183.153 295.282 182.27 296.731 181.01 297.364Z" fill="url(#paint23_linear_205_5)"/>
<path d="M159.357 332.53V389.947L133.463 419.797V489.434L155.087 514.362C155.513 514.153 155.984 514.038 156.475 514.038C158.444 514.038 160.043 515.878 160.043 518.151C160.043 520.424 158.447 522.263 156.475 522.263C154.503 522.263 152.908 520.424 152.908 518.151C152.908 517.657 152.986 517.184 153.126 516.741L130.615 490.792V418.436L156.509 388.586V332.527C155.247 331.893 154.367 330.445 154.367 328.757C154.367 326.487 155.963 324.644 157.934 324.644C159.906 324.644 161.502 326.483 161.502 328.757C161.502 330.445 160.619 331.893 159.359 332.527L159.357 332.53Z" fill="url(#paint24_linear_205_5)"/>
<path d="M110.321 324.65C112.29 324.65 113.889 326.49 113.889 328.763C113.889 330.451 113.006 331.899 111.746 332.533V581.887H108.902V332.53C107.64 331.896 106.759 330.448 106.759 328.76C106.759 326.49 108.355 324.647 110.326 324.647L110.321 324.65Z" fill="url(#paint25_linear_205_5)"/>
<path d="M71 401.273C71 399.003 72.5959 397.16 74.5677 397.16C76.5396 397.16 78.1354 399 78.1354 401.273C78.1354 402.961 77.2521 404.41 75.9927 405.043V486.167L94.4439 507.437V581.884H91.5992V508.795L73.148 487.525V405.04C71.886 404.407 71.0053 402.958 71.0053 401.27L71 401.273Z" fill="url(#paint26_linear_205_5)"/>
</g>
<g opacity="0.4">
<path d="M735.045 421.209L713.515 396.391C713.157 396.53 712.776 396.609 712.379 396.609C710.41 396.609 708.812 394.769 708.812 392.496C708.812 390.223 710.407 388.383 712.379 388.383C714.351 388.383 715.947 390.223 715.947 392.496C715.947 393.099 715.831 393.672 715.629 394.187L737.892 419.852V492.207L711.998 522.057V581.887H709.153V520.7L735.048 490.85V421.212L735.045 421.209Z" fill="url(#paint27_linear_205_5)"/>
<path d="M705.948 440.631C704.686 439.997 703.805 438.548 703.805 436.86C703.805 434.59 705.401 432.748 707.373 432.748C709.345 432.748 710.941 434.587 710.941 436.86C710.941 438.548 710.057 439.997 708.798 440.631V487.525L690.347 508.795V581.884H687.502V507.437L705.953 486.167V440.631H705.948Z" fill="url(#paint28_linear_205_5)"/>
<path d="M664.053 332.53C662.791 331.896 661.91 330.448 661.91 328.76C661.91 326.49 663.506 324.647 665.478 324.647C667.45 324.647 669.046 326.487 669.046 328.76C669.046 330.448 668.162 331.896 666.903 332.53V414.133L639.634 445.567V550.171L666.141 580.726L664.129 583.045L636.789 551.528V444.207L664.058 412.772V332.53H664.053Z" fill="url(#paint29_linear_205_5)"/>
<path d="M577.485 286.753L553.875 259.537C553.397 259.81 552.86 259.968 552.292 259.968C550.323 259.968 548.725 258.128 548.725 255.855C548.725 253.582 550.32 251.742 552.292 251.742C554.264 251.742 555.86 253.582 555.86 255.855C555.86 256.258 555.807 256.646 555.713 257.016L580.329 285.393V392.714L553.06 424.149V508.161H550.215V422.791L577.485 391.357V286.753Z" fill="url(#paint30_linear_205_5)"/>
<path d="M758.186 305.726C760.156 305.726 761.754 307.565 761.754 309.839C761.754 311.527 760.871 312.975 759.611 313.609V581.887H756.767V313.606C755.505 312.972 754.624 311.524 754.624 309.836C754.624 307.565 756.22 305.723 758.192 305.723L758.186 305.726Z" fill="url(#paint31_linear_205_5)"/>
<path d="M732.903 381.401C732.903 381.058 732.942 380.731 733.01 380.413L691.52 332.584C691.115 332.769 690.676 332.872 690.216 332.872C688.247 332.872 686.648 331.033 686.648 328.76C686.648 326.487 688.244 324.647 690.216 324.647C692.188 324.647 693.784 326.487 693.784 328.76C693.784 329.29 693.695 329.796 693.534 330.263L734.761 377.788C735.269 377.467 735.85 377.285 736.47 377.285C738.439 377.285 740.038 379.124 740.038 381.398C740.038 383.671 738.442 385.51 736.47 385.51C734.498 385.51 732.903 383.671 732.903 381.398V381.401Z" fill="url(#paint32_linear_205_5)"/>
<path d="M735.381 519.275C737.35 519.275 738.949 521.115 738.949 523.388C738.949 525.076 738.065 526.525 736.806 527.158V581.89H733.961V527.158C732.699 526.525 731.818 525.076 731.818 523.388C731.818 521.118 733.414 519.275 735.386 519.275H735.381Z" fill="url(#paint33_linear_205_5)"/>
<path d="M685.352 369.393C685.352 367.123 686.947 365.28 688.919 365.28C690.891 365.28 692.487 367.12 692.487 369.393C692.487 371.081 691.604 372.53 690.344 373.163V463.979C691.606 464.613 692.487 466.061 692.487 467.749C692.487 470.02 690.891 471.862 688.919 471.862C686.947 471.862 685.352 470.023 685.352 467.749C685.352 466.061 686.235 464.613 687.494 463.979V373.163C686.232 372.53 685.352 371.081 685.352 369.393Z" fill="url(#paint34_linear_205_5)"/>
<path d="M661.91 543.482C661.91 541.793 662.794 540.345 664.053 539.711V448.398C662.791 447.765 661.91 446.316 661.91 444.628C661.91 442.358 663.506 440.515 665.478 440.515C667.45 440.515 669.046 442.355 669.046 444.628C669.046 446.316 668.162 447.765 666.903 448.398V539.711C668.165 540.345 669.046 541.793 669.046 543.482C669.046 545.752 667.45 547.594 665.478 547.594C663.506 547.594 661.91 545.755 661.91 543.482Z" fill="url(#paint35_linear_205_5)"/>
<path d="M777.858 578.117V507.437L796.309 486.167V439.321C795.047 438.688 794.166 437.239 794.166 435.551C794.166 433.281 795.762 431.438 797.734 431.438C799.706 431.438 801.301 433.278 801.301 435.551C801.301 437.239 800.418 438.688 799.159 439.321V487.528L780.708 508.798V578.117C781.97 578.75 782.85 580.199 782.85 581.887C782.85 584.157 781.254 586 779.283 586C777.311 586 775.715 584.16 775.715 581.887C775.715 580.199 776.598 578.75 777.858 578.117Z" fill="url(#paint36_linear_205_5)"/>
<path d="M622.731 392.496C622.731 394.766 621.135 396.609 619.163 396.609C617.192 396.609 615.596 394.769 615.596 392.496C615.596 390.808 616.479 389.359 617.738 388.726V325.653C616.476 325.019 615.596 323.571 615.596 321.883C615.596 319.613 617.192 317.77 619.163 317.77C621.135 317.77 622.731 319.61 622.731 321.883C622.731 323.571 621.848 325.019 620.588 325.653V388.726C621.85 389.359 622.731 390.808 622.731 392.496Z" fill="url(#paint37_linear_205_5)"/>
<path d="M614.988 453.132C614.988 450.862 616.584 449.019 618.556 449.019C620.528 449.019 622.124 450.859 622.124 453.132C622.124 454.82 621.24 456.269 619.981 456.902V499.948C621.243 500.581 622.124 502.03 622.124 503.718C622.124 505.988 620.528 507.831 618.556 507.831C616.584 507.831 614.988 505.991 614.988 503.718C614.988 502.03 615.872 500.581 617.131 499.948V456.902C615.869 456.269 614.988 454.82 614.988 453.132Z" fill="url(#paint38_linear_205_5)"/>
<path d="M618.557 522.166C620.526 522.166 622.124 524.006 622.124 526.279C622.124 527.967 621.241 529.416 619.982 530.049V563.754L634.707 580.729L632.696 583.048L617.137 565.112V530.046C615.875 529.413 614.994 527.964 614.994 526.276C614.994 524.006 616.59 522.163 618.562 522.163L618.557 522.166Z" fill="url(#paint39_linear_205_5)"/>
<path d="M618.557 429.926C619.017 429.926 619.456 430.029 619.861 430.214L636.785 410.705V282.671C635.523 282.038 634.642 280.589 634.642 278.901C634.642 276.631 636.238 274.788 638.21 274.788C640.182 274.788 641.778 276.628 641.778 278.901C641.778 280.589 640.894 282.038 639.635 282.671V412.063L621.878 432.532C622.038 432.999 622.128 433.505 622.128 434.035C622.128 436.305 620.532 438.148 618.56 438.148C616.588 438.148 614.992 436.308 614.992 434.035C614.992 431.762 616.588 429.923 618.56 429.923L618.557 429.926Z" fill="url(#paint40_linear_205_5)"/>
<path d="M597.949 440.318C599.918 440.318 601.517 442.158 601.517 444.431C601.517 446.119 600.633 447.568 599.374 448.201V508.164H596.529V448.201C595.267 447.568 594.387 446.119 594.387 444.431C594.387 442.161 595.983 440.318 597.954 440.318H597.949Z" fill="url(#paint41_linear_205_5)"/>
<path d="M594.382 402.885C594.382 400.615 595.978 398.773 597.949 398.773C599.921 398.773 601.517 400.612 601.517 402.885C601.517 405.158 599.921 406.998 597.949 406.998C597.66 406.998 597.379 406.953 597.108 406.877L580.329 426.219V508.164H577.484V424.861L594.826 404.871C594.545 404.283 594.382 403.607 594.382 402.885V402.885Z" fill="url(#paint42_linear_205_5)"/>
<path d="M601.979 383.146C601.979 385.416 600.383 387.259 598.411 387.259C596.44 387.259 594.844 385.419 594.844 383.146C594.844 381.394 595.795 379.903 597.134 379.309V337.043C595.795 336.452 594.844 334.957 594.844 333.206C594.844 330.936 596.44 329.093 598.411 329.093C600.383 329.093 601.979 330.933 601.979 333.206C601.979 334.827 601.164 336.224 599.981 336.894V379.458C601.162 380.128 601.979 381.525 601.979 383.146V383.146Z" fill="url(#paint43_linear_205_5)"/>
<path d="M597.95 314.757C595.981 314.757 594.382 312.918 594.382 310.645C594.382 308.957 595.266 307.508 596.525 306.875V273.17L584.213 258.977C583.892 259.086 583.553 259.146 583.201 259.146C581.231 259.146 579.633 257.307 579.633 255.034C579.633 252.761 581.229 250.921 583.201 250.921C585.172 250.921 586.768 252.761 586.768 255.034C586.768 255.688 586.632 256.304 586.398 256.852L599.372 271.809V306.875C600.634 307.508 601.515 308.957 601.515 310.645C601.515 312.915 599.919 314.757 597.947 314.757H597.95Z" fill="url(#paint44_linear_205_5)"/>
<path d="M548.072 294.406C548.072 292.136 549.668 290.293 551.64 290.293C553.612 290.293 555.208 292.133 555.208 294.406C555.208 296.094 554.324 297.543 553.065 298.176V387.553C554.38 388.159 555.31 389.638 555.31 391.369C555.31 393.639 553.714 395.481 551.743 395.481C549.771 395.481 548.175 393.642 548.175 391.369C548.175 389.729 549.011 388.317 550.218 387.656V298.176C548.956 297.543 548.075 296.094 548.075 294.406H548.072Z" fill="url(#paint45_linear_205_5)"/>
<path d="M524.897 467.531C524.897 465.967 525.657 464.607 526.772 463.912V372.451C525.51 371.817 524.629 370.369 524.629 368.68C524.629 366.41 526.225 364.568 528.197 364.568C530.168 364.568 531.764 366.407 531.764 368.68C531.764 370.369 530.881 371.817 529.622 372.451V463.646C531.023 464.2 532.035 465.728 532.035 467.534C532.035 469.804 530.439 471.647 528.467 471.647C526.496 471.647 524.9 469.807 524.9 467.534L524.897 467.531Z" fill="url(#paint46_linear_205_5)"/>
<path d="M480.646 450.732C482.615 450.732 484.214 452.572 484.214 454.845C484.214 455.375 484.124 455.881 483.964 456.348L527.904 507.001L525.893 509.319L481.95 458.666C481.545 458.851 481.106 458.954 480.646 458.954C478.677 458.954 477.078 457.115 477.078 454.842C477.078 452.569 478.674 450.729 480.646 450.729V450.732Z" fill="url(#paint47_linear_205_5)"/>
<path d="M438.06 398.812C438.06 397.124 438.943 395.675 440.205 395.042V304.483C438.943 303.85 438.06 302.401 438.06 300.713C438.06 298.443 439.655 296.6 441.627 296.6C443.599 296.6 445.195 298.44 445.195 300.713C445.195 302.401 444.312 303.85 443.052 304.483V395.042C444.314 395.675 445.195 397.124 445.195 398.812C445.195 401.082 443.599 402.925 441.627 402.925C439.655 402.925 438.06 401.085 438.06 398.812Z" fill="url(#paint48_linear_205_5)"/>
<path d="M485.299 313.539C485.299 315.809 483.704 317.652 481.732 317.652C479.76 317.652 478.164 315.812 478.164 313.539C478.164 311.851 479.047 310.402 480.307 309.769V239.883C479.045 239.25 478.164 237.801 478.164 236.113C478.164 233.843 479.76 232 481.732 232C483.704 232 485.299 233.84 485.299 236.113C485.299 237.801 484.416 239.25 483.157 239.883V309.769C484.419 310.402 485.299 311.851 485.299 313.539Z" fill="url(#paint49_linear_205_5)"/>
<path d="M529.619 273.158V379.003L511.167 400.273V445.81C512.429 446.443 513.31 447.892 513.31 449.58C513.31 451.85 511.714 453.693 509.743 453.693C507.771 453.693 506.175 451.853 506.175 449.58C506.175 447.892 507.058 446.443 508.318 445.81V398.915L526.769 377.646V273.158C525.507 272.524 524.626 271.076 524.626 269.387C524.626 267.117 526.222 265.275 528.194 265.275C530.166 265.275 531.761 267.114 531.761 269.387C531.761 271.076 530.878 272.524 529.619 273.158Z" fill="url(#paint50_linear_205_5)"/>
<path d="M507.965 258.807V316.224L482.071 346.074V415.712L503.695 440.639C504.121 440.43 504.592 440.315 505.084 440.315C507.053 440.315 508.651 442.155 508.651 444.428C508.651 446.701 507.056 448.541 505.084 448.541C503.112 448.541 501.516 446.701 501.516 444.428C501.516 443.934 501.595 443.461 501.734 443.019L479.224 417.069V344.713L505.118 314.864V258.804C503.856 258.17 502.975 256.722 502.975 255.034C502.975 252.764 504.571 250.921 506.543 250.921C508.515 250.921 510.111 252.761 510.111 255.034C510.111 256.722 509.227 258.17 507.968 258.804L507.965 258.807Z" fill="url(#paint51_linear_205_5)"/>
<path d="M458.93 250.927C460.899 250.927 462.497 252.767 462.497 255.04C462.497 256.728 461.614 258.177 460.355 258.81V508.165H457.51V258.807C456.248 258.174 455.367 256.725 455.367 255.037C455.367 252.767 456.963 250.924 458.935 250.924L458.93 250.927Z" fill="url(#paint52_linear_205_5)"/>
<path d="M419.608 327.55C419.608 325.28 421.204 323.438 423.176 323.438C425.148 323.438 426.744 325.277 426.744 327.55C426.744 329.238 425.86 330.687 424.601 331.321V412.444L443.052 433.714V508.161H440.208V435.072L421.756 413.802V331.318C420.494 330.684 419.614 329.235 419.614 327.547L419.608 327.55Z" fill="url(#paint53_linear_205_5)"/>
</g>
<path opacity="0.1" d="M677.579 608.413H194.718C186.875 608.413 182.448 606.327 184.787 603.797L247.111 536.437C248.412 535.03 254.099 533.902 259.828 533.902H612.477C618.206 533.902 623.89 535.028 625.194 536.437L687.517 603.797C689.857 606.327 685.43 608.413 677.587 608.413H677.579Z" fill="#003A64"/>
<path d="M688.135 571.487L685.067 571.224L679.754 570.969L678.77 572.148L625.189 514.235C623.888 512.828 618.201 511.7 612.472 511.7H259.826C254.097 511.7 248.413 512.825 247.108 514.235L193.527 572.148L192.544 570.969L187.23 571.224L184.162 571.487V583.109H184.181C184.454 584.903 188.519 586.208 194.718 586.208H677.579C683.782 586.208 687.844 584.903 688.117 583.107H688.135V571.487V571.487Z" fill="#DCDCDC"/>
<path d="M677.579 574.725H194.718C186.875 574.725 182.448 572.639 184.787 570.109L247.111 502.75C248.412 501.343 254.099 500.214 259.828 500.214H612.477C618.206 500.214 623.89 501.34 625.194 502.75L687.517 570.109C689.857 572.639 685.43 574.725 677.587 574.725H677.579Z" fill="#F2F2F2"/>
<path d="M481.384 532.903C480.514 532.884 479.641 532.853 478.773 532.853C449.006 532.85 419.239 532.848 389.473 532.853C381.619 532.853 373.758 532.879 365.897 532.892C365.989 532.905 366.081 532.916 366.173 532.926C366.079 532.919 365.987 532.905 365.897 532.892C363.205 533.087 362.08 533.431 361.788 534.223C361.388 535.307 361.078 536.401 360.736 537.505C360.276 538.986 361.438 539.346 366.702 539.346C404.351 539.346 442.002 539.346 479.651 539.346C480.303 539.346 480.961 539.352 481.61 539.341C484.35 539.294 485.948 538.844 485.843 538.058C485.662 536.719 485.372 535.396 485.033 534.086C484.873 533.463 483.753 533.021 481.384 532.903V532.903Z" fill="#202020"/>
<path d="M610.577 532.227C613.124 532.227 614.381 531.832 613.908 531.138C612.987 529.789 611.954 528.453 610.85 527.135C610.427 526.63 609.183 526.257 607.117 526.159C607.04 526.173 606.959 526.18 606.875 526.188C606.956 526.18 607.038 526.17 607.117 526.159C606.033 526.144 604.94 526.115 603.87 526.115C592.338 526.112 580.807 526.109 569.281 526.115C566.749 526.115 564.23 526.141 561.706 526.157C561.822 526.173 561.935 526.183 562.051 526.196C561.938 526.188 561.822 526.175 561.706 526.157C559.493 526.228 558.741 526.633 559.009 527.193C559.627 528.49 560.324 529.805 561.133 531.133C561.551 531.819 563.323 532.227 565.858 532.229C580.77 532.24 595.677 532.24 610.579 532.229L610.577 532.227Z" fill="#202020"/>
<path d="M267.218 525.505C272.137 525.512 277.064 525.505 281.986 525.505C287.063 525.505 292.134 525.512 297.219 525.502C300.198 525.497 301.812 525.115 302.314 524.313C303.045 523.145 303.734 521.988 304.37 520.844C304.799 520.074 303.666 519.716 300.729 519.713C290.914 519.705 281.095 519.703 271.267 519.713C268.341 519.716 266.732 520.076 266.098 520.852C265.181 521.978 264.318 523.114 263.485 524.261C262.849 525.136 263.948 525.499 267.216 525.505H267.218Z" fill="#202020"/>
<path d="M275.873 513.667C272.939 513.67 271.364 514.009 270.739 514.777C269.876 515.839 269.056 516.915 268.28 518.001C267.715 518.79 268.801 519.135 271.851 519.143C275.655 519.153 279.475 519.143 283.287 519.143C287.1 519.143 290.909 519.151 294.729 519.14C297.771 519.132 299.309 518.782 299.83 517.985C300.54 516.899 301.202 515.826 301.825 514.761C302.27 514.004 301.157 513.667 298.187 513.664C290.754 513.656 283.316 513.656 275.876 513.664L275.873 513.667Z" fill="#202020"/>
<path d="M584.887 513.12C588.597 513.12 592.312 513.125 596.013 513.115C598.771 513.109 599.873 512.802 599.402 512.113C598.664 511.032 597.841 509.959 596.941 508.896C596.41 508.268 594.809 507.952 592.298 507.949C584.911 507.941 577.528 507.941 570.153 507.949C567.406 507.952 566.339 508.275 566.746 508.97C567.338 509.977 567.974 510.995 568.642 512.021C569.139 512.786 570.563 513.107 573.542 513.115C577.331 513.122 581.109 513.115 584.89 513.115L584.887 513.12Z" fill="#202020"/>
<path d="M510.836 532.892C504.555 532.884 498.274 532.884 491.998 532.892C488.79 532.898 487.415 533.303 487.578 534.202C487.802 535.443 488.086 536.701 488.399 537.968C488.646 538.973 490.121 539.375 493.599 539.388C496.788 539.402 499.972 539.388 503.156 539.388C506.424 539.388 509.695 539.399 512.957 539.386C516.315 539.373 517.613 538.973 517.329 538.021C516.94 536.729 516.509 535.449 516.031 534.184C515.692 533.287 514.09 532.892 510.836 532.887V532.892Z" fill="#202020"/>
<path d="M355.316 532.85C348.961 532.84 342.604 532.837 336.241 532.85C333.165 532.855 331.511 533.263 331.086 534.126C330.452 535.412 329.868 536.714 329.35 538.029C329.003 538.915 330.373 539.33 333.554 539.344C336.736 539.354 339.925 539.344 343.109 539.344C346.458 539.344 349.802 539.354 353.157 539.341C356.325 539.328 357.95 538.912 358.289 538.005C358.77 536.714 359.18 535.433 359.541 534.17C359.803 533.25 358.536 532.855 355.318 532.85H355.316Z" fill="#202020"/>
<path d="M286.419 530.949C287.242 529.731 288.02 528.526 288.748 527.335C289.25 526.514 288.125 526.117 285.173 526.109C278.931 526.094 272.679 526.096 266.416 526.109C263.503 526.117 261.839 526.488 261.198 527.272C260.188 528.505 259.234 529.755 258.34 531.014C257.764 531.827 258.931 532.214 261.868 532.227C265.028 532.24 268.207 532.229 271.378 532.229C274.548 532.229 277.714 532.237 280.89 532.229C284.121 532.222 285.827 531.827 286.421 530.949H286.419Z" fill="#202020"/>
<path d="M325.288 532.808C320.611 532.784 315.918 532.784 311.217 532.808C308.417 532.821 306.669 533.239 306.19 534.018C305.373 535.349 304.634 536.698 303.966 538.06C303.572 538.865 304.934 539.294 307.778 539.315C310.137 539.33 312.516 539.317 314.885 539.317C317.254 539.317 319.62 539.328 321.994 539.315C324.981 539.296 326.763 538.865 327.192 538.015C327.87 536.677 328.472 535.351 328.998 534.044C329.314 533.26 328.015 532.826 325.288 532.811V532.808Z" fill="#202020"/>
<path d="M550.17 525.504C552.331 525.515 554.485 525.504 556.64 525.504C558.951 525.504 561.27 525.518 563.571 525.502C566.113 525.483 567.436 525.099 567.091 524.424C566.463 523.19 565.753 521.972 564.977 520.765C564.551 520.1 562.927 519.726 560.405 519.716C555.891 519.695 551.385 519.695 546.894 519.716C544.412 519.729 543.182 520.108 543.455 520.773C543.944 521.959 544.525 523.159 545.191 524.368C545.601 525.115 547.307 525.486 550.165 525.502L550.17 525.504Z" fill="#202020"/>
<path d="M494.864 524.397C494.614 523.185 494.301 521.986 493.936 520.799C493.718 520.097 492.232 519.724 489.592 519.713C485.162 519.695 480.732 519.695 476.31 519.713C473.702 519.724 472.39 520.103 472.416 520.802C472.437 521.362 472.585 521.928 472.679 522.496H472.687C472.79 523.127 472.829 523.763 473.016 524.4C473.218 525.092 474.72 525.491 477.251 525.499C481.876 525.518 486.498 525.518 491.112 525.499C493.649 525.489 495.008 525.084 494.866 524.397H494.864Z" fill="#202020"/>
<path d="M553.445 519.143C556.342 519.132 557.533 518.767 557.155 518.02C556.592 516.915 555.99 515.818 555.341 514.735C554.91 514.017 553.335 513.677 550.501 513.667C548.452 513.659 546.412 513.667 544.367 513.667C542.321 513.667 540.276 513.662 538.236 513.667C535.302 513.677 534.097 514.011 534.402 514.774C534.828 515.839 535.32 516.915 535.864 518.001C536.24 518.756 537.786 519.129 540.647 519.14C544.922 519.156 549.191 519.158 553.448 519.14L553.445 519.143Z" fill="#202020"/>
<path d="M403.555 513.664C402.461 513.664 401.365 513.656 400.271 513.667C397.821 513.696 396.351 514.025 396.188 514.651C395.891 515.789 395.686 516.944 395.549 518.106C395.473 518.753 396.832 519.127 399.327 519.137C403.815 519.158 408.308 519.156 412.799 519.135C415.288 519.122 416.682 518.745 416.771 518.085C416.929 516.941 417.034 515.808 417.074 514.685C417.097 514.027 415.743 513.683 413.19 513.664C411.077 513.648 408.957 513.662 406.841 513.662C405.747 513.662 404.651 513.662 403.557 513.662L403.555 513.664Z" fill="#202020"/>
<path d="M414.775 525.505C415.929 525.505 417.086 525.513 418.24 525.505C421.048 525.484 422.586 525.1 422.668 524.355C422.797 523.164 422.868 521.986 422.883 520.821C422.891 520.118 421.532 519.729 418.95 519.716C414.525 519.695 410.095 519.698 405.665 519.716C403.02 519.727 401.519 520.095 401.361 520.786C401.091 521.973 400.907 523.172 400.796 524.382C400.73 525.102 402.158 525.484 404.84 525.505C407.069 525.52 409.307 525.507 411.541 525.507C412.619 525.507 413.697 525.507 414.775 525.507V525.505Z" fill="#202020"/>
<path d="M351.81 520.805C352.008 520.1 350.811 519.726 348.177 519.716C343.757 519.698 339.327 519.698 334.892 519.716C332.279 519.726 330.672 520.097 330.288 520.797C329.642 521.983 329.074 523.182 328.577 524.395C328.296 525.084 329.594 525.489 332.095 525.499C336.706 525.52 341.331 525.52 345.958 525.499C348.519 525.489 350.099 525.089 350.438 524.403C350.735 523.806 350.903 523.211 351.129 522.619C351.361 522.012 351.64 521.407 351.808 520.805H351.81Z" fill="#202020"/>
<path d="M483.109 519.137C485.764 519.127 487.097 518.759 486.979 518.083C486.776 516.939 486.514 515.802 486.193 514.682C486.006 514.03 484.513 513.683 481.96 513.667C479.841 513.654 477.724 513.664 475.608 513.664C473.492 513.664 471.372 513.656 469.256 513.664C466.651 513.677 465.239 513.998 465.265 514.651C465.31 515.789 465.47 516.944 465.725 518.109C465.87 518.761 467.381 519.127 469.858 519.137C474.278 519.156 478.697 519.156 483.109 519.137V519.137Z" fill="#202020"/>
<path d="M311.879 519.145C314.051 519.145 316.217 519.156 318.394 519.143C321.199 519.124 322.803 518.777 323.218 518.064C323.873 516.939 324.446 515.824 324.935 514.722C325.245 514.022 324.044 513.675 321.389 513.667C317.161 513.654 312.928 513.654 308.685 513.667C306.108 513.675 304.47 514.022 304.034 514.672C303.279 515.792 302.59 516.926 301.954 518.072C301.576 518.753 302.777 519.119 305.369 519.14C307.528 519.158 309.707 519.143 311.879 519.143V519.145Z" fill="#202020"/>
<path d="M341.957 519.143C344.783 519.132 346.292 518.748 346.647 517.993C346.902 517.449 347.097 516.907 347.315 516.368C347.523 515.85 347.733 515.337 347.943 514.824C347.951 514.806 347.959 514.787 347.967 514.766C348.188 514.032 347.036 513.677 344.271 513.67C340.043 513.659 335.807 513.656 331.569 513.67C329.022 513.677 327.444 514.025 327.06 514.687C326.411 515.808 325.84 516.941 325.349 518.088C325.054 518.769 326.311 519.132 328.937 519.143C333.27 519.161 337.614 519.158 341.962 519.143H341.957Z" fill="#202020"/>
<path d="M376.064 519.143C380.4 519.158 384.743 519.158 389.089 519.143C391.7 519.132 393.212 518.769 393.398 518.083C393.709 516.939 393.935 515.805 394.058 514.682C394.132 514.022 392.775 513.685 390.233 513.67C388.119 513.656 386 513.667 383.883 513.667H377.971C377.897 513.667 377.823 513.667 377.752 513.667C374.771 513.685 373.357 514.011 373.109 514.774C372.762 515.839 372.452 516.915 372.171 518.001C371.974 518.761 373.201 519.132 376.07 519.143H376.064Z" fill="#202020"/>
<path d="M380.512 525.499C382.739 525.518 384.977 525.505 387.209 525.505C389.596 525.505 391.981 525.523 394.371 525.499C396.797 525.478 398.393 525.1 398.554 524.453C398.866 523.201 399.077 521.959 399.177 520.736C399.229 520.097 397.862 519.729 395.501 519.719C390.929 519.698 386.352 519.695 381.772 519.719C379.408 519.732 377.907 520.118 377.702 520.747C377.313 521.951 376.995 523.172 376.742 524.403C376.6 525.086 377.989 525.478 380.512 525.499V525.499Z" fill="#202020"/>
<path d="M603.817 517.864C603.062 516.802 602.255 515.752 601.385 514.711C600.799 514.011 599.179 513.677 596.471 513.67C592.301 513.659 588.142 513.659 583.988 513.67C581.17 513.677 580.047 514.022 580.502 514.745C581.122 515.734 581.793 516.733 582.497 517.741C582.91 518.393 583.344 519.048 583.793 519.708C579.526 519.708 575.257 519.703 570.998 519.711C567.935 519.716 566.796 520.066 567.235 520.873C567.837 521.978 568.505 523.093 569.202 524.221C569.772 525.142 571.316 525.502 574.718 525.505C584.798 525.51 594.873 525.51 604.945 525.505C608.213 525.505 609.325 525.136 608.696 524.263C607.9 523.156 607.059 522.059 606.194 520.976C606.17 520.947 606.144 520.918 606.117 520.889C606.117 520.889 606.117 520.884 606.112 520.881C605.397 519.866 604.632 518.861 603.814 517.864H603.817Z" fill="#202020"/>
<path d="M523.45 519.143C525.622 519.145 527.796 519.156 529.96 519.143C532.831 519.124 534.043 518.769 533.741 518.012C533.302 516.907 532.815 515.81 532.274 514.727C531.924 514.025 530.423 513.675 527.76 513.667C523.521 513.654 519.286 513.654 515.058 513.667C512.392 513.675 511.151 514.027 511.362 514.722C511.693 515.824 512.079 516.939 512.526 518.064C512.8 518.751 514.304 519.114 516.935 519.137C519.11 519.158 521.279 519.143 523.448 519.143H523.45Z" fill="#202020"/>
<path d="M446.359 519.14C450.773 519.161 455.19 519.158 459.602 519.14C462.268 519.129 463.595 518.774 463.556 518.085C463.493 516.941 463.359 515.808 463.14 514.687C463.012 514.025 461.589 513.691 459.018 513.672C456.902 513.656 454.785 513.67 452.671 513.67C450.555 513.67 448.438 513.659 446.325 513.67C443.643 513.683 442.27 514.03 442.26 514.716C442.242 515.818 442.273 516.933 442.355 518.056C442.405 518.748 443.769 519.129 446.361 519.143L446.359 519.14Z" fill="#202020"/>
<path d="M466.684 525.502C469.371 525.494 470.849 525.107 470.794 524.397C470.696 523.187 470.52 521.986 470.247 520.802C470.078 520.074 468.598 519.732 465.785 519.713C463.684 519.7 461.584 519.711 459.48 519.713C457.23 519.713 454.974 519.697 452.729 519.719C450.089 519.742 448.741 520.105 448.751 520.807C448.764 521.972 448.84 523.151 448.948 524.342C449.017 525.099 450.481 525.499 453.284 525.507C457.751 525.523 462.217 525.52 466.682 525.507L466.684 525.502Z" fill="#202020"/>
<path d="M308.267 525.502C310.418 525.512 312.579 525.502 314.735 525.502C317.046 525.502 319.349 525.515 321.668 525.499C324.247 525.481 325.966 525.105 326.348 524.426C327.042 523.195 327.631 521.975 328.133 520.768C328.411 520.097 327.199 519.726 324.702 519.713C320.211 519.69 315.707 519.692 311.193 519.713C308.685 519.724 307.068 520.1 306.637 520.768C305.872 521.954 305.178 523.153 304.536 524.363C304.142 525.107 305.43 525.486 308.267 525.499V525.502Z" fill="#202020"/>
<path d="M441.29 532.227C443.667 532.245 446.046 532.232 448.425 532.232C450.805 532.232 453.184 532.245 455.561 532.229C458.185 532.211 459.686 531.809 459.662 531.08C459.617 529.776 459.483 528.484 459.27 527.206C459.157 526.53 457.704 526.133 455.256 526.12C450.547 526.094 445.836 526.096 441.127 526.12C438.669 526.13 437.191 526.52 437.144 527.185C437.052 528.482 437.054 529.797 437.165 531.122C437.223 531.814 438.787 532.208 441.287 532.229L441.29 532.227Z" fill="#202020"/>
<path d="M523.114 532.232C525.414 532.232 527.717 532.243 530.01 532.232C532.936 532.216 534.285 531.819 533.988 531.022C533.517 529.76 532.989 528.513 532.413 527.277C532.063 526.528 530.517 526.128 527.812 526.115C523.171 526.091 518.542 526.094 513.917 526.115C511.461 526.125 510.094 526.512 510.257 527.177C510.575 528.474 511.007 529.789 511.527 531.114C511.801 531.806 513.467 532.206 515.978 532.229C518.36 532.25 520.734 532.235 523.114 532.235V532.232Z" fill="#202020"/>
<path d="M278.734 534.089C279.263 533.224 278.124 532.813 275.056 532.803C270.539 532.787 266.007 532.787 261.466 532.803C258.485 532.813 256.705 533.21 256.029 534.031C254.954 535.341 253.947 536.664 252.99 538.002C252.369 538.87 253.545 539.299 256.531 539.309C261.256 539.325 265.993 539.325 270.744 539.309C273.718 539.299 275.492 538.852 276.123 537.992C276.599 537.345 276.996 536.701 277.425 536.059C277.867 535.399 278.337 534.741 278.734 534.089Z" fill="#202020"/>
<path d="M358.26 526.117C353.483 526.094 348.695 526.094 343.903 526.123C341.589 526.136 340.001 526.538 339.691 527.177C339.06 528.474 338.502 529.789 338.032 531.114C337.787 531.803 339.168 532.206 341.649 532.227C344.018 532.245 346.403 532.232 348.782 532.232C351.001 532.232 353.22 532.232 355.442 532.232C355.6 532.232 355.76 532.232 355.918 532.232C358.502 532.198 360.193 531.84 360.477 531.151C361.034 529.802 361.46 528.469 361.781 527.148C361.936 526.512 360.597 526.128 358.263 526.117H358.26Z" fill="#202020"/>
<path d="M493.207 519.137C497.776 519.161 502.346 519.161 506.902 519.137C509.355 519.124 510.509 518.735 510.344 518.07C510.207 517.525 509.986 516.983 509.802 516.444C509.6 515.85 509.444 515.258 509.189 514.672C508.916 514.043 507.465 513.68 505.051 513.67C500.668 513.651 496.288 513.654 491.916 513.67C489.505 513.68 488.233 514.032 488.346 514.666C488.548 515.805 488.824 516.96 489.182 518.122C489.374 518.745 490.841 519.122 493.21 519.135L493.207 519.137Z" fill="#202020"/>
<path d="M578.317 514.695C577.822 514.038 576.245 513.68 573.705 513.672C569.391 513.656 565.084 513.656 560.788 513.672C558.33 513.68 557.136 514.022 557.447 514.648C558.012 515.787 558.664 516.939 559.384 518.104C559.792 518.764 561.364 519.132 563.878 519.143C568.379 519.164 572.869 519.164 577.344 519.143C579.834 519.129 580.909 518.756 580.544 518.096C580.231 517.533 579.815 516.97 579.452 516.413C579.076 515.837 578.743 515.266 578.317 514.698V514.695Z" fill="#202020"/>
<path d="M458.352 507.955C455.855 507.962 454.559 508.289 454.582 508.92C454.619 509.982 454.711 511.055 454.869 512.139C454.958 512.754 456.365 513.099 458.771 513.117C460.955 513.133 463.137 513.12 465.322 513.12C467.286 513.12 469.253 513.12 471.217 513.12C471.361 513.12 471.509 513.12 471.653 513.12C474.345 513.096 475.623 512.775 475.536 512.089C475.4 511.024 475.208 509.969 474.95 508.925C474.795 508.294 473.402 507.962 470.928 507.955C466.734 507.941 462.543 507.941 458.355 507.955H458.352Z" fill="#202020"/>
<path d="M525.845 525.499C530.318 525.515 534.782 525.515 539.241 525.499C542.072 525.489 543.282 525.11 542.953 524.337C542.448 523.145 541.899 521.967 541.289 520.802C540.921 520.097 539.38 519.737 536.74 519.713C534.558 519.695 532.387 519.711 530.212 519.711C529.087 519.711 527.962 519.708 526.837 519.711C525.711 519.711 524.581 519.7 523.463 519.713C520.821 519.747 519.596 520.097 519.83 520.799C520.219 521.965 520.669 523.143 521.155 524.334C521.465 525.094 523.045 525.494 525.851 525.502L525.845 525.499Z" fill="#202020"/>
<path d="M403.946 507.955C399.757 507.941 395.567 507.941 391.373 507.955C388.978 507.962 387.511 508.283 387.33 508.872C386.998 509.951 386.749 511.042 386.567 512.144C386.465 512.765 387.774 513.101 390.185 513.117C392.364 513.13 394.552 513.12 396.734 513.12C398.771 513.12 400.809 513.128 402.849 513.12C405.72 513.109 407.127 512.794 407.271 512.084C407.487 511.019 407.629 509.964 407.695 508.92C407.734 508.291 406.427 507.962 403.948 507.955H403.946Z" fill="#202020"/>
<path d="M416.616 532.23C418.914 532.243 421.214 532.232 423.512 532.232C425.81 532.232 428.11 532.243 430.408 532.232C433.269 532.216 434.801 531.851 434.87 531.08C434.98 529.776 434.983 528.484 434.883 527.206C434.828 526.491 433.408 526.125 430.771 526.115C426.217 526.094 421.661 526.094 417.107 526.112C414.357 526.123 412.89 526.509 412.78 527.246C412.591 528.5 412.459 529.77 412.393 531.054C412.354 531.814 413.821 532.211 416.621 532.23H416.616Z" fill="#202020"/>
<path d="M320.053 508.899C319.388 509.961 318.799 511.034 318.271 512.118C317.953 512.77 319.128 513.109 321.681 513.12C325.969 513.133 330.265 513.133 334.566 513.12C337.129 513.112 338.631 512.773 338.97 512.115C339.522 511.05 339.995 509.995 340.413 508.951C340.676 508.294 339.482 507.97 336.89 507.957C334.834 507.947 332.77 507.957 330.709 507.957C328.648 507.957 326.592 507.949 324.528 507.957C322.03 507.968 320.434 508.289 320.053 508.901V508.899Z" fill="#202020"/>
<path d="M300.374 532.808C295.624 532.784 290.852 532.784 286.069 532.808C283.406 532.824 281.673 533.247 281.14 533.997C280.196 535.328 279.315 536.674 278.479 538.036C277.98 538.849 279.239 539.286 282.057 539.307C284.413 539.325 286.792 539.309 289.161 539.309C291.612 539.309 294.054 539.325 296.515 539.304C299.294 539.28 301.079 538.87 301.563 538.094C302.43 536.708 303.195 535.338 303.874 533.986C304.25 533.237 303.019 532.816 300.372 532.803L300.374 532.808Z" fill="#202020"/>
<path d="M523.116 512.084C523.429 512.77 524.914 513.104 527.593 513.12C529.71 513.13 531.816 513.12 533.927 513.12C536.112 513.12 538.302 513.13 540.476 513.117C542.892 513.102 544.109 512.765 543.839 512.147C543.365 511.063 542.824 509.99 542.222 508.928C541.861 508.294 540.358 507.965 537.889 507.957C533.693 507.944 529.499 507.944 525.314 507.957C522.837 507.965 521.617 508.296 521.835 508.922C522.196 509.967 522.632 511.021 523.118 512.086L523.116 512.084Z" fill="#202020"/>
<path d="M366.812 532.23C369.107 532.243 371.408 532.232 373.708 532.232C376.087 532.232 378.461 532.245 380.843 532.23C383.473 532.211 385.111 531.803 385.31 531.08C385.673 529.776 385.954 528.484 386.157 527.206C386.265 526.533 384.937 526.131 382.5 526.117C377.799 526.091 373.088 526.094 368.374 526.117C365.913 526.128 364.306 526.515 364.041 527.183C363.525 528.479 363.105 529.794 362.805 531.12C362.642 531.838 364.13 532.216 366.812 532.23Z" fill="#202020"/>
<path d="M536.348 532.892C533.958 532.874 531.577 532.887 529.192 532.887C526.807 532.887 524.415 532.874 522.041 532.895C519.506 532.919 518.108 533.31 518.302 534.015C518.678 535.391 519.17 536.785 519.756 538.194C520.066 538.941 521.73 539.37 524.354 539.383C529.347 539.409 534.332 539.409 539.303 539.383C541.875 539.37 543.184 538.923 542.892 538.181C542.348 536.795 541.735 535.425 541.065 534.07C540.7 533.331 538.988 532.916 536.348 532.892V532.892Z" fill="#202020"/>
<path d="M442.673 525.499C445.234 525.489 446.64 525.099 446.69 524.413C446.735 523.816 446.651 523.222 446.622 522.63H446.638C446.611 522.062 446.585 521.496 446.559 520.936C446.559 520.897 446.559 520.857 446.548 520.815C446.401 520.105 445.102 519.724 442.497 519.713C437.996 519.692 433.492 519.695 428.994 519.716C426.593 519.729 425.171 520.1 425.102 520.728C424.968 521.954 424.911 523.193 424.924 524.445C424.932 525.097 426.37 525.486 428.815 525.497C433.432 525.515 438.054 525.515 442.673 525.497V525.499Z" fill="#202020"/>
<path d="M501.636 525.502C506.182 525.515 510.725 525.518 515.26 525.502C517.782 525.491 519.083 525.086 518.899 524.408C518.731 523.79 518.46 523.177 518.239 522.564C518.026 521.978 517.845 521.391 517.59 520.813C517.282 520.11 515.813 519.729 513.194 519.719C508.764 519.7 504.336 519.698 499.917 519.719C497.246 519.729 496.005 520.092 496.165 520.797C496.431 521.983 496.754 523.18 497.138 524.392C497.367 525.113 498.92 525.497 501.639 525.505L501.636 525.502Z" fill="#202020"/>
<path d="M365.839 519.137C368.208 519.124 369.672 518.745 369.941 518.127C370.196 517.543 370.309 516.962 370.482 516.386H370.474C370.653 515.792 370.898 515.203 370.99 514.616C371.076 514.053 369.856 513.688 367.693 513.677C363.178 513.654 358.654 513.654 354.124 513.677C351.944 513.688 350.44 514.053 350.18 514.616C349.646 515.774 349.176 516.946 348.771 518.13C348.558 518.751 349.78 519.129 352.149 519.14C356.703 519.164 361.27 519.166 365.839 519.14V519.137Z" fill="#202020"/>
<path d="M440.075 514.672C440.009 514.067 438.729 513.688 436.479 513.675C431.957 513.651 427.432 513.651 422.907 513.675C420.725 513.685 419.347 514.048 419.271 514.614C419.111 515.771 419.021 516.944 418.992 518.127C418.977 518.751 420.312 519.127 422.684 519.137C427.245 519.161 431.812 519.158 436.373 519.137C438.745 519.124 440.073 518.748 440.133 518.127C440.188 517.565 440.125 517.002 440.117 516.444C440.107 515.85 440.138 515.258 440.075 514.672V514.672Z" fill="#202020"/>
<path d="M544.257 508.838C544.73 509.953 545.313 511.082 546.01 512.22C546.357 512.786 547.898 513.099 550.13 513.115C552.394 513.133 554.644 513.117 556.9 513.12C559.085 513.12 561.278 513.133 563.449 513.117C565.744 513.099 566.909 512.762 566.588 512.176C565.989 511.074 565.318 509.982 564.598 508.901C564.198 508.302 562.663 507.965 560.313 507.957C556.043 507.941 551.781 507.944 547.527 507.957C545.25 507.965 544.015 508.275 544.254 508.841L544.257 508.838Z" fill="#202020"/>
<path d="M494.853 513.112C497.172 513.104 498.413 512.76 498.276 512.168C498.024 511.066 497.703 509.974 497.332 508.893C497.119 508.275 495.665 507.962 493.134 507.949C491.072 507.939 489.014 507.949 486.953 507.949C484.962 507.949 482.975 507.949 480.987 507.949C480.845 507.949 480.703 507.949 480.561 507.949C478.298 507.978 476.957 508.273 477.014 508.838C477.128 509.953 477.348 511.082 477.688 512.22C477.856 512.783 479.315 513.104 481.537 513.112C485.98 513.128 490.42 513.128 494.856 513.112H494.853Z" fill="#202020"/>
<path d="M374.503 524.332C374.703 523.756 374.826 523.182 374.981 522.612C375.144 522.025 375.331 521.439 375.455 520.857C375.618 520.082 374.406 519.719 371.498 519.711C367.225 519.698 362.95 519.695 358.67 519.711C355.762 519.721 354.309 520.082 353.99 520.863C353.522 522.009 353.099 523.167 352.715 524.337C352.466 525.1 353.738 525.491 356.543 525.502C361.002 525.515 365.469 525.518 369.939 525.502C372.749 525.491 374.235 525.102 374.503 524.334V524.332Z" fill="#202020"/>
<path d="M555.138 532.227C557.907 532.216 559.082 531.806 558.727 531.022C558.441 530.391 558.073 529.76 557.741 529.137C557.389 528.471 557.105 527.811 556.674 527.154C556.274 526.543 554.752 526.144 552.536 526.128C547.661 526.096 542.797 526.094 537.952 526.12C535.607 526.133 534.429 526.528 534.671 527.172C535.16 528.469 535.722 529.781 536.366 531.109C536.706 531.811 538.344 532.216 540.873 532.227C545.634 532.245 550.39 532.245 555.136 532.227H555.138Z" fill="#202020"/>
<path d="M442.318 507.952C440.188 507.952 438.056 507.939 435.927 507.955C433.545 507.973 432.235 508.294 432.193 508.893C432.117 509.972 432.099 511.063 432.135 512.165C432.157 512.754 433.479 513.104 435.787 513.115C440.225 513.133 444.663 513.13 449.101 513.115C451.433 513.107 452.719 512.77 452.708 512.173C452.687 511.071 452.606 509.98 452.464 508.901C452.38 508.275 451.039 507.968 448.494 507.955C446.435 507.944 444.377 507.955 442.315 507.955L442.318 507.952Z" fill="#202020"/>
<path d="M430.082 508.93C430.016 508.302 428.778 507.965 426.307 507.957C422.119 507.944 417.928 507.947 413.737 507.957C411.237 507.965 409.888 508.286 409.777 508.917C409.591 509.98 409.462 511.053 409.383 512.134C409.336 512.762 410.608 513.104 413.024 513.115C417.389 513.13 421.756 513.13 426.123 513.115C428.662 513.107 429.919 512.76 429.988 512.092C430.043 511.558 430.027 511.026 430.043 510.498C430.059 509.99 430.072 509.485 430.087 508.983C430.087 508.965 430.087 508.946 430.087 508.93H430.082Z" fill="#202020"/>
<path d="M380.397 513.117C382.763 513.099 384.217 512.786 384.412 512.197C384.782 511.076 385.053 509.967 385.229 508.87C385.327 508.273 384.036 507.962 381.633 507.955C377.447 507.944 373.256 507.941 369.063 507.955C366.578 507.962 365.159 508.291 364.914 508.922C364.501 509.985 364.136 511.058 363.826 512.142C363.647 512.765 364.875 513.099 367.299 513.117C369.476 513.133 371.663 513.12 373.845 513.12C376.027 513.12 378.21 513.133 380.394 513.117H380.397Z" fill="#202020"/>
<path d="M344.407 513.117C346.582 513.133 348.772 513.12 350.954 513.12C353.065 513.12 355.171 513.128 357.285 513.12C360.008 513.107 361.436 512.783 361.71 512.094C362.133 511.029 362.498 509.974 362.811 508.93C363 508.296 361.815 507.962 359.349 507.955C355.166 507.941 350.975 507.941 346.781 507.952C344.36 507.957 342.859 508.268 342.548 508.862C341.975 509.959 341.486 511.068 341.071 512.189C340.853 512.781 342.07 513.099 344.41 513.117H344.407Z" fill="#202020"/>
<path d="M295.526 512.144C295.155 512.768 296.283 513.099 298.71 513.117C300.882 513.133 303.074 513.12 305.257 513.12C307.294 513.12 309.329 513.125 311.369 513.12C314.259 513.109 315.752 512.802 316.196 512.081C316.856 511.016 317.443 509.961 317.96 508.92C318.276 508.286 317.148 507.963 314.661 507.957C310.478 507.944 306.287 507.947 302.091 507.957C299.701 507.963 298.103 508.289 297.679 508.875C296.899 509.953 296.181 511.045 295.526 512.147V512.144Z" fill="#202020"/>
<path d="M295.537 508.928C295.902 508.296 294.851 507.962 292.384 507.955C288.204 507.941 284.013 507.941 279.815 507.955C277.306 507.962 275.763 508.281 275.235 508.917C274.354 509.98 273.534 511.053 272.776 512.136C272.332 512.77 273.379 513.107 275.813 513.117C280.167 513.133 284.536 513.133 288.911 513.117C291.377 513.109 292.892 512.773 293.381 512.147C293.812 511.594 294.13 511.045 294.496 510.498C294.848 509.972 295.237 509.448 295.537 508.928Z" fill="#202020"/>
<path d="M391.552 532.227C393.924 532.245 396.306 532.23 398.683 532.232C400.98 532.232 403.278 532.243 405.579 532.232C408.389 532.216 409.94 531.825 410.064 531.062C410.272 529.778 410.408 528.508 410.493 527.254C410.543 526.512 409.189 526.125 406.441 526.115C401.893 526.096 397.336 526.096 392.78 526.115C390.146 526.125 388.639 526.499 388.447 527.204C388.1 528.479 387.832 529.77 387.632 531.075C387.519 531.814 388.902 532.208 391.55 532.23L391.552 532.227Z" fill="#202020"/>
<path d="M491.491 532.229C496.01 532.243 500.527 532.24 505.041 532.229C508.031 532.222 509.382 531.843 509.169 531.035C508.835 529.752 508.428 528.484 507.965 527.23C507.702 526.514 506.201 526.128 503.603 526.115C498.968 526.094 494.338 526.094 489.713 526.115C487.032 526.128 485.804 526.53 485.912 527.285C485.996 527.879 486.162 528.476 486.29 529.076C486.424 529.702 486.535 530.331 486.706 530.962C486.935 531.811 488.438 532.219 491.488 532.227L491.491 532.229Z" fill="#202020"/>
<path d="M479.549 526.117C474.761 526.091 469.976 526.091 465.196 526.117C462.862 526.131 461.526 526.528 461.56 527.169C461.631 528.466 461.776 529.778 461.999 531.106C462.118 531.806 463.635 532.201 466.159 532.224C468.535 532.245 470.915 532.229 473.291 532.229C475.668 532.229 478.05 532.243 480.424 532.227C483.098 532.208 484.518 531.819 484.41 531.091C484.221 529.786 483.945 528.495 483.611 527.219C483.429 526.533 481.991 526.133 479.549 526.12V526.117Z" fill="#202020"/>
<path d="M311.107 531.03C311.501 530.399 311.796 529.768 312.132 529.144C312.453 528.545 312.776 527.945 313.094 527.351C313.118 527.309 313.142 527.267 313.155 527.225C313.402 526.514 312.301 526.128 309.698 526.115C305.081 526.094 300.448 526.094 295.808 526.115C293.203 526.128 291.58 526.512 291.084 527.23C290.213 528.484 289.409 529.755 288.657 531.038C288.202 531.814 289.414 532.219 292.183 532.229C296.849 532.245 301.524 532.245 306.209 532.229C308.988 532.219 310.621 531.811 311.107 531.033V531.03Z" fill="#202020"/>
<path d="M335.751 530.996C336.34 529.736 336.879 528.487 337.36 527.254C337.652 526.507 336.453 526.125 333.698 526.112C329.155 526.091 324.601 526.091 320.04 526.112C317.313 526.125 315.731 526.509 315.292 527.261C314.571 528.495 313.914 529.744 313.309 531.004C312.907 531.846 314.185 532.222 317.3 532.232C319.514 532.24 321.738 532.232 323.957 532.232C326.176 532.232 328.393 532.24 330.614 532.232C333.756 532.219 335.354 531.843 335.749 530.999L335.751 530.996Z" fill="#202020"/>
<path d="M504.523 513.115C506.708 513.13 508.89 513.117 511.073 513.12C513.184 513.12 515.298 513.13 517.401 513.12C520.014 513.107 521.234 512.789 521.016 512.142C520.65 511.058 520.227 509.985 519.746 508.925C519.457 508.286 518.042 507.965 515.542 507.957C511.349 507.944 507.158 507.944 502.975 507.957C500.501 507.965 499.291 508.294 499.449 508.928C499.717 509.99 500.033 511.061 500.422 512.144C500.645 512.767 502.073 513.099 504.523 513.117V513.115Z" fill="#202020"/>
<path d="M552.662 507.436C555.073 507.447 557.474 507.436 559.877 507.436C562.351 507.436 564.835 507.45 567.299 507.434C569.762 507.418 570.856 507.097 570.564 506.484C570.348 506.032 570.067 505.58 569.691 505.133C569.192 504.538 567.669 504.217 565.227 504.212C560.345 504.199 555.47 504.199 550.606 504.212C548.201 504.22 547.057 504.551 547.275 505.143C547.428 505.556 547.678 505.974 547.938 506.392C548.377 507.097 549.847 507.423 552.662 507.436V507.436Z" fill="#202020"/>
<path d="M404.064 507.434C406.467 507.447 408.873 507.436 411.279 507.434C413.826 507.434 416.371 507.447 418.916 507.429C421.253 507.413 422.618 507.094 422.786 506.513C422.92 506.045 422.947 505.574 422.876 505.109C422.789 504.543 421.464 504.215 419.192 504.207C414.25 504.191 409.304 504.191 404.359 504.207C402.071 504.215 400.678 504.541 400.452 505.106C400.273 505.553 400.205 506.006 400.202 506.458C400.2 507.097 401.48 507.418 404.064 507.431V507.434Z" fill="#202020"/>
<path d="M594.147 505.114C593.618 504.554 592.033 504.22 589.73 504.212C584.776 504.196 579.831 504.196 574.899 504.212C572.604 504.22 571.497 504.541 571.739 505.109C571.928 505.556 572.241 506.008 572.604 506.461C573.114 507.095 574.673 507.423 577.255 507.436C579.665 507.45 582.066 507.439 584.469 507.436C587.014 507.436 589.572 507.45 592.101 507.431C594.441 507.415 595.543 507.092 595.211 506.519C594.941 506.048 594.58 505.58 594.144 505.114H594.147Z" fill="#202020"/>
<path d="M478.323 507.434C480.729 507.447 483.132 507.436 485.535 507.434C488.08 507.434 490.63 507.447 493.17 507.429C495.518 507.413 496.735 507.087 496.659 506.508C496.596 506.037 496.459 505.569 496.249 505.104C496.004 504.564 494.619 504.22 492.463 504.212C487.378 504.191 482.293 504.191 477.219 504.212C475.092 504.22 473.875 504.578 473.904 505.114C473.925 505.545 474.025 505.979 474.133 506.413C474.303 507.089 475.623 507.418 478.323 507.434V507.434Z" fill="#202020"/>
<path d="M378.954 507.429C384.039 507.447 389.131 507.447 394.224 507.429C396.561 507.421 397.918 507.084 398.125 506.5C398.286 506.048 398.37 505.595 398.383 505.148C398.401 504.53 397.134 504.22 394.563 504.207C392.199 504.194 389.831 504.207 387.464 504.207C384.959 504.207 382.453 504.194 379.945 504.212C377.758 504.228 376.285 504.546 376.015 505.072C375.757 505.572 375.607 506.077 375.583 506.582C375.56 507.092 376.851 507.423 378.951 507.431L378.954 507.429Z" fill="#202020"/>
<path d="M329.683 507.431C332.147 507.45 334.632 507.434 337.106 507.434C339.651 507.434 342.19 507.45 344.743 507.429C347.088 507.41 348.529 507.076 348.842 506.5C349.086 506.048 349.268 505.595 349.412 505.146C349.602 504.551 348.455 504.215 346.042 504.207C341.107 504.191 336.164 504.191 331.214 504.207C328.934 504.215 327.449 504.554 327.062 505.119C326.757 505.566 326.529 506.019 326.347 506.471C326.103 507.079 327.231 507.41 329.683 507.426V507.431Z" fill="#202020"/>
<path d="M503.156 507.436C505.562 507.447 507.965 507.436 510.368 507.436C512.913 507.434 515.466 507.45 518 507.429C520.243 507.41 521.418 507.084 521.281 506.537C521.158 506.05 520.958 505.564 520.682 505.08C520.377 504.549 518.923 504.217 516.728 504.209C511.711 504.191 506.698 504.191 501.694 504.209C499.433 504.217 498.261 504.565 498.353 505.135C498.424 505.567 498.568 506.001 498.742 506.434C499.007 507.1 500.411 507.421 503.156 507.431V507.436Z" fill="#202020"/>
<path d="M304.963 507.434C307.426 507.45 309.908 507.436 312.385 507.436C314.859 507.436 317.327 507.447 319.809 507.434C322.373 507.418 323.866 507.084 324.271 506.445C324.557 505.993 324.823 505.54 324.986 505.093C325.17 504.583 324.092 504.225 322.086 504.217C316.949 504.194 311.796 504.196 306.635 504.217C304.576 504.225 303.075 504.57 302.665 505.077C302.286 505.543 301.997 506.011 301.742 506.482C301.413 507.092 302.499 507.418 304.963 507.434V507.434Z" fill="#202020"/>
<path d="M527.711 507.434C530.191 507.45 532.662 507.436 535.136 507.436C537.61 507.436 540.092 507.447 542.558 507.434C544.943 507.418 546.11 507.11 545.921 506.534C545.76 506.048 545.503 505.559 545.142 505.077C544.737 504.538 543.263 504.217 541.062 504.212C536.043 504.196 531.029 504.196 526.026 504.212C523.875 504.22 522.682 504.559 522.792 505.09C522.884 505.538 523.1 505.99 523.339 506.442C523.678 507.079 525.143 507.415 527.706 507.431L527.711 507.434Z" fill="#202020"/>
<path d="M453.528 507.434C455.931 507.447 458.334 507.436 460.74 507.434C463.285 507.434 465.833 507.447 468.375 507.429C470.794 507.413 472.069 507.068 472.032 506.466C472.003 506.032 471.929 505.595 471.809 505.164C471.632 504.538 470.294 504.209 467.733 504.204C462.93 504.191 458.127 504.191 453.326 504.204C450.749 504.209 449.474 504.528 449.432 505.151C449.403 505.582 449.437 506.016 449.514 506.453C449.627 507.095 450.933 507.418 453.531 507.431L453.528 507.434Z" fill="#202020"/>
<path d="M354.671 507.436C357.069 507.447 359.478 507.436 361.881 507.436C364.426 507.436 366.968 507.45 369.515 507.431C371.763 507.413 373.188 507.092 373.454 506.545C373.691 506.058 373.833 505.572 373.893 505.088C373.959 504.554 372.739 504.217 370.572 504.212C365.569 504.194 360.555 504.194 355.539 504.212C353.262 504.22 351.832 504.567 351.524 505.133C351.29 505.564 351.125 505.998 350.983 506.432C350.767 507.095 351.953 507.423 354.669 507.434L354.671 507.436Z" fill="#202020"/>
<path d="M280.598 507.436C282.925 507.444 285.263 507.436 287.597 507.436C290.142 507.436 292.679 507.447 295.235 507.431C297.575 507.415 299.129 507.081 299.594 506.508C299.975 506.037 300.285 505.569 300.514 505.104C300.777 504.564 299.72 504.223 297.554 504.215C292.487 504.194 287.405 504.194 282.31 504.215C280.223 504.223 278.711 504.551 278.198 505.067C277.751 505.514 277.43 505.966 277.131 506.419C276.671 507.116 277.733 507.426 280.598 507.436V507.436Z" fill="#202020"/>
<path d="M428.757 507.434C431.229 507.45 433.705 507.436 436.179 507.436C438.653 507.436 441.13 507.447 443.601 507.434C445.949 507.421 447.327 507.097 447.411 506.532C447.482 506.045 447.466 505.556 447.327 505.075C447.172 504.543 445.784 504.217 443.614 504.212C438.603 504.196 433.59 504.194 428.579 504.212C426.404 504.22 425.095 504.557 424.966 505.093C424.858 505.54 424.853 505.993 424.877 506.445C424.911 507.089 426.183 507.418 428.755 507.434H428.757Z" fill="#202020"/>
<path d="M586.222 532.913C581.522 532.89 576.829 532.89 572.157 532.913C569.075 532.929 568.087 533.379 568.647 534.391C569.246 535.475 570.703 535.927 573.91 535.964C576.337 535.99 578.743 535.969 581.159 535.969C583.493 535.969 585.844 535.99 588.16 535.967C591.334 535.933 592.254 535.478 591.528 534.397C590.844 533.379 589.314 532.932 586.222 532.916V532.913Z" fill="#202020"/>
<path d="M613.703 536.274C611.274 536.253 608.868 536.269 606.449 536.269C603.951 536.269 601.441 536.251 598.961 536.274C596.411 536.298 595.286 536.716 595.651 537.447C595.767 537.679 595.93 537.91 596.111 538.142C596.734 538.933 598.388 539.367 601.149 539.38C606.141 539.404 611.124 539.404 616.082 539.38C618.701 539.367 619.752 538.944 619.34 538.194C619.2 537.939 619.006 537.684 618.753 537.432C618.022 536.7 616.3 536.298 613.703 536.274V536.274Z" fill="#202020"/>
<path d="M588.323 536.272C585.897 536.256 583.488 536.269 581.072 536.269C578.816 536.269 576.555 536.259 574.307 536.269C571.04 536.288 569.969 536.706 570.519 537.726C571.174 538.936 572.517 539.373 575.935 539.386C580.762 539.407 585.579 539.407 590.379 539.386C593.668 539.37 594.523 538.925 593.753 537.779C593.051 536.732 591.499 536.293 588.326 536.272H588.323Z" fill="#202020"/>
<path d="M562.873 536.272C560.534 536.259 558.202 536.272 555.867 536.272C553.372 536.274 550.861 536.253 548.382 536.28C545.971 536.306 544.767 536.724 544.94 537.416C545.009 537.692 545.135 537.971 545.324 538.249C545.81 538.957 547.38 539.378 549.901 539.388C554.97 539.412 560.029 539.412 565.071 539.383C567.601 539.367 568.694 538.949 568.439 538.236C568.358 538.005 568.216 537.773 568.069 537.542C567.522 536.69 565.913 536.293 562.876 536.277L562.873 536.272Z" fill="#202020"/>
<path d="M242.237 539.32H226.735C225.802 539.32 225.237 539.102 225.471 538.833L255.511 504.554C255.685 504.357 256.468 504.199 257.265 504.199H270.505C271.302 504.199 271.822 504.357 271.664 504.554L244.311 538.833C244.098 539.102 243.167 539.32 242.234 539.32H242.237Z" fill="#D8D8D8"/>
<path d="M645.562 539.32H630.061C629.128 539.32 628.197 539.102 627.984 538.833L600.631 504.554C600.473 504.357 600.994 504.199 601.79 504.199H615.03C615.827 504.199 616.613 504.357 616.784 504.554L646.824 538.833C647.058 539.102 646.493 539.32 645.56 539.32H645.562Z" fill="#D8D8D8"/>
<path d="M540.789 570.859H331.505C328.253 570.859 325.966 570.004 326.392 568.955L336.564 543.883C336.911 543.026 339.551 542.337 342.461 542.337H529.83C532.741 542.337 535.381 543.026 535.728 543.883L545.9 568.955C546.326 570.004 544.036 570.859 540.786 570.859H540.789Z" fill="#D8D8D8"/>
<path d="M615.761 276.102H256.537C252.625 276.102 249.454 279.205 249.454 283.034V493.3C249.454 497.13 252.625 500.233 256.537 500.233H615.759C619.671 500.233 622.842 497.13 622.842 493.3V283.034C622.842 279.205 619.671 276.102 615.759 276.102H615.761Z" fill="black"/>
<path d="M261.13 288.626V379.59V395.853V487.711H611.168V395.853V379.59V288.626H261.13Z" fill="#003A64"/>
<path d="M479.969 579.088H392.328C391.628 579.088 391.061 578.533 391.061 577.85V574.725H481.234V577.85C481.234 578.533 480.666 579.088 479.967 579.088H479.969Z" fill="#CCCCCC"/>
<path d="M432.817 479.853C431.584 479.853 430.351 479.674 429.157 479.319C396.903 469.701 368.343 444.664 348.743 408.819C329.085 372.872 319.336 328.841 320.548 281.488C320.65 277.427 322.672 273.658 325.996 271.326C328.178 269.795 330.752 269.001 333.354 269.001C334.714 269.001 336.081 269.216 337.403 269.658C340.595 270.721 344.565 272.046 350.799 272.046C358.044 272.046 366.994 270.266 377.397 266.752C403.515 257.936 417.073 238.146 421.69 230.048C423.97 226.05 428.216 223.581 432.817 223.581C437.418 223.581 441.664 226.05 443.943 230.048C448.56 238.146 462.116 257.936 488.236 266.752C498.642 270.266 507.591 272.046 514.835 272.046C521.071 272.046 525.041 270.723 528.233 269.658C529.555 269.219 530.922 269.001 532.281 269.001C534.882 269.001 537.456 269.792 539.64 271.326C542.964 273.658 544.985 277.427 545.088 281.488C546.3 328.841 536.551 372.872 516.893 408.819C497.291 444.664 468.733 469.701 436.479 479.319C435.285 479.674 434.052 479.853 432.819 479.853H432.817Z" fill="url(#paint54_linear_205_5)"/>
<path d="M532.281 281.817C524.526 284.402 512.014 288.302 484.142 278.895C451.799 267.978 436.466 242.798 432.817 236.396C429.167 242.801 413.834 267.98 381.491 278.895C353.617 288.302 341.105 284.402 333.352 281.817C330.972 374.79 373.585 449.376 432.817 467.04C492.048 449.376 534.661 374.79 532.281 281.817V281.817Z" fill="url(#paint55_linear_205_5)"/>
<path d="M432.816 469.12L432.246 468.949C402.742 460.149 376.453 436.95 358.231 403.625C339.488 369.351 330.197 327.213 331.359 281.764L331.427 279.074L333.98 279.926C341.173 282.324 353.212 286.335 380.852 277.006C410.49 267.002 425.855 244.584 431.084 235.408L432.814 232.37L434.544 235.408C439.773 244.581 455.135 267.002 484.776 277.006C512.416 286.335 524.454 282.322 531.648 279.926L534.201 279.074L534.269 281.764C535.431 327.21 526.14 369.351 507.397 403.625C489.172 436.95 462.886 460.149 433.382 468.949L432.811 469.12H432.816ZM335.287 284.523C334.561 328.255 343.684 368.72 361.728 401.713C379.327 433.896 404.553 456.333 432.816 464.959C461.08 456.333 486.306 433.896 503.905 401.713C521.949 368.72 531.072 328.252 530.346 284.523C520.742 287.397 507.938 289.031 483.506 280.786C455.351 271.283 439.544 251.056 432.816 240.281C426.089 251.056 410.28 271.283 382.127 280.786C357.692 289.033 344.888 287.397 335.287 284.523V284.523Z" fill="white"/>
<path d="M433.313 324.365C432.727 324.365 421.593 324.465 414.57 333.473C413.769 334.503 413.953 335.987 414.981 336.789C416.009 337.591 417.494 337.407 418.296 336.379C420.623 333.391 423.825 331.261 427.813 330.043C430.881 329.107 433.282 329.091 433.298 329.091H433.316C433.408 329.091 442.67 329.149 448.305 336.408C449.104 337.439 450.589 337.625 451.62 336.826C452.219 336.36 452.532 335.663 452.535 334.958C452.535 334.451 452.375 333.941 452.038 333.507C445.034 324.483 433.9 324.362 433.313 324.362V324.365Z" fill="white"/>
<path d="M458.545 321.235C451.073 314.902 442.352 311.549 433.326 311.541C424.301 311.533 415.575 314.868 408.09 321.188C405.203 323.626 402.631 326.398 400.452 329.428C399.689 330.487 399.931 331.965 400.988 332.728C402.048 333.491 403.525 333.249 404.288 332.192C406.241 329.478 408.547 326.99 411.137 324.804C424.619 313.421 442.029 313.44 455.49 324.846C458.077 327.04 460.377 329.53 462.326 332.247C463.085 333.307 464.563 333.551 465.623 332.791C466.267 332.331 466.608 331.605 466.608 330.871C466.608 330.393 466.464 329.911 466.167 329.493C463.992 326.458 461.429 323.681 458.545 321.238V321.235Z" fill="white"/>
<path d="M398.817 310.16C394.857 313.503 391.332 317.306 388.343 321.461C387.58 322.521 387.822 323.999 388.879 324.762C389.938 325.525 391.416 325.283 392.178 324.225C394.942 320.386 398.202 316.869 401.864 313.776C420.991 297.631 445.689 297.655 464.782 313.837C468.439 316.938 471.691 320.459 474.449 324.304C475.209 325.364 476.686 325.609 477.746 324.849C478.39 324.388 478.732 323.663 478.732 322.929C478.732 322.45 478.587 321.969 478.29 321.551C475.309 317.39 471.791 313.582 467.837 310.229C457.604 301.555 445.673 296.965 433.34 296.952C421.004 296.939 409.065 301.507 398.817 310.16V310.16Z" fill="white"/>
<path d="M465.465 372.77H400.165C397.402 372.77 395.162 375.011 395.162 377.775V417.701C395.162 420.465 397.402 422.706 400.165 422.706H465.465C468.228 422.706 470.468 420.465 470.468 417.701V377.775C470.468 375.011 468.228 372.77 465.465 372.77Z" fill="white"/>
<path d="M457.822 375.855H451.811V368.807C451.811 358.329 443.291 349.805 432.816 349.805C422.342 349.805 413.821 358.329 413.821 368.807V375.855H407.811V368.807C407.811 355.015 419.029 343.793 432.816 343.793C446.603 343.793 457.822 355.015 457.822 368.807V375.855Z" fill="white"/>
<path d="M409.98 409.614L402.742 385.862H407.653L410.635 396.658C411.516 399.814 412.338 402.828 412.751 405.069H412.817C413.277 402.957 414.179 399.746 415.041 396.777L418.207 385.862H422.886L415.436 409.614H409.978H409.98Z" fill="url(#paint56_linear_205_5)"/>
<path d="M425.408 385.862H433.679C437.904 385.862 441.606 388.153 441.606 392.963C441.606 397.773 438.17 400.445 433.29 400.445H429.991V409.611H425.408V385.859V385.862ZM429.991 396.629H433.001C435.441 396.629 436.958 395.669 436.958 393.06C436.958 390.688 435.388 389.707 433.14 389.707H429.988V396.629H429.991Z" fill="url(#paint57_linear_205_5)"/>
<path d="M444.974 409.614V385.862H450.818C457.486 400.332 458.566 402.678 458.908 403.807H458.968C458.742 400.985 458.711 397.108 458.711 393.226V385.865H462.888V409.616H457.283C450.127 393.697 449.325 391.809 448.996 390.917H448.965C449.128 393.918 449.149 398.023 449.149 402.263V409.616H444.974V409.614Z" fill="url(#paint58_linear_205_5)"/>
<defs>
<filter id="filter0_f_205_5" x="110" y="127" width="619" height="600" filterUnits="userSpaceOnUse" color-interpolation-filters="sRGB">
<feFlood flood-opacity="0" result="BackgroundImageFix"/>
<feBlend mode="normal" in="SourceGraphic" in2="BackgroundImageFix" result="shape"/>
<feGaussianBlur stdDeviation="50" result="effect1_foregroundBlur_205_5"/>
</filter>
<filter id="filter1_f_205_5" x="0" y="0" width="858" height="803" filterUnits="userSpaceOnUse" color-interpolation-filters="sRGB">
<feFlood flood-opacity="0" result="BackgroundImageFix"/>
<feBlend mode="normal" in="SourceGraphic" in2="BackgroundImageFix" result="shape"/>
<feGaussianBlur stdDeviation="50" result="effect1_foregroundBlur_205_5"/>
</filter>
<linearGradient id="paint0_linear_205_5" x1="374.745" y1="198.844" x2="374.745" y2="497.075" gradientUnits="userSpaceOnUse">
<stop stop-color="#00C8FF"/>
<stop offset="1" stop-color="#0683FF"/>
</linearGradient>
<linearGradient id="paint1_linear_205_5" x1="350.61" y1="198.844" x2="350.61" y2="497.114" gradientUnits="userSpaceOnUse">
<stop stop-color="#00C8FF"/>
<stop offset="1" stop-color="#0683FF"/>
</linearGradient>
<linearGradient id="paint2_linear_205_5" x1="304.308" y1="190.336" x2="304.308" y2="537.284" gradientUnits="userSpaceOnUse">
<stop stop-color="#00C8FF"/>
<stop offset="1" stop-color="#0683FF"/>
</linearGradient>
<linearGradient id="paint3_linear_205_5" x1="215.92" y1="272.567" x2="215.92" y2="570.798" gradientUnits="userSpaceOnUse">
<stop stop-color="#00C8FF"/>
<stop offset="1" stop-color="#0683FF"/>
</linearGradient>
<linearGradient id="paint4_linear_205_5" x1="409.578" y1="198.844" x2="409.578" y2="497.078" gradientUnits="userSpaceOnUse">
<stop stop-color="#00C8FF"/>
<stop offset="1" stop-color="#0683FF"/>
</linearGradient>
<linearGradient id="paint5_linear_205_5" x1="364.733" y1="198.844" x2="364.733" y2="497.075" gradientUnits="userSpaceOnUse">
<stop stop-color="#00C8FF"/>
<stop offset="1" stop-color="#0683FF"/>
</linearGradient>
<linearGradient id="paint6_linear_205_5" x1="386.775" y1="198.844" x2="386.775" y2="497.078" gradientUnits="userSpaceOnUse">
<stop stop-color="#00C8FF"/>
<stop offset="1" stop-color="#0683FF"/>
</linearGradient>
<linearGradient id="paint7_linear_205_5" x1="340.311" y1="198.844" x2="340.311" y2="497.075" gradientUnits="userSpaceOnUse">
<stop stop-color="#00C8FF"/>
<stop offset="1" stop-color="#0683FF"/>
</linearGradient>
<linearGradient id="paint8_linear_205_5" x1="316.87" y1="198.844" x2="316.87" y2="497.075" gradientUnits="userSpaceOnUse">
<stop stop-color="#00C8FF"/>
<stop offset="1" stop-color="#0683FF"/>
</linearGradient>
<linearGradient id="paint9_linear_205_5" x1="439.897" y1="198.844" x2="439.897" y2="497.075" gradientUnits="userSpaceOnUse">
<stop stop-color="#00C8FF"/>
<stop offset="1" stop-color="#0683FF"/>
</linearGradient>
<linearGradient id="paint10_linear_205_5" x1="270.558" y1="272.566" x2="270.558" y2="570.801" gradientUnits="userSpaceOnUse">
<stop stop-color="#00C8FF"/>
<stop offset="1" stop-color="#0683FF"/>
</linearGradient>
<linearGradient id="paint11_linear_205_5" x1="269.948" y1="272.597" x2="269.948" y2="570.828" gradientUnits="userSpaceOnUse">
<stop stop-color="#00C8FF"/>
<stop offset="1" stop-color="#0683FF"/>
</linearGradient>
<linearGradient id="paint12_linear_205_5" x1="276.24" y1="272.566" x2="276.24" y2="570.801" gradientUnits="userSpaceOnUse">
<stop stop-color="#00C8FF"/>
<stop offset="1" stop-color="#0683FF"/>
</linearGradient>
<linearGradient id="paint13_linear_205_5" x1="279.776" y1="272.566" x2="279.776" y2="570.801" gradientUnits="userSpaceOnUse">
<stop stop-color="#00C8FF"/>
<stop offset="1" stop-color="#0683FF"/>
</linearGradient>
<linearGradient id="paint14_linear_205_5" x1="249.341" y1="272.566" x2="249.341" y2="570.801" gradientUnits="userSpaceOnUse">
<stop stop-color="#00C8FF"/>
<stop offset="1" stop-color="#0683FF"/>
</linearGradient>
<linearGradient id="paint15_linear_205_5" x1="240.894" y1="272.566" x2="240.894" y2="570.801" gradientUnits="userSpaceOnUse">
<stop stop-color="#00C8FF"/>
<stop offset="1" stop-color="#0683FF"/>
</linearGradient>
<linearGradient id="paint16_linear_205_5" x1="249.804" y1="272.566" x2="249.804" y2="570.801" gradientUnits="userSpaceOnUse">
<stop stop-color="#00C8FF"/>
<stop offset="1" stop-color="#0683FF"/>
</linearGradient>
<linearGradient id="paint17_linear_205_5" x1="241.968" y1="272.567" x2="241.968" y2="570.801" gradientUnits="userSpaceOnUse">
<stop stop-color="#00C8FF"/>
<stop offset="1" stop-color="#0683FF"/>
</linearGradient>
<linearGradient id="paint18_linear_205_5" x1="203.082" y1="272.567" x2="203.082" y2="570.801" gradientUnits="userSpaceOnUse">
<stop stop-color="#00C8FF"/>
<stop offset="1" stop-color="#0683FF"/>
</linearGradient>
<linearGradient id="paint19_linear_205_5" x1="179.722" y1="272.566" x2="179.722" y2="570.801" gradientUnits="userSpaceOnUse">
<stop stop-color="#00C8FF"/>
<stop offset="1" stop-color="#0683FF"/>
</linearGradient>
<linearGradient id="paint20_linear_205_5" x1="153.886" y1="272.567" x2="153.886" y2="570.801" gradientUnits="userSpaceOnUse">
<stop stop-color="#00C8FF"/>
<stop offset="1" stop-color="#0683FF"/>
</linearGradient>
<linearGradient id="paint21_linear_205_5" x1="93.0192" y1="272.566" x2="93.0192" y2="570.801" gradientUnits="userSpaceOnUse">
<stop stop-color="#00C8FF"/>
<stop offset="1" stop-color="#0683FF"/>
</linearGradient>
<linearGradient id="paint22_linear_205_5" x1="133.126" y1="272.566" x2="133.126" y2="570.801" gradientUnits="userSpaceOnUse">
<stop stop-color="#00C8FF"/>
<stop offset="1" stop-color="#0683FF"/>
</linearGradient>
<linearGradient id="paint23_linear_205_5" x1="170.362" y1="272.566" x2="170.362" y2="570.801" gradientUnits="userSpaceOnUse">
<stop stop-color="#00C8FF"/>
<stop offset="1" stop-color="#0683FF"/>
</linearGradient>
<linearGradient id="paint24_linear_205_5" x1="146.059" y1="272.567" x2="146.059" y2="570.801" gradientUnits="userSpaceOnUse">
<stop stop-color="#00C8FF"/>
<stop offset="1" stop-color="#0683FF"/>
</linearGradient>
<linearGradient id="paint25_linear_205_5" x1="110.321" y1="272.567" x2="110.321" y2="570.798" gradientUnits="userSpaceOnUse">
<stop stop-color="#00C8FF"/>
<stop offset="1" stop-color="#0683FF"/>
</linearGradient>
<linearGradient id="paint26_linear_205_5" x1="82.7206" y1="272.566" x2="82.7206" y2="570.801" gradientUnits="userSpaceOnUse">
<stop stop-color="#00C8FF"/>
<stop offset="1" stop-color="#0683FF"/>
</linearGradient>
<linearGradient id="paint27_linear_205_5" x1="723.351" y1="272.566" x2="723.351" y2="570.798" gradientUnits="userSpaceOnUse">
<stop stop-color="#00C8FF"/>
<stop offset="1" stop-color="#0683FF"/>
</linearGradient>
<linearGradient id="paint28_linear_205_5" x1="699.217" y1="272.567" x2="699.217" y2="570.837" gradientUnits="userSpaceOnUse">
<stop stop-color="#00C8FF"/>
<stop offset="1" stop-color="#0683FF"/>
</linearGradient>
<linearGradient id="paint29_linear_205_5" x1="652.913" y1="272.567" x2="652.913" y2="570.801" gradientUnits="userSpaceOnUse">
<stop stop-color="#00C8FF"/>
<stop offset="1" stop-color="#0683FF"/>
</linearGradient>
<linearGradient id="paint30_linear_205_5" x1="564.528" y1="198.844" x2="564.528" y2="497.075" gradientUnits="userSpaceOnUse">
<stop stop-color="#00C8FF"/>
<stop offset="1" stop-color="#0683FF"/>
</linearGradient>
<linearGradient id="paint31_linear_205_5" x1="758.187" y1="272.566" x2="758.187" y2="570.801" gradientUnits="userSpaceOnUse">
<stop stop-color="#00C8FF"/>
<stop offset="1" stop-color="#0683FF"/>
</linearGradient>
<linearGradient id="paint32_linear_205_5" x1="713.342" y1="272.567" x2="713.342" y2="570.801" gradientUnits="userSpaceOnUse">
<stop stop-color="#00C8FF"/>
<stop offset="1" stop-color="#0683FF"/>
</linearGradient>
<linearGradient id="paint33_linear_205_5" x1="735.381" y1="272.566" x2="735.381" y2="570.801" gradientUnits="userSpaceOnUse">
<stop stop-color="#00C8FF"/>
<stop offset="1" stop-color="#0683FF"/>
</linearGradient>
<linearGradient id="paint34_linear_205_5" x1="688.919" y1="272.567" x2="688.919" y2="570.801" gradientUnits="userSpaceOnUse">
<stop stop-color="#00C8FF"/>
<stop offset="1" stop-color="#0683FF"/>
</linearGradient>
<linearGradient id="paint35_linear_205_5" x1="665.475" y1="272.566" x2="665.475" y2="570.801" gradientUnits="userSpaceOnUse">
<stop stop-color="#00C8FF"/>
<stop offset="1" stop-color="#0683FF"/>
</linearGradient>
<linearGradient id="paint36_linear_205_5" x1="788.506" y1="272.567" x2="788.506" y2="570.801" gradientUnits="userSpaceOnUse">
<stop stop-color="#00C8FF"/>
<stop offset="1" stop-color="#0683FF"/>
</linearGradient>
<linearGradient id="paint37_linear_205_5" x1="619.166" y1="272.566" x2="619.166" y2="570.801" gradientUnits="userSpaceOnUse">
<stop stop-color="#00C8FF"/>
<stop offset="1" stop-color="#0683FF"/>
</linearGradient>
<linearGradient id="paint38_linear_205_5" x1="618.556" y1="272.597" x2="618.556" y2="570.828" gradientUnits="userSpaceOnUse">
<stop stop-color="#00C8FF"/>
<stop offset="1" stop-color="#0683FF"/>
</linearGradient>
<linearGradient id="paint39_linear_205_5" x1="624.848" y1="272.566" x2="624.848" y2="570.801" gradientUnits="userSpaceOnUse">
<stop stop-color="#00C8FF"/>
<stop offset="1" stop-color="#0683FF"/>
</linearGradient>
<linearGradient id="paint40_linear_205_5" x1="628.382" y1="272.566" x2="628.382" y2="570.801" gradientUnits="userSpaceOnUse">
<stop stop-color="#00C8FF"/>
<stop offset="1" stop-color="#0683FF"/>
</linearGradient>
<linearGradient id="paint41_linear_205_5" x1="597.949" y1="198.844" x2="597.949" y2="497.078" gradientUnits="userSpaceOnUse">
<stop stop-color="#00C8FF"/>
<stop offset="1" stop-color="#0683FF"/>
</linearGradient>
<linearGradient id="paint42_linear_205_5" x1="589.499" y1="198.844" x2="589.499" y2="497.078" gradientUnits="userSpaceOnUse">
<stop stop-color="#00C8FF"/>
<stop offset="1" stop-color="#0683FF"/>
</linearGradient>
<linearGradient id="paint43_linear_205_5" x1="598.411" y1="198.844" x2="598.411" y2="497.075" gradientUnits="userSpaceOnUse">
<stop stop-color="#00C8FF"/>
<stop offset="1" stop-color="#0683FF"/>
</linearGradient>
<linearGradient id="paint44_linear_205_5" x1="590.575" y1="198.844" x2="590.575" y2="497.075" gradientUnits="userSpaceOnUse">
<stop stop-color="#00C8FF"/>
<stop offset="1" stop-color="#0683FF"/>
</linearGradient>
<linearGradient id="paint45_linear_205_5" x1="551.69" y1="198.844" x2="551.69" y2="497.078" gradientUnits="userSpaceOnUse">
<stop stop-color="#00C8FF"/>
<stop offset="1" stop-color="#0683FF"/>
</linearGradient>
<linearGradient id="paint46_linear_205_5" x1="528.331" y1="198.844" x2="528.331" y2="497.078" gradientUnits="userSpaceOnUse">
<stop stop-color="#00C8FF"/>
<stop offset="1" stop-color="#0683FF"/>
</linearGradient>
<linearGradient id="paint47_linear_205_5" x1="502.494" y1="198.844" x2="502.494" y2="497.078" gradientUnits="userSpaceOnUse">
<stop stop-color="#00C8FF"/>
<stop offset="1" stop-color="#0683FF"/>
</linearGradient>
<linearGradient id="paint48_linear_205_5" x1="441.627" y1="198.844" x2="441.627" y2="497.078" gradientUnits="userSpaceOnUse">
<stop stop-color="#00C8FF"/>
<stop offset="1" stop-color="#0683FF"/>
</linearGradient>
<linearGradient id="paint49_linear_205_5" x1="481.732" y1="198.844" x2="481.732" y2="497.075" gradientUnits="userSpaceOnUse">
<stop stop-color="#00C8FF"/>
<stop offset="1" stop-color="#0683FF"/>
</linearGradient>
<linearGradient id="paint50_linear_205_5" x1="518.971" y1="248.36" x2="518.971" y2="546.594" gradientUnits="userSpaceOnUse">
<stop stop-color="#00C8FF"/>
<stop offset="1" stop-color="#0683FF"/>
</linearGradient>
<linearGradient id="paint51_linear_205_5" x1="494.667" y1="198.844" x2="494.667" y2="497.078" gradientUnits="userSpaceOnUse">
<stop stop-color="#00C8FF"/>
<stop offset="1" stop-color="#0683FF"/>
</linearGradient>
<linearGradient id="paint52_linear_205_5" x1="458.93" y1="198.844" x2="458.93" y2="497.075" gradientUnits="userSpaceOnUse">
<stop stop-color="#00C8FF"/>
<stop offset="1" stop-color="#0683FF"/>
</linearGradient>
<linearGradient id="paint53_linear_205_5" x1="431.329" y1="198.844" x2="431.329" y2="497.078" gradientUnits="userSpaceOnUse">
<stop stop-color="#00C8FF"/>
<stop offset="1" stop-color="#0683FF"/>
</linearGradient>
<linearGradient id="paint54_linear_205_5" x1="432.817" y1="219.123" x2="432.817" y2="480.934" gradientUnits="userSpaceOnUse">
<stop stop-color="#00C8FF"/>
<stop offset="1" stop-color="#0683FF"/>
</linearGradient>
<linearGradient id="paint55_linear_205_5" x1="432.548" y1="235.647" x2="433.701" y2="466.285" gradientUnits="userSpaceOnUse">
<stop stop-color="#00C8FF"/>
<stop offset="1" stop-color="#0683FF"/>
</linearGradient>
<linearGradient id="paint56_linear_205_5" x1="412.814" y1="364.425" x2="412.814" y2="419.842" gradientUnits="userSpaceOnUse">
<stop stop-color="#00C8FF"/>
<stop offset="1" stop-color="#0683FF"/>
</linearGradient>
<linearGradient id="paint57_linear_205_5" x1="433.506" y1="364.425" x2="433.506" y2="419.842" gradientUnits="userSpaceOnUse">
<stop stop-color="#00C8FF"/>
<stop offset="1" stop-color="#0683FF"/>
</linearGradient>
<linearGradient id="paint58_linear_205_5" x1="453.931" y1="364.425" x2="453.931" y2="419.842" gradientUnits="userSpaceOnUse">
<stop stop-color="#00C8FF"/>
<stop offset="1" stop-color="#0683FF"/>
</linearGradient>
</defs>
</svg>
