<svg width="80" height="100" viewBox="0 0 80 100" fill="none" xmlns="http://www.w3.org/2000/svg">
<g clip-path="url(#clip0_122_3401)">
<path d="M49.7715 41.6626C49.7715 41.6626 51.2786 42.3675 51.5946 42.3311C51.9105 42.2946 55.4351 40.4473 55.9577 40.6539C56.4682 40.8605 61.2931 42.72 61.3053 43.194C61.3053 43.668 60.0778 43.5221 57.4404 42.2703C57.4404 42.2703 60.8556 43.6072 60.4181 44.0812C59.9684 44.5552 56.8692 42.9631 56.8692 42.9631C56.8692 42.9631 59.9684 44.2513 59.4458 44.6767C58.9232 45.1021 56.0428 43.4735 56.0428 43.4735C56.0428 43.4735 58.279 44.6889 58.0967 44.9563C57.9144 45.2236 56.6505 44.9563 55.1191 44.142C55.1191 44.142 54.8639 44.069 54.2805 44.4337C53.6971 44.7983 49.4434 43.51 49.4434 43.51L49.7837 41.6505L49.7715 41.6626Z" fill="#E45940"/>
<path d="M72.0362 41.8935H49.8193V45.0656H72.0362V41.8935Z" fill="#292C3D"/>
<path d="M78.0401 21.281L70.8451 43.595L69.7148 43.1818L76.9098 20.8678L78.0401 21.281Z" fill="#292C3D"/>
<path d="M44.4602 91.8449C44.4602 91.8449 49.5525 94.3486 52.2871 95.4789C54.5598 96.4147 54.0858 98.4808 51.5093 99.2465C48.9327 100.012 46.8058 99.5139 46.2225 98.6874C45.6391 97.8731 44.1928 98.177 43.6459 98.4322C43.099 98.6996 38.7966 97.703 38.5535 96.7064C38.3104 95.7098 39.38 91.3223 39.38 91.3223L44.4723 91.8328L44.4602 91.8449Z" fill="#161415"/>
<path d="M17.9164 44.5552L26.5698 44.6646C26.5698 44.6646 47.7414 52.5644 50.5125 54.6427C53.2835 56.721 45.967 92.8658 45.967 92.8658L38.7842 92.1123C38.7842 92.1123 40.4736 59.7715 39.1002 58.386C37.7147 57.0005 15.3034 54.9587 13.8936 54.5333C12.5081 54.1201 14.477 49.1492 17.9286 44.5552H17.9164Z" fill="#161415"/>
<path d="M0.354492 25.2674L9.14156 60.4035L12.7876 59.5041L5.22809 24.052L0.354492 25.2674Z" fill="#B9D2DB"/>
<path d="M40.4614 61.4366H39.0029V99.7934H40.4614V61.4366Z" fill="#B9D2DB"/>
<path d="M13.517 61.4366H12.0586V99.7934H13.517V61.4366Z" fill="#B9D2DB"/>
<path d="M44.3623 57.8999H8.14453V62.9193H44.3623V57.8999Z" fill="#292C3D"/>
<path d="M24.9782 10.2333L29.475 12.5911C29.475 12.5911 26.4609 18.0967 26.9349 21.7185C26.9349 21.7185 24.0423 22.0224 20.5664 17.4647C20.5664 17.4647 23.9087 15.9334 24.966 10.2455L24.9782 10.2333Z" fill="#E45940"/>
<path d="M26.096 3.18426C26.096 3.18426 31.9784 2.66166 33.2059 3.79194C34.4334 4.92223 35.8675 6.49005 35.2963 7.48664C34.7251 8.49539 33.6313 11.631 33.7042 12.7249C33.7771 13.8187 34.1782 14.6816 33.9351 14.9976C33.692 15.3136 32.9264 14.8031 32.5861 15.1556C32.2336 15.5202 30.2161 17.9752 29.3775 18.1818C28.5389 18.3884 24.8199 15.7876 24.1514 10.7681C23.483 5.74868 24.7105 3.62179 26.1082 3.18426H26.096Z" fill="#F88667"/>
<path d="M50.6579 92.404C50.6579 92.404 57.3059 94.7253 60.0526 95.8313C62.3253 96.7428 61.8757 98.8211 59.3112 99.6111C56.7468 100.401 54.6078 99.9149 54.0123 99.1128C53.4167 98.2985 51.9826 98.6145 51.4357 98.8819C50.8888 99.1493 46.5864 98.2013 46.3312 97.2047C46.0759 96.2081 46.6958 93.3034 46.6958 93.3034L50.67 92.4161L50.6579 92.404Z" fill="#161415"/>
<path d="M34.8831 8.14293C33.2788 5.94312 32.1607 3.73116 30.1918 2.06611C29.9244 2.11473 29.657 2.15119 29.4018 2.13904C29.1709 2.13904 28.94 2.06611 28.709 1.98104C24.0421 0.157996 23.483 4.20515 23.2885 4.70345C23.0941 5.20175 22.6808 5.65143 22.4135 6.11327C21.8301 7.14633 21.2832 8.28877 21.5141 9.51628C21.7329 10.7195 22.2069 11.4852 22.8996 12.1658C23.7625 13.0044 25.2331 12.5547 25.4397 11.3758C25.4762 11.1935 25.5005 10.9869 25.5126 10.7803C25.2453 10.4764 24.3337 9.35829 24.8442 8.24015C25.4397 6.92756 27.1655 7.21925 27.2142 8.75061C27.2263 9.18814 26.7523 10.525 27.1898 10.8046C27.2263 10.8167 27.2628 10.8289 27.3114 10.8532C27.3478 10.8532 27.3965 10.8532 27.4451 10.8532C27.9555 10.8046 27.9798 10.4521 28.1135 10.051C28.308 9.50413 28.4174 7.80262 28.9643 7.49878C29.499 7.2071 30.2282 8.00924 30.7144 8.19154C31.6138 8.54399 32.7562 8.82353 33.692 8.78707C34.1903 8.76276 34.7251 8.67768 35.2234 8.50753C35.114 8.386 35.0046 8.25231 34.8952 8.11862L34.8831 8.14293Z" fill="#2E2E2C"/>
<path d="M15.5221 43.2791L25.1843 45.1993C25.1843 45.1993 47.1459 53.1356 49.9047 55.2018C52.6758 57.28 53.1619 92.8658 53.1619 92.8658L45.9548 93.5586C45.9548 93.5586 42.8678 59.7351 41.1784 58.7385C39.72 57.8877 16.0934 57.8877 14.6228 57.8877C12.4959 57.8877 10.6607 48.1648 15.51 43.2669L15.5221 43.2791Z" fill="#161415"/>
<path d="M55.082 40.5323L54.1947 45.0778C54.1947 45.0778 35.4296 41.8328 33.4121 40.3379C31.3946 38.843 19.2774 25.7292 21.0518 22.071C22.8263 18.4127 25.4514 19.3486 26.8977 21.4268C28.344 23.5051 34.676 34.0302 35.6726 35.0632C36.6692 36.0963 55.0698 40.5445 55.0698 40.5445L55.082 40.5323Z" fill="#2E2E2C"/>
<path d="M17.4186 16.3831C17.4186 16.3831 22.8634 20.0778 25.6101 19.9198C25.6101 19.9198 30.0462 29.2416 30.3501 31.7453C30.6539 34.2489 34.0326 47.8488 34.0326 47.8488C34.0326 47.8488 18.2815 52.9412 11.4512 48.9183C11.4512 48.9183 12.8124 37.4089 12.1075 32.1099C11.4147 26.823 13.0311 20.3087 17.4186 16.3831V16.3831Z" fill="#2E2E2C"/>
<path d="M20.0919 34.9538C19.0224 32.4866 14.8173 28.5003 16.932 25.7171C18.6335 23.4808 19.8489 23.335 21.7205 25.4619C23.4707 27.455 25.0749 29.6062 27.056 31.3685C28.1012 32.2922 29.2679 33.0336 30.4104 33.8235C30.4104 38.9524 34.02 47.8488 34.02 47.8488C34.02 47.8488 26.3875 50.2917 22.2188 50.3525C24.4551 45.4789 22.3404 40.1556 20.0798 34.966L20.0919 34.9538Z" fill="#161415"/>
<path d="M51.728 41.2372C51.728 41.2372 53.3931 41.3102 53.7334 41.2858C54.0858 41.2615 58.4125 38.3325 58.9351 38.6364C59.4577 38.9402 64.3313 41.772 64.2463 42.4161C64.1612 43.0603 62.8364 42.7807 60.2234 40.9212C60.2234 40.9212 63.675 42.9509 63.0917 43.5707C62.5083 44.1784 59.4577 41.8328 59.4577 41.8328C59.4577 41.8328 62.5691 43.7773 61.9128 44.3243C61.2565 44.8712 58.449 42.4769 58.449 42.4769C58.449 42.4769 60.6366 44.2635 60.3814 44.6159C60.1262 44.9684 58.8014 44.5066 57.2944 43.3277C57.2944 43.3277 56.6502 43.4249 56.0183 43.9839C54.6935 45.1264 50.9502 44.227 50.9502 44.227L51.728 41.2494V41.2372Z" fill="#F88667"/>
<path d="M31.905 45.0778H30.6289V99.7083H31.905V45.0778Z" fill="#7695A8"/>
<path d="M79.6443 45.0778H78.3682V99.7083H79.6443V45.0778Z" fill="#7695A8"/>
<path d="M79.6445 45.0778H30.6289V46.5727H79.6445V45.0778Z" fill="#7695A8"/>
<path d="M54.4743 40.5323L53.1738 45.1628C53.1738 45.1628 34.0683 45.7098 31.9415 44.2149C29.8146 42.72 15.1938 27.8682 17.0654 24.2222C18.9371 20.5761 21.3678 21.4633 22.8749 23.5416C24.2604 25.4618 33.4971 36.1327 34.591 37.2387C35.624 38.2839 54.4743 40.5445 54.4743 40.5445V40.5323Z" fill="#2E2E2C"/>
<path d="M34.2384 10.124C34.1169 10.3792 33.971 10.6587 33.971 10.6587C33.5943 9.15168 30.2277 8.39816 28.4776 8.11862C27.6997 8.544 28.1373 9.99028 28.1373 9.99028C28.1373 9.99028 29.1703 11.3636 30.3979 11.9349C32.5612 12.9315 33.4241 12.2873 33.4241 12.2873C33.5943 12.4818 33.7036 12.4818 33.7036 12.4818C34.1898 11.3393 34.2384 10.124 34.2384 10.124V10.124Z" fill="#161415"/>
<path d="M27.8457 22.8367C27.8457 22.8367 22.6074 11.7283 28.1252 8.04571C32.4397 5.1653 34.7489 9.5163 34.7489 9.5163C34.7489 9.5163 37.3012 7.82694 33.6308 3.65825C29.1339 -1.43412 20.9181 -1.28827 17.1383 4.509C16.2633 5.85806 16.0445 7.31649 14.975 8.55616C13.9176 9.78368 12.921 11.7404 13.2492 13.3933C13.4315 14.3291 13.553 15.2407 13.553 16.2008C13.553 16.9665 13.3828 17.9995 13.6138 18.7287C14.0634 20.175 15.376 20.5518 16.7372 20.5518C17.9283 20.5518 19.1437 20.0656 20.3226 20.3087C21.0761 20.4667 21.7567 20.8192 22.4738 21.1109C23.288 21.439 24.0051 21.4512 24.8316 21.597C25.4392 21.7064 27.5904 22.2411 27.87 22.8245L27.8457 22.8367Z" fill="#161415"/>
<path d="M59.5155 4C53.4668 4 48.5459 8.92101 48.5459 14.9696C48.5459 17.4646 50.2656 21.113 53.6573 25.8136C56.1093 29.2119 58.5217 31.897 58.6232 32.0096L59.5156 33L60.4081 32.0096C60.5095 31.897 62.922 29.2119 65.374 25.8136C68.7656 21.113 70.4854 17.4647 70.4854 14.9696C70.4853 8.92101 65.5643 4 59.5155 4ZM59.5155 29.3825C56.4938 25.8499 50.9483 18.6138 50.9483 14.9696C50.9483 10.2457 54.7915 6.40245 59.5155 6.40245C64.2396 6.40245 68.0827 10.2457 68.0827 14.9696C68.0828 18.6138 62.5373 25.8499 59.5155 29.3825Z" fill="#EA5160"/>
<path d="M59.5168 18.9494C61.7148 18.9494 63.4966 17.1676 63.4966 14.9697C63.4966 12.7717 61.7148 10.9899 59.5168 10.9899C57.3189 10.9899 55.5371 12.7717 55.5371 14.9697C55.5371 17.1676 57.3189 18.9494 59.5168 18.9494Z" fill="#EA5160"/>
</g>
<defs>
<clipPath id="clip0_122_3401">
<rect width="79.2902" height="100" fill="white" transform="translate(0.354492)"/>
</clipPath>
</defs>
</svg>
