<svg width="121" height="100" viewBox="0 0 121 100" fill="none" xmlns="http://www.w3.org/2000/svg">
<g clip-path="url(#clip0_123_3765)">
<path d="M102.784 58.9456H18.2305V71.3656H102.784V58.9456Z" fill="#020000"/>
<path d="M105.612 0H15.389C12.5244 0 10.2021 2.32224 10.2021 5.18687V62.2424C10.2021 65.1071 12.5244 67.4293 15.389 67.4293H105.612C108.477 67.4293 110.799 65.1071 110.799 62.2424V5.18687C110.799 2.32224 108.477 0 105.612 0Z" fill="#161415"/>
<path d="M106.166 4.46213H14.834V62.2566H106.166V4.46213Z" fill="#F51253"/>
<path d="M0.396484 85.4341V87.2815C0.396484 88.3047 1.50491 89.1289 2.88334 89.1289H118.117C119.481 89.1289 120.604 88.3047 120.604 87.2815V85.4341H0.396484Z" fill="#020000"/>
<path d="M60.4935 71.2093H11.1685C10.998 71.3798 3.23903 78.3288 0.880069 83.4873C-0.128884 85.6899 0.524804 86.8552 2.41481 86.8552H118.586C120.476 86.8552 121.13 85.6899 120.121 83.4873C117.748 78.3288 109.989 71.3798 109.833 71.2093H60.4935Z" fill="#161415"/>
<path d="M114.351 84.212H9.23535L16.5112 73.4404H107.075L114.351 84.212Z" fill="#898989"/>
<path d="M113.073 82.322L112.845 81.981H105.825L104.518 79.3662H111.069L110.841 79.0252H104.347L103.04 76.4104H109.079L108.852 76.0694H102.884L101.562 73.4262H100.951L102.258 76.0694H94.7551L93.7035 73.4262H93.0925L94.1298 76.0694H86.6266L85.845 73.4262H85.234L86.0014 76.0694H78.4982L77.9866 73.4262H77.3755L77.8729 76.0694H70.3697L70.1281 73.4262H69.5171L69.7444 76.0694H62.6107V73.4262H61.9428V76.0694H54.5533L54.7807 73.4262H54.1696L53.928 76.0694H46.4248L46.9222 73.4262H46.3112L45.7996 76.0694H38.2964L39.0637 73.4262H38.4527L37.6711 76.0694H30.1679L31.2053 73.4262H30.5942L29.5426 76.0694H22.0394L23.3468 73.4262H22.7358L21.4142 76.0694H14.792L14.5647 76.4104H21.2437L19.9363 79.0252H12.7883L12.561 79.3662H19.7657L18.4584 81.981H10.742L10.5146 82.322H18.2452L17.2931 84.212H17.9894L18.9131 82.322H27.0132L26.26 84.212H26.9563L27.6953 82.322H35.7953L35.2411 84.212H35.9374L36.4774 82.322H44.5775L44.208 84.212H44.9043L45.2596 82.322H53.3596L53.1891 84.212H53.8854L54.0417 82.322H61.957V84.212H62.6249V82.322H70.2844L70.4408 84.212H71.1371L70.9665 82.322H79.0666L79.4219 84.212H80.1182L79.7487 82.322H87.8487L88.3887 84.212H89.0851L88.5308 82.322H96.6309L97.3698 84.212H98.0662L97.313 82.322H105.413L106.337 84.212H107.033L106.095 82.322H113.172H113.073ZM29.9832 76.4104H37.529L36.7474 79.0252H28.96L29.9832 76.4104ZM21.8121 76.4104H29.3579L28.3205 79.0252H20.5331L21.8121 76.4104ZM27.1411 81.981H19.0836L20.3626 79.3662H28.1784L27.1411 81.981ZM35.8806 81.981H27.8232L28.8463 79.3662H36.6622L35.8806 81.981ZM44.6201 81.981H36.5627L37.3158 79.3662H45.1317L44.6201 81.981ZM45.1885 79.0252H37.4011L38.1543 76.4104H45.7001L45.1885 79.0252ZM53.3454 81.981H45.288L45.7712 79.3662H53.587L53.3454 81.981ZM53.6154 79.0252H45.828L46.3112 76.4104H53.857L53.6154 79.0252ZM61.9002 81.981H54.0133L54.2407 79.3662H61.9144V81.981H61.9002ZM61.9002 79.0252H54.2549L54.4823 76.4104H61.9002V79.0252ZM62.5681 76.4104H69.7302L69.9576 79.0252H62.5823V76.4104H62.5681ZM62.5681 81.981V79.3662H69.9718L70.1992 81.981H62.5681ZM102.415 76.4104L103.694 79.0252H95.9062L94.8688 76.4104H102.415ZM94.2435 76.4104L95.2667 79.0252H87.4793L86.7119 76.4104H94.2577H94.2435ZM70.3555 76.4104H77.9013L78.3845 79.0252H70.5971L70.3555 76.4104ZM70.8671 81.981L70.6255 79.3662H78.4413L78.9245 81.981H70.8671ZM78.5266 76.4104H86.0724L86.8256 79.0252H79.0382L78.5266 76.4104ZM79.6066 81.981L79.095 79.3662H86.9108L87.664 81.981H79.6066ZM88.3461 81.981L87.5645 79.3662H95.3804L96.4035 81.981H88.3461ZM97.0856 81.981L96.0483 79.3662H103.864L105.143 81.981H97.0856Z" fill="#3C3A3B"/>
<path d="M29.3146 4.46213H14.834V11.5106H29.3146V4.46213Z" fill="#B6572B"/>
<path d="M46.9069 4.46213H31.0479V11.5106H46.9069V4.46213Z" fill="#B6572B"/>
<path d="M64.486 4.46213H48.627V11.5106H64.486V4.46213Z" fill="#B6572B"/>
<path d="M82.0788 4.46213H66.2197V11.5106H82.0788V4.46213Z" fill="#B6572B"/>
<path d="M99.6715 4.46213H83.8125V11.5106H99.6715V4.46213Z" fill="#B6572B"/>
<path d="M106.165 4.46213H101.391V11.5106H106.165V4.46213Z" fill="#B6572B"/>
<path d="M20.5182 13.1448H14.834V20.1933H20.5182V13.1448Z" fill="#B6572B"/>
<path d="M38.111 13.1448H22.252V20.1933H38.111V13.1448Z" fill="#B6572B"/>
<path d="M55.7038 13.1448H39.8447V20.1933H55.7038V13.1448Z" fill="#B6572B"/>
<path d="M73.2819 13.1448H57.4229V20.1933H73.2819V13.1448Z" fill="#B6572B"/>
<path d="M90.8747 13.1448H75.0156V20.1933H90.8747V13.1448Z" fill="#B6572B"/>
<path d="M106.165 13.1448H92.6084V20.1933H106.165V13.1448Z" fill="#B6572B"/>
<path d="M29.3146 21.8133H14.834V28.8617H29.3146V21.8133Z" fill="#B6572B"/>
<path d="M46.9069 21.8133H31.0479V28.8617H46.9069V21.8133Z" fill="#B6572B"/>
<path d="M99.6715 21.8133H83.8125V28.8617H99.6715V21.8133Z" fill="#B6572B"/>
<path d="M106.165 21.8133H101.391V28.8617H106.165V21.8133Z" fill="#B6572B"/>
<path d="M20.5182 30.4818H14.834V37.5302H20.5182V30.4818Z" fill="#B6572B"/>
<path d="M38.111 30.4818H22.252V37.5302H38.111V30.4818Z" fill="#B6572B"/>
<path d="M106.165 30.4818H92.6084V37.5302H106.165V30.4818Z" fill="#B6572B"/>
<path d="M29.3146 39.1502H14.834V46.1987H29.3146V39.1502Z" fill="#B6572B"/>
<path d="M46.9069 39.1502H31.0479V46.1987H46.9069V39.1502Z" fill="#B6572B"/>
<path d="M99.6715 39.1502H83.8125V46.1987H99.6715V39.1502Z" fill="#B6572B"/>
<path d="M106.165 39.1502H101.391V46.1987H106.165V39.1502Z" fill="#B6572B"/>
<path d="M106.165 56.4871H101.391V62.2566H106.165V56.4871Z" fill="#B6572B"/>
<path d="M20.5182 47.8187H14.834V54.8671H20.5182V47.8187Z" fill="#B6572B"/>
<path d="M38.111 47.8187H22.252V54.8671H38.111V47.8187Z" fill="#B6572B"/>
<path d="M90.8747 47.8187H75.0156V54.8671H90.8747V47.8187Z" fill="#B6572B"/>
<path d="M82.9455 29.8707V21.8133H47.76V29.8707H39.8447V29.8991V38.1412V38.1697H47.76V43.456H47.7458V47.8187H39.8447V54.8671H57.878H59.8533H74.1491V50.5045V47.8187V46.2271H82.9455V38.1697H90.875V38.1412V29.8991V29.8707H82.9455Z" fill="#161415"/>
<path d="M106.165 47.8187H92.6084V54.8671H106.165V47.8187Z" fill="#B6572B"/>
<path d="M29.3146 56.4871H14.834V62.2566H29.3146V56.4871Z" fill="#B6572B"/>
<path d="M46.9069 56.4871H31.0479V62.2566H46.9069V56.4871Z" fill="#B6572B"/>
<path d="M64.486 56.4871H48.627V62.2566H64.486V56.4871Z" fill="#B6572B"/>
<path d="M82.0788 56.4871H66.2197V62.2566H82.0788V56.4871Z" fill="#B6572B"/>
<path d="M99.6715 56.4871H83.8125V62.2566H99.6715V56.4871Z" fill="#B6572B"/>
<path d="M64.4435 33.3523L57.2529 32.1586C57.2529 32.1586 57.9492 35.6118 60.4503 35.8534C63.7898 36.1802 64.4435 33.3523 64.4435 33.3523Z" fill="white"/>
<path d="M66.2627 33.3523L73.4533 32.1586C73.4533 32.1586 72.7569 35.6118 70.2559 35.8534C66.9164 36.1802 66.2627 33.3523 66.2627 33.3523Z" fill="white"/>
<path d="M63.4487 94.8557C63.3066 94.6994 63.1645 94.5431 63.0224 94.3868C63.8324 94.9979 64.6566 95.481 65.2535 95.3815C67.243 95.0547 64.2872 92.8094 63.4914 92.042C62.6245 91.2178 60.1234 89.882 60.834 88.5462C61.3171 87.6226 62.8803 88.6173 63.6619 88.7168C64.2019 88.7878 65.9924 88.8873 65.8645 87.9636C65.7508 87.1252 63.875 86.6136 63.2214 86.4289C62.1982 86.1162 61.104 85.8889 60.0808 85.5194C58.0771 84.7946 55.7892 84.3683 53.8708 82.9046C53.1887 84.2973 52.1939 85.5194 51.0713 86.6278C51.455 87.2531 51.8245 87.8357 52.4639 89.0294C53.2881 90.5641 54.3824 91.8999 55.0787 93.4347C55.576 94.5147 57.2671 96.4189 57.8355 97.0726C58.2476 97.5273 59.1145 98.4084 59.4129 97.8258C60.0098 96.6605 58.4466 95.5379 58.0345 94.7421C59.0008 95.6089 61.3456 99.2042 62.3545 98.7068C63.0935 98.3373 62.7808 97.5131 62.1556 96.6179C63.0508 97.3 64.884 98.4795 65.1966 97.5984C65.4666 96.8737 63.9319 95.481 63.4203 94.87L63.4487 94.8557Z" fill="#F88667"/>
<path d="M49.2666 50.6039V30.297C42.5592 35.1712 30.7502 48.2592 26.1602 58.3345C22.4512 66.463 50.9435 88.8447 50.9435 88.8447L56.5567 82.9046C56.5567 82.9046 39.6176 64.303 39.3903 62.5408C39.1771 60.9208 41.8345 54.8103 49.2666 50.6039Z" fill="#161415"/>
<path d="M83.699 100H70.2984C69.3889 100 68.8774 99.261 69.1616 98.4084L70.7816 93.4915C70.9521 92.98 71.6058 92.5963 72.2453 92.5963H81.738C82.3916 92.5963 83.0453 92.98 83.2016 93.4915L84.8217 98.4084C85.1059 99.261 84.6085 100 83.6848 100H83.699Z" fill="#FFB600"/>
<path d="M77.6879 98.7353H70.5684L70.881 97.5558H77.6594L77.6879 98.7353Z" fill="#898989"/>
<path d="M83.202 98.7353H81.511C81.1983 98.7353 80.8999 98.4937 80.8573 98.1953L80.7294 97.4279C80.6867 97.1579 80.8857 96.9447 81.1841 96.9447H82.7473C83.0315 96.9447 83.3299 97.1579 83.4152 97.4279L83.6283 98.1953C83.7136 98.4937 83.5289 98.7353 83.2162 98.7353H83.202Z" fill="#161415"/>
<path d="M82.4912 94.1879H71.7764L72.018 93.3068H82.2496L82.4912 94.1879Z" fill="#161415"/>
</g>
<defs>
<clipPath id="clip0_123_3765">
<rect width="120.207" height="100" fill="white" transform="translate(0.396484)"/>
</clipPath>
</defs>
</svg>
