<svg width="102" height="100" viewBox="0 0 102 100" fill="none" xmlns="http://www.w3.org/2000/svg">
<path d="M42.6109 13.2182C42.6109 13.2182 42.9047 19.9271 40.6488 22.1008C38.3929 24.2745 33.5638 20.9963 34.492 14.0641C35.4202 7.13194 41.671 9.64633 42.6109 13.2182Z" fill="#161415"/>
<path d="M64.724 36.9757C64.254 36.6114 62.4563 37.6336 61.1521 38.0684C60.4119 38.3151 58.908 38.3739 57.7565 38.3856C57.7213 39.0201 57.639 39.6546 57.498 40.2773C58.3205 40.3125 58.955 40.4653 59.5542 40.4183C60.2122 40.3713 61.3989 40.2068 61.8571 40.1245C62.2918 40.0423 62.9968 40.0305 63.3141 40.289C64.771 41.4992 65.5817 41.5815 65.7697 41.1467C65.8049 41.0762 64.63 40.0423 64.2423 39.6193C64.8767 40.195 66.4394 41.3347 66.7684 40.9705C67.0151 40.7003 65.5582 39.3726 64.9355 38.8321C65.5817 39.3961 67.2619 40.7943 67.6731 40.6768C68.7776 40.3595 65.194 37.3282 64.724 36.9639V36.9757Z" fill="#161415"/>
<path d="M71.0447 40.4888H52.833V42.8269H71.0447V40.4888Z" fill="#161415"/>
<path d="M59.1896 38.0684L58.5551 40.7238C58.5551 40.7238 50.166 39.8191 47.3108 38.4914C44.4557 37.1637 41.6006 30.3725 41.6006 30.3725L43.786 21.8188C43.786 21.8188 48.0041 32.9573 49.4727 34.3673C50.9414 35.7655 59.2013 38.0801 59.2013 38.0801L59.1896 38.0684Z" fill="#2E2E2C"/>
<path d="M93.1336 8.60062H57.6266C56.6792 8.60062 55.9111 9.36864 55.9111 10.316V31.7236C55.9111 32.671 56.6792 33.4391 57.6266 33.4391H93.1336C94.081 33.4391 94.849 32.671 94.849 31.7236V10.316C94.849 9.36864 94.081 8.60062 93.1336 8.60062Z" fill="#B9D2DB"/>
<path d="M57.9438 31.7236V10.3043C57.9438 9.36433 58.7075 8.58887 59.6592 8.58887H57.6383C56.6983 8.58887 55.9229 9.35259 55.9229 10.3043V31.7236C55.9229 32.6636 56.6866 33.4391 57.6383 33.4391H59.6592C58.7192 33.4391 57.9438 32.6753 57.9438 31.7236Z" fill="#161415"/>
<path d="M75.4504 39.5723C75.4504 39.5723 76.2376 32.0291 72.795 29.4678C72.795 29.4678 72.0078 28.8333 73.3003 28.0931C74.5927 27.3528 78.1646 26.5069 79.3748 28.7158C80.585 30.9247 81.3957 34.7903 80.8904 39.5606H75.4504V39.5723Z" fill="#161415"/>
<path d="M27.7015 57.5608H26.0918V100H27.7015V57.5608Z" fill="#B9D2DB"/>
<path d="M57.5218 57.5608H55.9121V100H57.5218V57.5608Z" fill="#B9D2DB"/>
<path d="M61.8451 55.0582H21.7676V59.2057H61.8451V55.0582Z" fill="#161415"/>
<path d="M43.5273 81.0128C43.5273 81.0128 39.4385 84.5729 39.462 85.0899C39.4855 85.6069 46.4647 97.4621 47.6749 97.4974C48.8851 97.5326 49.1789 95.4765 48.9791 94.701C48.7794 93.9255 46.547 82.6108 46.547 82.6108L43.5391 81.0128H43.5273Z" fill="#161415"/>
<path d="M37.582 83.21C37.582 83.21 33.5989 86.8993 33.6459 87.4045C33.6812 87.9215 41.0129 99.5653 42.2231 99.5653C43.4333 99.5653 43.6565 97.4974 43.4333 96.7336C43.21 95.9582 40.6369 84.7256 40.6369 84.7256L37.582 83.21Z" fill="#161415"/>
<path d="M40.1549 42.5214C40.1549 42.5214 45.3247 44.9888 51.27 47.3035C55.0415 48.7722 60.3171 50.6991 60.1408 54.7527C60.0116 57.7018 48.1328 86.1591 48.1328 86.1591L42.7281 83.4567C42.7281 83.4567 52.6211 59.5112 52.4449 57.878C52.2687 56.2448 51.129 57.69 41.3534 56.8088C31.5778 55.9276 28.6169 54.0594 28.6757 49.4184C28.7462 44.7773 31.2958 38.2916 35.2554 36.6467C39.215 35.0017 40.1549 42.5214 40.1549 42.5214Z" fill="#161415"/>
<g style="mix-blend-mode:multiply">
<path d="M40.1549 42.5214C40.1549 42.5214 42.1288 45.0358 48.0741 47.3505C51.8456 48.8192 56.5337 51.5098 56.5337 54.1064C56.5337 57.0673 45.4657 84.8196 45.4657 84.8196L42.7398 83.4567C42.7398 83.4567 52.6329 59.5112 52.4566 57.878C52.2804 56.2448 51.1407 57.69 41.3651 56.8088C31.5895 55.9276 28.6286 54.0594 28.6874 49.4184C28.7579 44.7773 31.3075 38.2916 35.2671 36.6467C39.2267 35.0017 40.1666 42.5214 40.1666 42.5214H40.1549Z" fill="#020000"/>
</g>
<path d="M37.4768 38.9731C37.4768 38.9731 39.0512 45.5293 42.7758 47.1037C46.5122 48.6782 55.0776 50.4288 55.0776 54.5647C55.0776 57.5255 42.2824 86.7818 42.2824 86.7818L35.7261 83.7152C35.7261 83.7152 44.3855 60.0399 44.1623 58.4185C43.939 56.7971 44.8085 57.596 35.0094 57.0086C25.2103 56.4211 23.8944 54.5529 23.8121 49.9119C23.7416 45.2708 29.7574 38.9848 29.7574 38.9848C33.6582 37.2224 37.4651 38.9848 37.4651 38.9848L37.4768 38.9731Z" fill="#161415"/>
<path d="M40.1906 11.8435C40.1906 11.8435 38.8277 17.401 41.3538 20.2561C41.3538 20.2561 44.7142 24.7797 39.4152 25.5552C34.1162 26.3306 34.4921 18.4467 34.4921 18.4467C34.4921 18.4467 37.3943 12.6425 36.0078 9.31735C36.0078 9.31735 37.7702 10.2691 40.1906 11.8435Z" fill="#E45940"/>
<path d="M41.5888 20.0094C41.3186 19.7039 40.6724 19.2339 40.6724 19.2339C40.6019 19.2809 40.5196 19.3397 40.4374 19.3867C38.299 20.5264 36.0783 18.8932 35.1501 16.9193C34.7859 17.8475 34.4921 18.4467 34.4921 18.4467C34.4921 18.4467 34.1162 26.3306 39.4152 25.5552C44.7142 24.7797 41.6006 20.0094 41.6006 20.0094H41.5888Z" fill="#2E2E2C"/>
<path d="M37.8409 3.97134C37.8409 3.97134 45.1139 4.33557 45.1609 6.13325C45.2079 7.93092 44.6791 8.91788 44.9259 10.4923C45.4428 13.8762 43.3514 17.7888 42.4937 17.9415C41.166 18.1765 36.6542 16.1908 35.9492 13.4532C35.2443 10.7156 35.0563 2.87864 37.8527 3.97134H37.8409Z" fill="#F88667"/>
<path d="M43.8678 38.4444C43.8678 38.4444 45.595 38.6676 45.971 38.6676C46.347 38.6676 51.129 35.977 51.646 36.3412C52.163 36.7055 57.0273 40.1011 56.8745 40.759C56.7218 41.417 55.3706 41.0175 52.7857 38.8439C52.7857 38.8439 56.2283 41.276 55.5586 41.8635C54.9006 42.451 51.9045 39.7251 51.9045 39.7251C51.9045 39.7251 54.9946 42.028 54.2662 42.545C53.5259 43.0619 50.8001 40.3125 50.8001 40.3125C50.8001 40.3125 52.9385 42.3805 52.6447 42.7212C52.351 43.0619 50.9998 42.4745 49.5311 41.0998C49.5311 41.0998 49.2609 40.947 48.4737 41.37C47.6864 41.793 42.8691 40.9823 42.8691 40.9823L43.8796 38.4444H43.8678Z" fill="#161415"/>
<path d="M38.6283 3.30161C38.6283 3.30161 35.0212 3.20761 33.764 7.40218C33.2001 9.2821 33.5878 10.88 34.1753 12.0785C34.563 11.679 35.1152 11.4205 35.8319 11.4205C35.9259 11.4205 36.0082 11.444 36.0904 11.444C35.315 10.3866 36.3724 9.64634 37.1009 9.44659C37.9234 9.22335 38.1348 10.7038 38.2758 11.3735C38.3698 10.9858 38.5578 10.6215 38.8281 10.3278C38.5813 9.2351 38.3816 7.98966 39.1688 6.80296C40.661 4.5588 38.6166 3.28986 38.6166 3.28986L38.6283 3.30161Z" fill="#2E2E2C"/>
<path d="M40.7425 19.4924C40.7425 19.4924 41.1185 22.4885 40.0375 23.029C38.9566 23.5695 32.1888 17.4597 32.1888 17.4597C32.1888 17.4597 27.5713 20.4441 26.3963 21.4076C25.2214 22.371 25.6444 42.2512 26.0908 44.6128C26.5491 46.9745 42.4344 44.1546 42.4344 44.1546C42.4344 44.1546 43.9736 32.9103 44.5611 31.2419C45.1485 29.5735 45.9123 28.5748 45.1485 26.1426C44.0676 22.7 43.7738 21.8306 43.7738 21.8306C43.7738 21.8306 41.8822 20.0446 40.7425 19.5159V19.4924Z" fill="#2E2E2C"/>
<path d="M31.2724 29.4795C30.0857 27.8816 30.7907 25.2144 29.5453 23.5695C29.1693 23.076 28.7698 22.5825 28.3703 22.1125C28.0648 24.7562 25.6444 42.2512 26.0909 44.6128C26.5491 46.9745 42.4345 44.1546 42.4345 44.1546C42.4345 44.1546 43.7857 34.2498 44.4436 31.6531C44.0441 32.2524 40.8248 36.1767 37.2882 35.6245C35.3025 35.319 33.6811 32.7106 31.2724 29.4912V29.4795Z" fill="#161415"/>
<path d="M84.0989 42.8269H72.5022C71.809 42.8269 71.3507 42.0867 71.668 41.464L72.3494 40.101C72.5139 39.7838 72.8312 39.584 73.1837 39.584H83.4175C83.77 39.584 84.0989 39.7838 84.2517 40.101L84.9332 41.464C85.2504 42.0867 84.7922 42.8269 84.0989 42.8269Z" fill="#161415"/>
<path d="M101.805 42.8269H0.195312V45.5528H101.805V42.8269Z" fill="#7695A8"/>
<path d="M5.13003 43.9901H3.95508V100H5.13003V43.9901Z" fill="#7695A8"/>
<path d="M98.0451 43.9901H96.8701V100H98.0451V43.9901Z" fill="#7695A8"/>
<path d="M45.3371 38.3034L45.0434 41.7225C45.0434 41.7225 24.8578 41.934 21.8146 41.5462C18.7715 41.1585 17.9373 37.3752 19.359 33.5918C21.3094 28.4103 25.739 20.4676 28.3004 20.2679C30.85 20.0681 33.7521 23.969 31.6372 27.7406C29.5223 31.5239 25.692 35.1545 26.5262 35.8007C27.3604 36.4469 45.3371 38.3034 45.3371 38.3034Z" fill="#2E2E2C"/>
<path d="M44.9018 8.85911C44.843 9.27034 44.5963 9.68157 44.5963 9.68157C43.4213 7.69591 39.9317 8.08364 37.3233 8.43613C36.3951 9.37609 35.7959 10.7508 35.7959 10.7508C35.7959 10.7508 39.4147 12.29 40.5897 12.525C43.1981 13.0302 44.2438 12.29 44.2438 12.29C44.561 12.5015 44.937 12.6189 44.937 12.6189C45.5362 10.222 44.9018 8.84736 44.9018 8.84736V8.85911Z" fill="#161415"/>
<path d="M40.038 23.029C40.038 23.029 33.329 15.5211 37.2533 8.58888C40.32 3.16061 45.1608 6.56797 45.1608 6.56797C45.1608 6.56797 46.9819 3.3721 40.7782 0.892957C36.7364 -0.716725 30.8969 -0.975215 27.3603 7.01445C26.2676 9.48184 24.9399 16.743 28.3002 20.2679C28.9229 20.9141 34.5627 24.0865 40.038 23.029Z" fill="#161415"/>
<path d="M78.3061 23.0055C78.4471 23.0055 78.5881 22.9233 78.6586 22.7705C78.7409 22.5708 78.6586 22.3475 78.4589 22.2653C78.2591 22.183 78.0359 22.2653 77.9536 22.465C77.9419 22.5003 77.9301 22.5238 77.9301 22.559L74.7343 21.1843C74.7343 21.1843 74.7695 21.1256 74.7813 21.1021C74.8635 20.9024 74.7813 20.6791 74.5815 20.5969C74.3818 20.5146 74.1586 20.5969 74.0763 20.7966C74.0176 20.9376 74.0528 21.1021 74.1468 21.2078C74.0058 21.2078 73.8648 21.2901 73.7943 21.4428C73.7121 21.6426 73.7943 21.8658 73.9941 21.9481C74.1938 22.0303 74.417 21.9481 74.4993 21.7483C74.511 21.7131 74.5228 21.6896 74.5228 21.6543L77.7187 23.029C77.7187 23.029 77.6834 23.0878 77.6717 23.1113C77.5894 23.311 77.6717 23.5342 77.8714 23.6165C78.0711 23.6987 78.2944 23.6165 78.3766 23.4167C78.4354 23.2758 78.4001 23.1113 78.3061 23.0055Z" fill="#161415"/>
<path d="M74.1585 23.0055C74.0175 23.0055 73.8765 22.9233 73.806 22.7705C73.7238 22.5708 73.806 22.3475 74.0058 22.2653C74.2055 22.183 74.4288 22.2653 74.511 22.465C74.5228 22.5003 74.5345 22.5238 74.5345 22.559L77.7304 21.1843C77.7304 21.1843 77.6951 21.1256 77.6834 21.1021C77.6011 20.9024 77.6834 20.6791 77.8831 20.5969C78.0829 20.5146 78.3061 20.5969 78.3883 20.7966C78.4471 20.9376 78.4118 21.1021 78.3178 21.2078C78.4588 21.2078 78.5998 21.2901 78.6703 21.4428C78.7526 21.6426 78.6703 21.8658 78.4706 21.9481C78.2708 22.0303 78.0476 21.9481 77.9654 21.7483C77.9536 21.7131 77.9419 21.6896 77.9419 21.6543L74.746 23.029C74.746 23.029 74.7812 23.0878 74.793 23.1113C74.8752 23.311 74.793 23.5342 74.5932 23.6165C74.3935 23.6987 74.1703 23.6165 74.088 23.4167C74.0293 23.2758 74.0645 23.1113 74.1585 23.0055Z" fill="#161415"/>
<path d="M78.1647 19.2692C78.0707 18.9402 78.9754 17.7417 78.5994 16.8958C78.3879 16.4258 77.354 15.8971 76.2378 15.8971C75.1216 15.8971 74.0759 16.4375 73.8761 16.8958C73.5001 17.7417 74.4049 18.9402 74.3109 19.2692C74.2051 19.6334 74.4519 19.9859 74.8043 20.0329C74.8043 20.2444 74.9336 20.3971 75.0746 20.3971C75.1686 20.3971 75.2508 20.3266 75.2978 20.2326C75.3331 20.4089 75.4271 20.5264 75.5563 20.5264C75.6503 20.5264 75.7326 20.4559 75.7796 20.3619C75.8148 20.5381 75.9088 20.6556 76.038 20.6556C76.132 20.6556 76.2025 20.5851 76.2495 20.4911C76.2965 20.5851 76.3788 20.6556 76.461 20.6556C76.5903 20.6556 76.6843 20.5264 76.7195 20.3619C76.7665 20.4676 76.8488 20.5264 76.9427 20.5264C77.072 20.5264 77.166 20.3971 77.2012 20.2326C77.2482 20.3384 77.3305 20.3971 77.4245 20.3971C77.5655 20.3971 77.683 20.2326 77.6947 20.0329C78.0472 19.9859 78.2939 19.6334 78.1882 19.2692H78.1647ZM76.2378 18.7992C76.2378 18.7992 76.8605 19.1987 76.5433 19.4689C76.3435 19.6334 76.2378 19.3514 76.2378 19.3514C76.2378 19.3514 76.1203 19.6334 75.9323 19.4689C75.6151 19.2104 76.2378 18.7992 76.2378 18.7992ZM74.6751 18.3292C74.6751 18.0707 74.9453 17.8592 75.2743 17.8592C75.6033 17.8592 75.8618 18.0707 75.8618 18.3292C75.8618 18.5877 75.5916 18.7992 75.2743 18.7992C74.9571 18.7992 74.6751 18.5877 74.6751 18.3292ZM77.2012 18.7992C76.8723 18.7992 76.602 18.5877 76.602 18.3292C76.602 18.0707 76.8723 17.8592 77.2012 17.8592C77.5302 17.8592 77.8005 18.0707 77.8005 18.3292C77.8005 18.5877 77.5302 18.7992 77.2012 18.7992Z" fill="#161415"/>
<path d="M40.6961 17.965C40.6961 17.965 41.871 20.8083 40.0381 23.029C40.0381 23.029 42.2352 22.0185 42.3175 17.965H40.6961Z" fill="#161415"/>
</svg>
