<svg width="84" height="100" viewBox="0 0 84 100" fill="none" xmlns="http://www.w3.org/2000/svg">
<g clip-path="url(#clip0_123_3819)">
<path d="M56.8958 16.1924C57.1384 19.711 60.5026 22.3362 64.4073 22.0604C68.312 21.7847 71.2681 18.7183 71.0255 15.1996C70.7828 11.681 67.4186 9.05582 63.5139 9.33157C59.6092 9.60733 56.6531 12.6737 56.8958 16.1924Z" fill="#161415"/>
<path d="M61.6948 12.2877L63.8016 12.1443L65.9083 12.0009C65.9083 12.0009 66.9231 17.7145 68.0703 18.3212C68.0703 18.3212 69.9123 25.0276 64.7281 25.3916C58.4519 25.8328 60.4263 18.8617 60.4263 18.8617C61.4852 18.1006 61.6838 12.2987 61.6838 12.2987L61.6948 12.2877Z" fill="#161415"/>
<path d="M60.4365 18.8506L60.4806 18.8837C62.8521 20.3508 65.8964 20.1302 68.0473 18.3433L68.0804 18.3102C68.0804 18.3102 73.6396 19.1264 76.5737 20.814C76.5737 20.814 76.0442 26.3181 76.3531 31.9215L73.9595 44.882L66.1722 45.8195L58.3297 45.985L55.9692 38.9257C54.9324 35.8151 54.1713 32.6274 53.6087 29.3955C52.9359 25.5129 51.9873 22.4575 51.9873 22.4575C54.6566 20.3838 60.4254 18.8506 60.4254 18.8506H60.4365Z" fill="#2E2E2C"/>
<path d="M53.9843 28.6124C56.7419 31.006 59.3119 35.6497 63.0953 36.6093C69.2391 38.1646 73.0556 33.3995 76.2984 28.5242C76.2874 29.6051 76.2984 30.7523 76.3646 31.9215L73.9711 44.882L66.1837 45.8195L58.3412 45.985L55.9808 38.9477C54.966 35.9144 54.1939 32.7929 53.6644 29.6382C53.5762 29.1088 53.4769 28.5903 53.3887 28.105C53.5872 28.2705 53.7858 28.4359 53.9843 28.6124Z" fill="#161415"/>
<path d="M58.3964 13.6554C58.9369 12.9384 59.709 13.9201 59.709 13.9201C59.709 13.9201 58.4736 10.1809 59.323 8.44915C60.1723 6.7174 63.36 7.36818 63.36 7.36818C63.36 7.36818 66.4264 6.26516 67.5184 7.86454C68.5994 9.46393 67.9045 13.3355 67.9045 13.3355C67.9045 13.3355 68.5332 12.2656 69.1729 12.8943C69.8017 13.523 68.3788 15.332 68.0368 15.5636C68.0368 15.5636 66.0845 19.9426 64.2645 20.064C62.4445 20.1963 59.8965 16.1372 59.8965 16.1372C59.5325 15.9607 57.8559 14.3724 58.3964 13.6554Z" fill="#F88667"/>
<path d="M64.2641 8.81314C64.2641 8.81314 66.6687 9.06684 67.0216 10.3133C67.1981 10.9199 67.0989 11.6038 67.0216 12.2215C66.9886 12.5524 66.8782 14.2952 66.9665 14.3283C67.0547 14.3613 67.2092 14.3062 67.2753 14.251C67.5732 13.9753 67.8048 13.5782 68.0033 13.2252C68.4114 12.5303 69.0622 12.5965 69.2828 13.0046C69.2828 13.0046 69.3711 6.7174 66.7459 6.68431C64.1207 6.65122 64.2641 8.80211 64.2641 8.80211V8.81314Z" fill="#2E2E2C"/>
<path d="M62.7199 8.92344C62.7199 8.92344 60.3815 9.50804 60.205 10.7986C60.1168 11.4273 60.3043 12.0891 60.4697 12.6847C60.558 13.0046 60.8999 14.7253 60.8227 14.7695C60.7455 14.8136 60.58 14.7805 60.5139 14.7364C60.1719 14.5047 59.8962 14.1407 59.6425 13.8209C59.1461 13.1921 58.5064 13.3466 58.3519 13.7767C58.3519 13.7767 57.3813 7.56672 59.9844 7.1586C62.5765 6.75048 62.7309 8.90137 62.7309 8.90137L62.7199 8.92344Z" fill="#2E2E2C"/>
<path d="M63.669 11.8134C65.2573 11.692 67.1435 11.3722 69.3826 10.6662L68.434 13.3245C68.434 13.3245 67.3862 14.8246 65.9302 14.9239C65.2684 14.968 64.8823 14.8357 64.6065 14.6812C64.1433 14.4165 63.5366 14.4606 63.1175 14.7915C62.8638 14.9901 62.5108 15.1776 61.838 15.2217C60.393 15.321 59.1356 13.9863 59.1356 13.9863L57.834 11.4935C60.1503 11.8796 62.0586 11.9347 63.6579 11.8354L63.669 11.8134Z" fill="#161415"/>
<path d="M57.0836 19.0823C58.2308 20.7809 63.0841 25.0386 64.7055 24.9614H64.7165C66.338 24.807 70.5405 19.9095 71.445 18.0785C72.3495 16.2365 73.3201 13.3576 71.9855 10.1588C69.2389 3.61791 63.415 3.84954 63.2275 3.89367C63.0399 3.88264 57.2491 4.46724 55.4401 11.328C54.5577 14.6812 55.9255 17.3947 57.0836 19.0933V19.0823ZM57.9219 13.7106C58.0763 11.8023 62.6429 11.0633 63.7348 10.9861C64.8158 10.9089 69.4485 10.9971 69.8677 12.8723C70.2868 14.7253 64.882 24.6415 64.7165 24.9504C64.507 24.6746 57.7675 15.5967 57.9219 13.7106Z" fill="#161415"/>
<path d="M82.0231 40.7015H1.97676C0.898511 40.7015 0.0244141 41.5756 0.0244141 42.6539V95.0364C0.0244141 96.1147 0.898511 96.9887 1.97676 96.9887H82.0231C83.1013 96.9887 83.9754 96.1147 83.9754 95.0364V42.6539C83.9754 41.5756 83.1013 40.7015 82.0231 40.7015Z" fill="#161415"/>
<path d="M76.2541 44.4297H3.88477V92.6759H76.2541V44.4297Z" fill="#EA5160"/>
<path d="M69.9666 100H15.3339C13.0396 100 11.1865 98.0146 11.1865 95.5769V61.8134C11.1865 59.3647 13.0396 57.3903 15.3339 57.3903H69.9666C72.2609 57.3903 74.1139 59.3757 74.1139 61.8134V95.5769C74.1139 98.0256 72.2609 100 69.9666 100Z" fill="#E78900"/>
<path d="M72.1502 89.0691L18.7308 95.9629L13.1826 55.5703L66.591 48.6764L72.1502 89.0691Z" fill="white"/>
<path d="M20.2026 50.0488L16.0596 87.2776L65.1499 92.7406L69.2929 55.5118L20.2026 50.0488Z" fill="#B9D2DB"/>
<path d="M70.6064 63.3245H25.6582V95.246H70.6064V63.3245Z" fill="white"/>
<path d="M69.9666 66.7328H51.2704C48.7996 66.7328 46.8031 69.0271 46.8031 71.8619V71.9612C46.8031 74.5864 44.95 76.7152 42.6558 76.7152H11.1865V95.2349C11.1865 97.8601 13.0396 99.989 15.3339 99.989H69.9666C72.2609 99.989 74.1139 97.8601 74.1139 95.2349V71.4869C74.1139 68.8617 72.2609 66.7328 69.9666 66.7328Z" fill="#FFB600"/>
<path d="M43.5609 54.732C43.8918 54.9746 44.2558 55.9122 44.8073 55.7247C45.083 55.6364 44.7301 54.7761 44.5536 54.5665C44.2999 54.2687 42.1711 52.1288 41.5093 51.7207C40.9908 51.4008 40.4834 51.092 40.0202 50.7611C39.5459 51.2685 38.9833 51.6987 38.3877 52.0847C38.5862 52.9892 38.9171 53.9709 39.0936 54.8533C39.1929 55.3276 39.215 55.824 39.2811 56.2983C39.3253 56.5961 39.3473 57.2248 39.7113 57.3241C40.1084 57.4454 40.1194 56.8167 40.1305 56.574C40.1305 56.221 39.954 55.5261 40.3952 55.3717C41.0349 55.1511 41.4541 56.3424 41.7629 56.7836C42.0497 57.1917 42.877 58.6367 43.1638 57.7763C43.2189 57.5998 42.4248 56.1107 42.3255 55.8791C42.3696 55.9343 42.9652 56.9049 43.0094 56.949C43.241 57.2138 43.6932 57.9418 44.0241 57.8315C44.719 57.5778 43.3954 55.9122 43.2189 55.6585L43.7484 56.2983C44.1344 56.8277 44.4874 57.1917 44.719 56.8608C45.0058 56.4527 43.8918 55.2063 43.5719 54.7209L43.5609 54.732Z" fill="#F88667"/>
<path d="M33.1924 21.0346C33.5233 26.638 35.3653 35.8703 36.1154 37.955C36.8544 40.0176 42.0386 50.6618 42.0386 50.6618L37.8582 53.6179C37.8582 53.6179 31.7033 41.9259 30.9202 39.9515C30.137 37.966 26.1992 27.9726 26.1992 27.9726L33.1924 21.0236V21.0346Z" fill="#2E2E2C"/>
<path d="M33.7218 40.0397C31.6812 36.3556 30.0488 29.9802 29.3097 25.7115L26.1992 27.9947C26.1992 27.9947 30.126 37.9881 30.9202 39.9735C31.7033 41.959 37.8582 53.64 37.8582 53.64L38.906 52.901C37.1522 48.2352 36.1374 44.4077 33.7218 40.0507V40.0397Z" fill="#161415"/>
<path d="M12.2676 26.6049C10.8447 29.9802 8.48421 39.2345 7.66797 40.7346H27.8533C28.9784 36.5321 30.3351 31.381 30.8314 29.0095C31.9675 23.5606 33.2029 21.0677 33.2029 21.0677C33.2029 21.0677 30.5005 16.8211 29.3203 15.2989C29.3203 15.2989 20.4189 16.4461 20.1762 13.8981C20.1762 13.8981 14.4736 15.5857 13.0287 16.1041C12.4441 16.3137 13.8559 22.8326 12.2676 26.5939V26.6049Z" fill="#2E2E2C"/>
<path d="M15.0145 21.3435C13.9997 23.1524 12.7533 25.1489 11.904 26.7924C10.5252 30.278 8.68314 39.2676 7.87793 40.7346H16.5808C16.5367 40.0397 16.2388 38.9146 16.2388 38.1425C16.2388 35.9585 16.3712 33.8738 17.2536 31.8332C18.0478 29.9912 17.033 23.8584 16.68 23.4282C16.0954 22.7333 15.5439 22.0384 15.0145 21.3435Z" fill="#161415"/>
<path d="M16.4925 58.1293C16.6248 58.5484 17.4741 59.2654 17.0991 59.7728C16.9116 60.0265 16.1395 59.3647 15.9851 59.0999C15.7645 58.7359 14.2754 55.7798 14.0768 54.9415C13.9224 54.2908 13.779 53.662 13.6025 53.0554C14.2974 52.7355 14.9372 52.3053 15.5439 51.82C16.4152 52.3384 17.3197 53.0223 18.1691 53.5186C18.6323 53.7834 19.1397 53.9819 19.614 54.2246C19.9118 54.368 20.5516 54.6106 20.5405 55.0298C20.5185 55.482 19.8787 55.2835 19.614 55.2063C19.25 55.0849 18.5882 54.6548 18.2794 55.0629C17.8271 55.6475 18.9191 56.5078 19.2721 56.9711C19.5919 57.4123 20.8053 58.7801 19.8126 58.769C19.603 58.769 18.3345 57.4233 18.136 57.2358C18.1691 57.302 18.9743 58.2616 19.0184 58.3278C19.2169 58.6698 19.8126 59.3867 19.5809 59.6845C19.0735 60.3243 17.8051 58.3609 17.6065 58.0962L18.0918 58.8683C18.511 59.4639 18.7647 59.9493 18.3455 60.0816C17.8161 60.2471 16.9116 58.6477 16.5255 58.1403L16.4925 58.1293Z" fill="#F88667"/>
<path d="M16.7571 51.9634L13.1281 54.2025C13.1281 54.2025 5.13122 40.3265 4.98782 36.3225C4.87752 33.1017 5.53934 29.0977 8.67192 22.0163C10.6684 17.4939 12.8413 15.6739 13.7458 16.0379C14.3856 16.2916 18.0255 17.9131 16.2276 23.4613C15.5989 25.4026 11.5287 33.6642 11.4626 34.4474C11.3964 35.2416 16.746 51.9523 16.746 51.9523L16.7571 51.9634Z" fill="#2E2E2C"/>
<path d="M34.0414 3.15465C35.8835 5.08494 36.5453 7.71013 35.4202 10.1258C34.0084 13.1811 31.9126 16.6667 30.1037 18.6852C28.6477 20.2956 26.8497 20.3949 25.1731 19.8323C21.3787 18.5528 18.2462 10.7324 24.3128 4.18046C27.9969 0.198552 31.8464 0.849335 34.0414 3.15465Z" fill="#161415"/>
<path d="M22.2727 14.0635C22.7912 14.8577 23.2986 16.3909 24.1699 16.8983C25.273 17.5381 26.4642 17.6042 27.6665 17.5711C27.7327 16.5674 28.1629 15.1555 29.7512 13.7547C28.7144 13.1149 27.7548 12.2877 26.9716 11.4383C26.6848 11.1295 26.4311 10.7655 26.2216 10.3794C25.4495 11.2949 23.7949 13.126 22.2617 14.0194L22.2838 14.0525L22.2727 14.0635Z" fill="#E45940"/>
<path d="M30.1593 3.37526C30.1593 3.37526 35.1339 5.32761 35.0236 6.80566C34.9023 8.28371 33.5566 9.78381 33.2808 10.6883C33.0051 11.5928 33.4352 13.1149 33.3249 13.4679C33.2146 13.8319 32.0234 13.7547 31.7476 13.8871C31.4719 14.0194 29.2768 15.9938 28.1849 15.9497C27.0929 15.9056 24.3684 11.6369 24.8096 9.13303C25.2618 6.62917 28.615 3.11053 30.1593 3.36423V3.37526Z" fill="#F88667"/>
<path d="M23.662 5.33863C23.7944 5.76881 23.5627 6.07765 22.9561 6.67328C23.0664 6.91595 23.1325 7.16964 23.1656 7.43437C23.2097 7.47849 23.2539 7.52261 23.298 7.56673C23.4524 7.71012 23.5958 7.85352 23.7392 8.00794C23.684 7.95279 23.287 7.89764 23.8826 8.06309C24.3569 8.19545 23.9047 8.09618 24.412 8.15133C24.5775 8.17339 24.7429 8.20649 24.8974 8.25061C24.8974 7.29098 25.9783 6.50783 26.5409 7.52261C26.7174 7.84249 26.8608 8.25061 26.7615 8.59254C26.4637 9.59629 26.7063 9.94926 27.2358 9.72866C28.03 9.40878 27.8204 7.18067 28.4381 6.88286C29.8389 6.21001 30.4897 5.11802 30.4897 5.11802C31.692 4.34591 31.0964 2.20604 29.0558 1.30157C27.0152 0.397088 28.0079 1.90823 25.3937 2.2281C23.4965 2.45974 23.3642 4.379 23.662 5.3276V5.33863Z" fill="#161415"/>
<path d="M33.9092 9.43085C33.7658 9.66248 33.4901 9.8169 33.4901 9.8169C33.3246 8.33885 30.2141 7.21377 28.5926 6.73947C27.7985 7.04832 27.8867 8.4271 27.8867 8.4271C27.8867 8.4271 29.7729 10.0044 30.4016 10.4456C31.8024 11.4273 32.6187 11.2619 32.6187 11.2619C32.751 11.4714 33.2143 11.5707 33.2143 11.5707C34.196 10.3133 33.9313 9.43085 33.9313 9.43085H33.9092Z" fill="#161415"/>
<path d="M26.3646 19.8434C26.3646 19.8434 23.8718 9.122 29.3979 7.13656C33.7217 5.57027 34.7917 9.80587 34.7917 9.80587C34.7917 9.80587 37.3507 8.89036 35.0674 4.5224C33.5783 1.6766 29.1332 -1.74277 23.3202 1.01479C21.5223 1.87514 16.7793 6.73947 17.8713 13.4128C18.0919 14.7364 20.7612 18.233 26.3646 19.8323V19.8434Z" fill="#161415"/>
<path d="M29.707 16.5012C29.707 16.5012 29.1775 19.2036 26.7178 19.9647C26.7178 19.9647 29.718 20.7809 32.1557 16.0049L29.718 16.5012H29.707Z" fill="#161415"/>
<path d="M69.7133 55.0849C69.5258 55.4379 68.6324 55.9343 68.8971 56.4527C69.0295 56.7174 69.8236 56.2431 70.0112 56.0446C70.2759 55.7578 72.1179 53.3642 72.4268 52.6473C72.6694 52.0957 72.9121 51.5442 73.1768 51.0479C72.6143 50.6508 72.1069 50.1434 71.6547 49.6029C70.7943 49.9228 69.8567 50.375 69.0074 50.6728C68.5552 50.8273 68.0588 50.9265 67.5955 51.0589C67.3087 51.1361 66.6911 51.2464 66.6359 51.6214C66.5697 52.0296 67.1874 51.9634 67.4301 51.9303C67.783 51.8862 68.4449 51.6104 68.6544 52.0296C68.9633 52.6362 67.8382 53.2098 67.4411 53.5738C67.0771 53.9047 65.7535 54.9305 66.6469 55.096C66.8345 55.1291 68.2022 54.1363 68.4118 54.015C68.3677 54.0591 67.4852 54.7871 67.4411 54.8423C67.2095 55.107 66.5477 55.6475 66.7021 55.9563C67.044 56.6181 68.5221 55.0739 68.7427 54.8643L68.1801 55.471C67.7058 55.9343 67.397 56.3203 67.75 56.5078C68.2022 56.7395 69.2721 55.46 69.7133 55.0849Z" fill="#F88667"/>
<path d="M57.2378 56.4086C57.4032 56.7836 58.2415 57.3461 57.9437 57.8425C57.7893 58.0962 57.0282 57.5667 56.8627 57.3461C56.6311 57.0373 54.9876 54.5003 54.7339 53.7613C54.5354 53.1877 54.3478 52.6252 54.1162 52.0957C54.7118 51.7428 55.2523 51.2905 55.7487 50.7831C56.587 51.1692 57.4694 51.6987 58.2967 52.0626C58.7379 52.2612 59.2232 52.3936 59.6754 52.559C59.9622 52.6693 60.5579 52.8127 60.591 53.1988C60.624 53.6179 60.0174 53.4966 59.7747 53.4414C59.4328 53.3752 58.793 53.0443 58.5504 53.4414C58.1974 54.015 59.2673 54.6878 59.6313 55.0849C59.9622 55.4489 61.1976 56.574 60.2931 56.6622C60.1056 56.6843 58.8261 55.5813 58.6276 55.4379C58.6717 55.493 59.4879 56.2872 59.532 56.3424C59.7416 56.6292 60.3593 57.2248 60.1718 57.5226C59.7747 58.1513 58.429 56.4968 58.2195 56.2762L58.7268 56.927C59.1681 57.4233 59.4438 57.8425 59.0688 57.9969C58.6055 58.1955 57.6349 56.8277 57.2267 56.4196L57.2378 56.4086Z" fill="#F88667"/>
<path d="M69.9446 49.9669L72.9007 52.2171C72.9007 52.2171 83.4125 40.2162 82.6514 35.8703C81.4161 28.7227 78.5041 22.4244 76.6951 20.8802C75.9782 20.2735 73.4743 24.2113 74.6656 29.3624C74.6656 29.3624 76.7834 36.9623 76.651 37.7564C76.5186 38.5506 69.9336 49.9669 69.9336 49.9669H69.9446Z" fill="#2E2E2C"/>
<path d="M57.0618 51.3236L54.2601 53.1877C54.2601 53.1877 44.5976 41.2751 45.5573 36.9623C47.1346 29.8919 50.0686 23.9356 52.2305 22.281C52.9806 21.7075 56.6537 26.1085 56.4772 28.9433C56.4772 28.9433 51.3592 38.3521 51.4584 39.1463C51.5577 39.9404 57.0618 51.3236 57.0618 51.3236Z" fill="#2E2E2C"/>
</g>
<defs>
<clipPath id="clip0_123_3819">
<rect width="83.951" height="100" fill="white" transform="translate(0.0244141)"/>
</clipPath>
</defs>
</svg>
