<svg width="87" height="100" viewBox="0 0 87 100" fill="none" xmlns="http://www.w3.org/2000/svg">
<g clip-path="url(#clip0_123_4024)">
<path d="M46.1789 12.8251C46.059 16.7206 49.463 19.9808 53.778 20.1127C58.093 20.2445 61.7008 17.2001 61.8207 13.3166C61.9406 9.42108 58.5365 6.16086 54.2215 6.02901C49.9065 5.89717 46.2987 8.94163 46.1789 12.8251Z" fill="#161415"/>
<path d="M51.8961 9.07349L54.2334 9.1454L56.5707 9.21732C56.5707 9.21732 57.0502 15.6059 58.2368 16.409C58.2368 16.409 59.5073 23.9842 53.766 23.8044C46.826 23.5886 49.7746 16.1453 49.7746 16.1453C51.0211 15.4261 51.8961 9.07349 51.8961 9.07349Z" fill="#161415"/>
<path d="M49.7746 16.1333L49.8106 16.1692C52.2557 18.0511 55.6358 18.1589 58.1889 16.4329L58.2368 16.409C58.2368 16.409 64.5535 18.3747 67.586 20.5442C67.586 20.5442 66.0877 26.0937 65.812 32.2905L61.7247 46.2783L53.0588 46.4341L44.4168 45.7389L43.0025 39.4343C42.0436 35.1792 41.3963 30.8642 41.0607 26.5252C40.7491 22.39 40.0898 19.1658 40.0898 19.1658C43.2662 17.1881 49.7746 16.1453 49.7746 16.1453V16.1333Z" fill="#2E2E2C"/>
<path d="M67.5983 20.5442C67.5983 20.5442 68.701 21.1914 69.7558 24.2119C71.6136 29.5337 74.742 38.4874 74.2985 40.0575C74.1427 40.6209 64.374 46.0985 59.8912 45.1277L58.0693 44.7321C58.0693 44.7321 65.5367 20.3524 67.5983 20.5442Z" fill="#2E2E2C"/>
<path d="M64.5658 28.8985C64.398 28.0115 64.3261 27.1845 64.3381 26.4054C64.3381 26.4294 64.3141 26.4653 64.3021 26.4893C63.547 28.6468 62.4562 30.6485 60.7063 32.1108C60.1669 32.5542 59.6275 33.0097 59.0882 33.4532C56.9546 35.1912 53.9701 36.6535 51.1533 35.8744C50.9016 35.8025 50.6619 35.7306 50.4102 35.6347C50.3982 35.6347 50.3862 35.6227 50.3743 35.6227C48.7921 35.335 47.2699 34.508 46.0593 33.2614C44.573 31.7512 43.1227 30.169 41.8881 28.455C41.6963 28.6228 41.4926 28.7786 41.3008 28.9464C41.6004 31.871 42.0559 34.7717 42.6432 37.6603C42.847 38.2476 42.9788 38.8469 43.0148 39.4343L44.1774 44.6123C44.9805 44.7561 45.7236 44.804 46.3589 44.6962L46.5147 44.6722C46.6226 44.6962 46.7305 44.7321 46.8503 44.7441C50.0746 44.9599 53.5626 46.1225 56.7748 45.3314C57.3741 45.1876 57.9734 45.0078 58.5608 44.84L59.8912 45.1277C60.2748 45.2116 60.6943 45.2475 61.1378 45.2355C61.4614 44.7081 61.785 44.1808 62.1086 43.6414C62.2525 43.5934 62.4083 43.5335 62.5521 43.4856L62.8997 42.287C63.6549 40.9685 64.374 39.638 64.9134 38.3196C66.1599 35.2271 65.1651 31.9909 64.5658 28.8865V28.8985Z" fill="#161415"/>
<path d="M48.1204 10.2002C48.7916 9.48101 49.5348 10.6317 49.5348 10.6317C49.5348 10.6317 48.5998 6.38859 49.7265 4.56671C50.8532 2.75681 54.2932 3.83555 54.2932 3.83555C54.2932 3.83555 57.7932 2.97256 58.8 4.85437C59.8068 6.73619 58.6082 10.9193 58.6082 10.9193C58.6082 10.9193 59.4233 9.80463 60.0466 10.5717C60.6698 11.3388 58.8959 13.1607 58.5004 13.3765C58.5004 13.3765 55.8634 17.9672 53.8498 17.9072C51.8361 17.8473 49.4868 13.1008 49.4868 13.1008C49.1033 12.8611 47.4492 10.9313 48.1204 10.2002Z" fill="#F88667"/>
<path d="M55.1084 5.53757C55.1084 5.53757 57.7214 6.07695 57.9611 7.5033C58.0809 8.19849 57.9012 8.92964 57.7573 9.60086C57.6854 9.96044 57.3618 11.8662 57.4577 11.9142C57.5536 11.9621 57.7334 11.9142 57.8053 11.8662C58.1649 11.6025 58.4645 11.183 58.7282 10.8234C59.2556 10.1043 59.9628 10.2481 60.1545 10.7276C60.1545 10.7276 60.9576 3.82356 58.069 3.49994C55.1803 3.16433 55.1084 5.54956 55.1084 5.54956V5.53757Z" fill="#2E2E2C"/>
<path d="M53.3945 5.47765C53.3945 5.47765 50.7575 5.8612 50.4219 7.26358C50.2541 7.94679 50.3859 8.68992 50.4938 9.37313C50.5538 9.73271 50.7455 11.6625 50.6496 11.6984C50.5538 11.7464 50.374 11.6984 50.314 11.6265C49.9664 11.3389 49.7027 10.9074 49.463 10.5238C48.9836 9.78066 48.2644 9.87655 48.0487 10.332C48.0487 10.332 47.6771 3.39207 50.5777 3.24824C53.4784 3.09242 53.4064 5.47765 53.4064 5.47765H53.3945Z" fill="#2E2E2C"/>
<path d="M54.1134 8.76184C55.8753 8.80979 57.9849 8.66596 60.5259 8.13857L59.1955 10.9553C59.1955 10.9553 57.877 12.4895 56.2709 12.4296C55.5397 12.4056 55.1322 12.2138 54.8445 12.0101C54.3651 11.6625 53.6939 11.6385 53.1904 11.9621C52.8908 12.1539 52.4713 12.3097 51.7401 12.2858C50.134 12.2378 48.9114 10.6317 48.9114 10.6317L47.7607 7.74303C50.2658 8.42623 52.3514 8.70191 54.1254 8.76184H54.1134Z" fill="#161415"/>
<path d="M46.0586 16.0254C47.1374 18.0151 51.9917 23.253 53.7777 23.3369H53.7897C55.5876 23.3609 60.7536 18.4466 61.9642 16.5168C63.1628 14.5871 64.5652 11.5306 63.4385 7.87487C61.1611 0.38356 54.7366 -0.0239676 54.5208 4.62541e-06C54.317 -0.0359537 47.8805 -0.0359533 45.1237 7.29954C43.7813 10.8834 44.9799 14.0237 46.0586 16.0134V16.0254ZM47.5809 10.2122C47.9644 8.12658 53.0705 7.82693 54.2691 7.86288C55.4677 7.89884 60.5498 8.52212 60.8015 10.6317C61.0532 12.7053 54.0054 23.0133 53.7897 23.3369C53.5979 23.0013 47.2093 12.2738 47.5809 10.2241V10.2122Z" fill="#161415"/>
<path d="M73.5426 78.5449H13.4443V87.3667H73.5426V78.5449Z" fill="#020000"/>
<path d="M75.5683 36.6415H11.4427C9.40381 36.6415 7.75098 38.2943 7.75098 40.3332V80.8822C7.75098 82.9211 9.40381 84.5739 11.4427 84.5739H75.5683C77.6072 84.5739 79.26 82.9211 79.26 80.8822V40.3332C79.26 38.2943 77.6072 36.6415 75.5683 36.6415Z" fill="#161415"/>
<path d="M75.9638 39.8178H11.0352V80.9061H75.9638V39.8178Z" fill="#B9D2DB"/>
<path d="M66.9858 45.0797H14.1631V80.9062H66.9858V45.0797Z" fill="#2E2E2C"/>
<path d="M18.0352 46.9495C17.3999 46.9495 16.8965 47.4649 16.8965 48.0882C16.8965 48.7115 17.4119 49.2269 18.0352 49.2269C18.6584 49.2269 19.1738 48.7115 19.1738 48.0882C19.1738 47.4649 18.6584 46.9495 18.0352 46.9495Z" fill="white"/>
<path d="M21.8828 46.9495C21.2476 46.9495 20.7441 47.4649 20.7441 48.0882C20.7441 48.7115 21.2595 49.2269 21.8828 49.2269C22.5061 49.2269 23.0215 48.7115 23.0215 48.0882C23.0215 47.4649 22.5061 46.9495 21.8828 46.9495Z" fill="white"/>
<path d="M25.7295 46.9495C25.0942 46.9495 24.5908 47.4649 24.5908 48.0882C24.5908 48.7115 25.1062 49.2269 25.7295 49.2269C26.3528 49.2269 26.8682 48.7115 26.8682 48.0882C26.8682 47.4649 26.3528 46.9495 25.7295 46.9495Z" fill="white"/>
<path d="M62.707 46.9495C62.0718 46.9495 61.5684 47.4649 61.5684 48.0882C61.5684 48.7115 62.0838 49.2269 62.707 49.2269C63.3303 49.2269 63.8457 48.7115 63.8457 48.0882C63.8457 47.4649 63.3303 46.9495 62.707 46.9495Z" fill="white"/>
<path d="M64.2416 50.9409H16.8965V80.9062H64.2416V50.9409Z" fill="#FFB600"/>
<path d="M0.775391 97.375V98.6815C0.775391 99.4007 1.56647 100 2.53735 100H84.4623C85.4332 100 86.2243 99.4127 86.2243 98.6815V97.375H0.775391Z" fill="#020000"/>
<path d="M43.4934 87.2708H8.42206C8.3022 87.3906 2.7886 92.3289 1.11054 95.9966C0.391377 97.5668 0.858834 98.3939 2.20128 98.3939H84.7975C86.1399 98.3939 86.6074 97.5668 85.8882 95.9966C84.1982 92.3289 78.6965 87.3906 78.5767 87.2708H43.5054H43.4934Z" fill="#161415"/>
<path d="M81.789 96.512H7.05566L12.2337 88.841H76.611L81.789 96.512Z" fill="#898989"/>
<path d="M80.8785 95.1696L80.7107 94.9299H75.7245L74.8015 93.072H79.4641L79.2963 92.8323H74.6817L73.7588 90.9745H78.0498L77.882 90.7347H73.6389L72.704 88.8529H72.2725L73.1954 90.7347H67.8616L67.1185 88.8529H66.687L67.4181 90.7347H62.0843L61.5329 88.8529H61.1014L61.6408 90.7347H56.307L55.9354 88.8529H55.5039L55.8515 90.7347H50.5177L50.3379 88.8529H49.9064L50.0622 90.7347H44.9921V88.8529H44.5127V90.7347H39.2628L39.4186 88.8529H38.9871L38.8073 90.7347H33.4735L33.8211 88.8529H33.3896L33.018 90.7347H27.6842L28.2236 88.8529H27.7921L27.2407 90.7347H21.9069L22.638 88.8529H22.2065L21.4634 90.7347H16.1296L17.0525 88.8529H16.621L15.6861 90.7347H10.9756L10.8078 90.9745H15.5543L14.6313 92.8323H9.54923L9.38142 93.072H14.4995L13.5766 94.9299H8.12288L7.95508 95.1696H13.4447L12.7735 96.512H13.2649L13.9242 95.1696H19.6775L19.1381 96.512H19.6295L20.1569 95.1696H25.9103L25.5147 96.512H26.0061L26.3897 95.1696H32.143L31.8793 96.512H32.3708L32.6225 95.1696H38.3758L38.2559 96.512H38.7474L38.8672 95.1696H44.5007V96.512H44.9801V95.1696H50.4218L50.5417 96.512H51.0331L50.9133 95.1696H56.6666L56.9183 96.512H57.4097L57.146 95.1696H62.8994L63.2829 96.512H63.7743L63.3788 95.1696H69.1321L69.6595 96.512H70.1509L69.6116 95.1696H75.3649L76.0241 96.512H76.5155L75.8443 95.1696H80.8785ZM21.811 90.9745H27.1688L26.6174 92.8323H21.0799L21.799 90.9745H21.811ZM15.9977 90.9745H21.3555L20.6124 92.8323H15.0748L15.9858 90.9745H15.9977ZM19.7854 94.9299H14.056L14.9669 93.072H20.5285L19.7854 94.9299ZM25.9942 94.9299H20.2648L20.984 93.072H26.5455L25.9942 94.9299ZM32.203 94.9299H26.4736L27.013 93.072H32.5745L32.2149 94.9299H32.203ZM32.6105 92.8323H27.0729L27.6123 90.9745H32.9701L32.6105 92.8323ZM38.4118 94.9299H32.6824L33.03 93.072H38.5915L38.4237 94.9299H38.4118ZM38.6035 92.8323H33.066L33.4135 90.9745H38.7713L38.6035 92.8323ZM44.5007 94.9299H38.8912L39.047 93.072H44.5007V94.9299ZM44.5007 92.8323H39.071L39.2268 90.9745H44.5007V92.8323ZM44.9801 90.9745H50.0622L50.2181 92.8323H44.9681V90.9745H44.9801ZM44.9801 94.9299V93.072H50.242L50.3979 94.9299H44.9681H44.9801ZM73.3033 90.9745L74.2142 92.8323H68.6767L67.9335 90.9745H73.2913H73.3033ZM67.49 90.9745L68.2092 92.8323H62.6716L62.1203 90.9745H67.478H67.49ZM50.5177 90.9745H55.8755L56.2231 92.8323H50.6855L50.5177 90.9745ZM50.8893 94.9299L50.7215 93.072H56.283L56.6306 94.9299H50.9013H50.8893ZM56.331 90.9745H61.6888L62.2281 92.8323H56.6906L56.331 90.9745ZM57.0981 94.9299L56.7385 93.072H62.3L62.8394 94.9299H57.1101H57.0981ZM63.3069 94.9299L62.7555 93.072H68.3171L69.0362 94.9299H63.3069ZM69.5157 94.9299L68.7725 93.072H74.3341L75.245 94.9299H69.5157Z" fill="#3C3A3B"/>
<path d="M43.4931 98.3819H39.8613C39.8613 98.3819 39.8613 98.7055 40.0411 98.8853C40.113 98.9572 40.2089 98.9932 40.3168 98.9932H46.6694C46.7773 98.9932 46.8732 98.9572 46.9451 98.8853C47.1369 98.7055 47.1249 98.3939 47.1249 98.3819H43.4931Z" fill="#898989"/>
<path d="M56.1147 59.6188H23.0811V77.4182H56.1147V59.6188Z" fill="white"/>
<path d="M53.8969 62.5554H25.2861V67.254H53.8969V62.5554Z" fill="#F51253"/>
<path d="M53.8969 69.7831H25.2861V74.4816H53.8969V69.7831Z" fill="#F51253"/>
<path d="M27.803 64.0657H27.2637V65.7437H28.666V65.3122H27.803V64.0657Z" fill="white"/>
<path d="M29.6844 64.0297C29.109 64.0297 28.7734 64.3294 28.7734 64.9047C28.7734 65.48 29.109 65.7797 29.6844 65.7797C30.2597 65.7797 30.5953 65.48 30.5953 64.9047C30.5953 64.3294 30.2597 64.0297 29.6844 64.0297ZM30.044 64.9766C30.044 65.2044 29.9241 65.3602 29.6844 65.3602C29.4447 65.3602 29.3248 65.2044 29.3248 64.9766V64.8208C29.3248 64.5931 29.4447 64.4372 29.6844 64.4372C29.9241 64.4372 30.044 64.5931 30.044 64.8208V64.9766Z" fill="white"/>
<path d="M31.7464 64.4372C31.9142 64.4372 32.0581 64.5331 32.0581 64.677H32.5735C32.5735 64.2575 32.1899 64.0417 31.7225 64.0417C31.1351 64.0417 30.8115 64.3414 30.8115 64.9167C30.8115 65.492 31.0872 65.7917 31.6506 65.7917C31.9023 65.7917 32.106 65.7198 32.2499 65.5999L32.2978 65.7677H32.5735V64.8328H31.6745V65.1804H32.0581C32.0581 65.3122 31.9142 65.4081 31.7464 65.4081C31.4947 65.4081 31.3629 65.2643 31.3629 65.0246V64.8687C31.3629 64.629 31.4947 64.4852 31.7464 64.4852V64.4372Z" fill="white"/>
<path d="M33.4847 64.0657H32.9453V65.7437H33.4847V64.0657Z" fill="white"/>
<path d="M35.0428 64.8927L34.3356 64.0657H33.8682V65.7437H34.3596V64.9287L35.0668 65.7437H35.5342V64.0657H35.0428V64.8927Z" fill="white"/>
<path d="M37.5359 64.629L37.2842 64.8088L37.3202 64.5092H37.0924L37.1164 64.8088L36.8767 64.629L36.7568 64.8328L37.0325 64.9526L36.7568 65.0845L36.8767 65.2763L37.1164 65.1085L37.0924 65.4081H37.3202L37.2842 65.1085L37.5359 65.2763L37.6558 65.0845L37.3801 64.9526L37.6558 64.8328L37.5359 64.629Z" fill="white"/>
<path d="M38.8904 64.629L38.6507 64.8088L38.6747 64.5092H38.4469L38.4829 64.8088L38.2312 64.629L38.1113 64.8328L38.387 64.9526L38.1113 65.0845L38.2312 65.2763L38.4829 65.1085L38.4469 65.4081H38.6747L38.6507 65.1085L38.8904 65.2763L39.0103 65.0845L38.7346 64.9526L39.0103 64.8328L38.8904 64.629Z" fill="white"/>
<path d="M40.2446 64.629L40.0049 64.8088L40.0289 64.5092H39.8012L39.8371 64.8088L39.5854 64.629L39.4775 64.8328L39.7412 64.9526L39.4775 65.0845L39.5854 65.2763L39.8371 65.1085L39.8012 65.4081H40.0289L40.0049 65.1085L40.2446 65.2763L40.3645 65.0845L40.0888 64.9526L40.3645 64.8328L40.2446 64.629Z" fill="white"/>
<path d="M41.5991 64.629L41.3594 64.8088L41.3834 64.5092H41.1557L41.1916 64.8088L40.9399 64.629L40.832 64.8328L41.1077 64.9526L40.832 65.0845L40.9399 65.2763L41.1916 65.1085L41.1557 65.4081H41.3834L41.3594 65.1085L41.5991 65.2763L41.719 65.0845L41.4433 64.9526L41.719 64.8328L41.5991 64.629Z" fill="white"/>
<path d="M42.9656 64.629L42.7139 64.8088L42.7379 64.5092H42.5221L42.5461 64.8088L42.2944 64.629L42.1865 64.8328L42.4622 64.9526L42.1865 65.0845L42.2944 65.2763L42.5461 65.1085L42.5221 65.4081H42.7379L42.7139 65.1085L42.9656 65.2763L43.0735 65.0845L42.7978 64.9526L43.0735 64.8328L42.9656 64.629Z" fill="white"/>
<path d="M44.3201 64.629L44.0684 64.8088L44.1044 64.5092H43.8766L43.9006 64.8088L43.6609 64.629L43.541 64.8328L43.8167 64.9526L43.541 65.0845L43.6609 65.2763L43.9006 65.1085L43.8766 65.4081H44.1044L44.0684 65.1085L44.3201 65.2763L44.428 65.0845L44.1643 64.9526L44.428 64.8328L44.3201 64.629Z" fill="white"/>
<path d="M45.6746 64.629L45.4229 64.8088L45.4589 64.5092H45.2311L45.2551 64.8088L45.0154 64.629L44.8955 64.8328L45.1712 64.9526L44.8955 65.0845L45.0154 65.2763L45.2551 65.1085L45.2311 65.4081H45.4589L45.4229 65.1085L45.6746 65.2763L45.7825 65.0845L45.5188 64.9526L45.7825 64.8328L45.6746 64.629Z" fill="white"/>
<path d="M47.0291 64.629L46.7774 64.8088L46.8133 64.5092H46.5856L46.6096 64.8088L46.3699 64.629L46.25 64.8328L46.5257 64.9526L46.25 65.0845L46.3699 65.2763L46.6096 65.1085L46.5856 65.4081H46.8133L46.7774 65.1085L47.0291 65.2763L47.149 65.0845L46.8733 64.9526L47.149 64.8328L47.0291 64.629Z" fill="white"/>
<path d="M48.3836 64.629L48.1439 64.8088L48.1678 64.5092H47.9401L47.9761 64.8088L47.7244 64.629L47.6045 64.8328L47.8802 64.9526L47.6045 65.0845L47.7244 65.2763L47.9761 65.1085L47.9401 65.4081H48.1678L48.1439 65.1085L48.3836 65.2763L48.5034 65.0845L48.2278 64.9526L48.5034 64.8328L48.3836 64.629Z" fill="white"/>
<path d="M49.7378 64.629L49.4981 64.8088L49.5221 64.5092H49.2943L49.3303 64.8088L49.0786 64.629L48.9707 64.8328L49.2344 64.9526L48.9707 65.0845L49.0786 65.2763L49.3303 65.1085L49.2943 65.4081H49.5221L49.4981 65.1085L49.7378 65.2763L49.8577 65.0845L49.582 64.9526L49.8577 64.8328L49.7378 64.629Z" fill="white"/>
<path d="M51.0923 64.629L50.8526 64.8088L50.8766 64.5092H50.6488L50.6848 64.8088L50.4331 64.629L50.3252 64.8328L50.5889 64.9526L50.3252 65.0845L50.4331 65.2763L50.6848 65.1085L50.6488 65.4081H50.8766L50.8526 65.1085L51.0923 65.2763L51.2122 65.0845L50.9365 64.9526L51.2122 64.8328L51.0923 64.629Z" fill="white"/>
<path d="M28.2106 71.2933C28.5222 71.2933 28.7499 71.533 28.7499 71.8447V71.8806C28.7499 72.2042 28.5342 72.432 28.2106 72.432H27.803V72.9714H27.2637V71.2933H28.2106ZM27.803 71.6888V72.0364H28.0308C28.1506 72.0364 28.1986 71.9765 28.1986 71.8686V71.8447C28.1986 71.7488 28.1506 71.6769 28.0308 71.6769H27.803V71.6888Z" fill="white"/>
<path d="M30.5239 72.9714H29.9485L29.8766 72.7316H29.2893L29.2174 72.9714H28.666L29.2773 71.2933H29.9006L30.5119 72.9714H30.5239ZM29.5889 71.7608L29.4092 72.3601H29.7687L29.5889 71.7608Z" fill="white"/>
<path d="M32.1658 71.7847V71.8087H31.6624C31.6624 71.7128 31.6024 71.6289 31.4466 71.6289C31.2908 71.6289 31.2189 71.6769 31.2189 71.7368C31.2189 71.9885 32.2017 71.7967 32.2137 72.408C32.2137 72.8275 31.8901 72.9953 31.4706 72.9953C31.0031 72.9953 30.6436 72.8755 30.6436 72.396H31.159C31.159 72.5758 31.2668 72.6118 31.4346 72.6118C31.5305 72.6118 31.6744 72.6118 31.6744 72.5039C31.6744 72.2642 30.6795 72.456 30.6795 71.7967C30.6795 71.4012 31.0391 71.2573 31.4346 71.2573C31.8302 71.2573 32.1658 71.4132 32.1778 71.7727L32.1658 71.7847Z" fill="white"/>
<path d="M33.9275 71.7847V71.8087H33.4241C33.4241 71.7128 33.3642 71.6289 33.2083 71.6289C33.0525 71.6289 32.9806 71.6769 32.9806 71.7368C32.9806 71.9885 33.9635 71.7967 33.9755 72.408C33.9755 72.8275 33.6518 72.9953 33.2323 72.9953C32.7649 72.9953 32.4053 72.8755 32.4053 72.396H32.9207C32.9207 72.5758 33.0286 72.6118 33.1964 72.6118C33.2922 72.6118 33.4361 72.6118 33.4361 72.5039C33.4361 72.2642 32.4412 72.456 32.4412 71.7967C32.4412 71.4012 32.8008 71.2573 33.1964 71.2573C33.5919 71.2573 33.9275 71.4132 33.9395 71.7727L33.9275 71.7847Z" fill="white"/>
<path d="M36.0974 72.9714H35.5101L35.2943 71.9525L35.0786 72.9714H34.4912L34.0957 71.2933H34.6591L34.8508 72.2402L35.0426 71.2933H35.57L35.7738 72.2402L35.9535 71.2933H36.4929L36.0974 72.9714Z" fill="white"/>
<path d="M38.3863 72.1323C38.3863 72.7077 38.0507 73.0073 37.4754 73.0073C36.9001 73.0073 36.5645 72.7077 36.5645 72.1323C36.5645 71.557 36.9001 71.2573 37.4754 71.2573C38.0507 71.2573 38.3863 71.557 38.3863 72.1323ZM37.1278 72.0484V72.2042C37.1278 72.432 37.2477 72.5878 37.4874 72.5878C37.7271 72.5878 37.847 72.432 37.847 72.2042V72.0484C37.847 71.8207 37.7271 71.6649 37.4874 71.6649C37.2477 71.6649 37.1278 71.8207 37.1278 72.0484Z" fill="white"/>
<path d="M39.9446 72.2642L40.3162 72.9714H39.7049L39.4052 72.3601H39.2015V72.9714H38.6621V71.2933H39.6929C40.0645 71.2933 40.2563 71.533 40.2563 71.8087C40.2563 72.0005 40.1484 72.1923 39.9326 72.2762L39.9446 72.2642ZM39.5731 71.6649H39.2135V71.9765H39.5731C39.657 71.9765 39.7289 71.9166 39.7289 71.8207C39.7289 71.7248 39.657 71.6649 39.5731 71.6649Z" fill="white"/>
<path d="M41.2995 71.2933C41.8748 71.2933 42.1865 71.557 42.1865 72.1323C42.1865 72.7077 41.8748 72.9714 41.2995 72.9714H40.5684V71.2933H41.2995ZM41.1077 71.7008V72.5758H41.2875C41.5272 72.5758 41.6231 72.444 41.6231 72.2162V72.0724C41.6231 71.8447 41.5153 71.7128 41.2875 71.7128H41.1077V71.7008Z" fill="white"/>
<path d="M43.8521 71.9765L44.1039 71.8087L44.2237 72.0005L43.948 72.1323L44.2237 72.2522L44.1039 72.444L43.8521 72.2762L43.8761 72.5758H43.6484L43.6724 72.2762L43.4206 72.444L43.3008 72.2522L43.5765 72.1323L43.3008 72.0005L43.4206 71.8087L43.6724 71.9765L43.6484 71.6768H43.8761L43.8521 71.9765Z" fill="white"/>
<path d="M45.2193 71.9765L45.471 71.8087L45.5909 72.0005L45.3152 72.1323L45.5909 72.2522L45.471 72.444L45.2193 72.2762L45.2433 72.5758H45.0156L45.0395 72.2762L44.7878 72.444L44.668 72.2522L44.9436 72.1323L44.668 72.0005L44.7878 71.8087L45.0395 71.9765L45.0156 71.6768H45.2433L45.2193 71.9765Z" fill="white"/>
<path d="M46.5728 71.9765L46.8246 71.8087L46.9444 72.0005L46.6687 72.1323L46.9444 72.2522L46.8246 72.444L46.5728 72.2762L46.5968 72.5758H46.3691L46.3931 72.2762L46.1413 72.444L46.0215 72.2522L46.2972 72.1323L46.0215 72.0005L46.1413 71.8087L46.3931 71.9765L46.3691 71.6768H46.5968L46.5728 71.9765Z" fill="white"/>
<path d="M47.9273 71.9765L48.179 71.8087L48.2989 72.0005L48.0232 72.1323L48.2989 72.2522L48.179 72.444L47.9273 72.2762L47.9513 72.5758H47.7236L47.7475 72.2762L47.4958 72.444L47.376 72.2522L47.6517 72.1323L47.376 72.0005L47.4958 71.8087L47.7475 71.9765L47.7236 71.6768H47.9513L47.9273 71.9765Z" fill="white"/>
<path d="M49.2818 71.9765L49.5335 71.8087L49.6534 72.0005L49.3777 72.1323L49.6534 72.2522L49.5335 72.444L49.2818 72.2762L49.3058 72.5758H49.0781L49.102 72.2762L48.8503 72.444L48.7305 72.2522L49.0062 72.1323L48.7305 72.0005L48.8503 71.8087L49.102 71.9765L49.0781 71.6768H49.3058L49.2818 71.9765Z" fill="white"/>
<path d="M50.6363 71.9765L50.888 71.8087L51.0079 72.0005L50.7322 72.1323L51.0079 72.2522L50.888 72.444L50.6363 72.2762L50.6603 72.5758H50.4326L50.4565 72.2762L50.2048 72.444L50.085 72.2522L50.3606 72.1323L50.085 72.0005L50.2048 71.8087L50.4565 71.9765L50.4326 71.6768H50.6603L50.6363 71.9765Z" fill="white"/>
<path d="M35.6057 59.5949H36.0732C36.2889 58.9117 36.277 58.3004 36.277 58.2644V52.3193H35.8335V58.2764C35.8335 58.2764 35.8335 58.9356 35.5938 59.5949H35.6057Z" fill="#2E2E2C"/>
<path d="M34.3956 60.9133C34.1679 60.9972 33.9162 61.0332 33.6405 61.0332C33.0412 61.0332 32.5857 60.8654 32.2501 60.5298C31.6508 59.9305 31.5309 58.8637 31.507 57.8928L31.9265 58.0247L31.0635 56.023V56.862V57.1257C31.0635 58.3124 31.0515 59.9425 31.9385 60.8414C32.358 61.2609 32.9333 61.4767 33.6405 61.4767C33.9162 61.4767 34.1679 61.4287 34.3956 61.3688V60.9133Z" fill="#2E2E2C"/>
<path d="M36.05 52.9426C36.3943 52.9426 36.6733 52.6635 36.6733 52.3193C36.6733 51.9751 36.3943 51.696 36.05 51.696C35.7058 51.696 35.4268 51.9751 35.4268 52.3193C35.4268 52.6635 35.7058 52.9426 36.05 52.9426Z" fill="#2E2E2C"/>
<path d="M36.2777 39.8178H35.8223V51.744H36.2777V39.8178Z" fill="#2E2E2C"/>
<path d="M34.9837 47.7646C34.8998 47.7047 34.1446 47.0814 34.0727 47.0095C34.4802 47.3211 35.2234 47.441 35.523 47.393C36.2302 47.2732 37.273 46.4341 36.5778 46.0146C36.3261 45.8588 35.3672 46.4581 34.7919 46.1824C34.2525 45.9307 33.4375 45.6071 33.797 44.9359C34.0487 44.4684 34.708 45.0917 34.8878 45.2595C35.3193 45.6431 35.9066 45.715 36.0504 45.7989C36.398 46.0146 36.6737 45.4872 36.2182 44.9598C35.8706 44.5643 35.3313 44.0729 34.7679 43.6893C34.3244 43.3897 33.7371 43.3058 33.2337 43.114C32.2269 42.7424 31.0283 42.6465 30.0694 41.9154C29.7218 42.6106 29.2184 41.2202 28.667 41.7715C28.8588 42.0952 29.2543 43.6773 29.5659 44.864C29.7817 45.715 30.3331 46.4461 30.6807 47.2132C30.9324 47.7526 31.7834 48.7235 32.071 49.0471C32.2748 49.2748 33.1977 50.1738 33.3416 49.8861C33.6412 49.2988 32.3707 48.28 32.1669 47.8725C32.3947 48.0762 32.8501 48.7475 33.3775 49.167C33.9768 49.6584 34.6241 49.994 34.8878 49.8502C35.547 49.4906 34.696 49.0711 34.1327 48.5677C33.821 48.292 33.4854 47.9564 33.3655 47.7886C33.809 48.1362 35.8706 49.9221 36.422 49.0711C36.7936 48.4957 35.4272 48.0882 34.9717 47.7646H34.9837Z" fill="#F88667"/>
<path d="M36.2777 44.5164H35.8223V46.0146H36.2777V44.5164Z" fill="#2E2E2C"/>
<path d="M33.4133 42.8023L29.2062 45.0677C29.2062 45.0677 22.2902 32.8898 25.011 28.5509C26.8329 25.6502 37.2608 20.5202 40.1255 19.1538C41.1204 18.6863 43.5296 27.2684 42.6426 30.4447C42.6426 30.4447 31.2798 31.5114 31.1959 32.4464C31.112 33.3813 33.4133 42.8023 33.4133 42.8023Z" fill="#2E2E2C"/>
</g>
<defs>
<clipPath id="clip0_123_4024">
<rect width="85.4489" height="100" fill="white" transform="translate(0.775391)"/>
</clipPath>
</defs>
</svg>
