<svg width="81" height="100" viewBox="0 0 81 100" fill="none" xmlns="http://www.w3.org/2000/svg">
<g clip-path="url(#clip0_123_3922)">
<path d="M51.3509 21.4084C51.3509 21.4084 49.2165 6.02383 23.5502 7.94149C-2.12692 9.85915 -4.64046 34.1928 5.85791 45.6013C16.3671 57.0097 42.976 50.0108 46.7247 35.9805C48.7723 28.3315 51.34 21.4084 51.34 21.4084H51.3509Z" fill="#B9D2DB"/>
<path d="M34.4274 26.3922C29.1078 30.6392 23.6582 34.2037 16.5401 32.9252C9.87705 31.7226 4.78496 27.3889 1.79471 21.5168C-1.65058 29.6208 0.223742 39.48 5.86838 45.6121C16.3776 57.0206 42.9865 50.0217 46.7351 35.9913C48.2627 30.2925 50.0721 25.0162 50.8955 22.6761C48.5661 22.4269 45.9551 21.2893 41.8272 21.2676C38.6636 21.2568 36.0201 25.1246 34.4383 26.3922H34.4274Z" fill="#92B9C7"/>
<path d="M62.1527 6.24052C62.1527 6.24052 62.0986 18.169 58.5233 20.9751C54.948 23.7811 45.9555 17.1181 48.3066 7.25894C50.6576 -2.60022 61.3077 0.953413 62.1527 6.24052Z" fill="#161415"/>
<path d="M65.7167 35.4388C66.7568 33.7812 66.1826 31.9718 65.7709 30.1409C64.9583 28.3857 63.9724 26.6631 61.7405 23.1094L58.8695 22.5244L57.2227 30.1842C57.2227 30.1842 59.9854 33.8678 62.3581 36.8689C63.6582 37.0531 64.8608 36.8147 65.7275 35.4388H65.7167Z" fill="#2E2E2C"/>
<path d="M64.3624 36.6522C63.9616 35.5038 64.2974 36.1863 63.5499 35.2004C63.1165 34.6262 62.8023 33.9437 62.5098 33.2936C62.3256 32.8927 60.7113 29.8158 60.3429 29.0357C60.0071 28.3207 59.6712 27.7248 59.1728 27.1181C58.5878 28.169 57.8727 29.1658 57.2227 30.1733C57.2227 30.1733 63.279 38.2557 65.1533 40.2383C65.2725 39.7616 65.3808 39.2849 65.5 38.8082C65.0991 38.104 64.6441 37.4106 64.3733 36.6522H64.3624Z" fill="#161415"/>
<path d="M67.0606 93.4886C67.0606 93.4886 66.8006 95.4171 67.0822 96.8039C67.3531 98.2015 67.754 99.6533 68.2523 99.9242C69.2491 100.455 80.0617 98.3749 80.7334 97.2048C81.4159 96.0347 80.5059 94.5395 78.1007 94.4312C75.533 94.3229 75.2404 94.6479 73.5828 94.377C71.9252 94.0953 71.9468 92.2969 71.9468 92.2969L67.0606 93.4995V93.4886Z" fill="#161415"/>
<path d="M16.5401 76.6089C16.5401 76.6089 14.6983 75.9913 13.279 76.0022C11.8597 76.0022 10.3537 76.1213 9.99622 76.5655C9.29199 77.4431 9.29199 88.4507 10.3212 89.3391C11.3505 90.2275 12.9865 89.61 13.539 87.2806C14.1241 84.7779 13.864 84.4312 14.4491 82.8494C15.0341 81.2676 16.8001 81.636 16.8001 81.636L16.5401 76.6089Z" fill="#161415"/>
<path d="M54.7314 46.3922L39.5635 51.4409C39.5635 51.4409 60.7444 70.3359 62.402 73.4778C64.0597 76.6197 66.3565 95.0487 66.3565 95.0487L72.9438 93.727C72.9438 93.727 70.051 72.0043 69.401 70.455C68.7509 68.9057 54.7314 46.403 54.7314 46.403V46.3922Z" fill="#161415"/>
<path d="M40.4304 47.6815C40.4304 47.6815 37.1368 52.156 36.9526 56.208C36.7684 60.26 34.8833 69.0574 34.4066 70.4659C34.114 71.3326 22.1964 74.7887 16.1184 76.0455C16.0642 77.7248 16.3025 82.6869 16.3025 82.6869C20.4521 82.0693 38.5994 79.6641 39.7912 78.0715C40.4629 77.1614 45.0783 68.8299 49.1086 62.6436C53.2148 56.338 56.7467 52.1885 56.7467 52.1885L40.4196 47.6706L40.4304 47.6815Z" fill="#161415"/>
<path d="M58.9996 13.6945C57.6128 13.6403 56.2152 13.3586 54.9693 12.9577C54.5142 12.8061 54.0592 12.5894 53.6367 12.3294C53.3225 14.0087 52.4341 17.909 50.8848 19.2524C50.8848 19.2524 50.8739 21.2676 54.3192 22.1127C57.7645 22.9577 58.7504 20.4442 58.7504 20.4442C58.7504 20.4442 58.5012 16.1647 58.9996 13.6945Z" fill="#E45940"/>
<path d="M55.0234 2.88191C55.0234 2.88191 61.0906 2.73023 61.6215 4.33369C62.1524 5.93716 61.4048 8.09317 61.5131 9.15493C61.6215 10.2275 62.7482 11.6143 62.7916 12.0477C62.8349 12.4702 61.5565 12.9252 61.3181 13.1853C61.0798 13.4453 59.6713 16.4789 58.5012 16.9122C57.342 17.3564 52.6074 14.0845 51.9682 11.2676C51.3398 8.4507 53.2899 3.28277 55.0126 2.88191H55.0234Z" fill="#F88667"/>
<path d="M58.8158 19.8592C58.8158 19.8592 49.9751 19.7941 46.8874 16.9989C46.8874 16.9989 44.9372 19.1441 44.1246 19.3824C43.4529 19.5775 43.2145 28.9274 42.0119 33.4019C40.8093 37.8765 37.7324 48.4724 37.7324 48.4724C37.7324 48.4724 44.9047 55.2546 58.6642 52.8494C58.6642 52.8494 60.1051 37.7573 59.9101 33.4345C59.7584 29.9892 59.4226 28.7649 59.5526 27.1398C59.7476 24.7129 61.7519 23.0878 61.7519 23.0878C61.7519 23.0878 60.3868 21.3651 58.8267 19.8483L58.8158 19.8592Z" fill="#2E2E2C"/>
<path d="M46.5191 43.8787C46.1832 41.4301 46.0099 39.0574 46.6816 36.6197C47.4075 33.987 45.8474 30.26 45.7715 27.5081C45.6848 24.5504 45.5873 22.546 43.843 20.7367C43.6913 23.4995 42.9546 29.7075 42.0229 33.1744C40.8203 37.649 37.7217 48.4724 37.7217 48.4724C37.7217 48.4724 42.2829 52.7519 51.0695 53.2936C47.83 50.8559 47.0825 47.9415 46.5191 43.8678V43.8787Z" fill="#161415"/>
<path d="M57.3204 4.23619C57.3204 4.23619 57.1254 5.66631 55.9444 6.97725C55.4244 7.5623 56.627 9.79415 55.9444 10.4875C55.4894 10.9426 55.0669 10.6826 54.9477 9.50163C54.9043 9.10076 54.5685 8.7324 54.2435 8.48321C53.03 7.51896 52.1416 9.53413 53.2142 10.4875C53.9618 11.1593 52.8567 13.2069 52.8567 13.2069C51.7408 13.6728 48.9022 11.9935 49.8448 9.84832C50.4406 8.48321 50.679 7.96317 50.2781 7.48646C49.5414 6.61972 48.8372 4.56122 50.7223 3.47779C53.3117 1.9935 51.6216 0.845072 54.146 0.888409C56.6703 0.931746 58.2413 2.90358 57.3204 4.24702V4.23619Z" fill="#161415"/>
<path d="M61.6545 7.48646C61.6111 7.74648 61.427 7.99567 61.427 7.99567C60.7227 6.7389 57.5266 6.90141 55.8907 7.09643C55.3056 7.67065 56.0532 8.85158 56.0532 8.85158C56.0532 8.85158 57.3208 9.82666 58.5559 10.0217C60.7336 10.3792 61.1778 9.62081 61.1778 9.62081C61.3728 9.76165 61.6436 9.68581 61.6436 9.68581C62.0445 8.20152 61.6545 7.48646 61.6545 7.48646Z" fill="#161415"/>
<path d="M57.5158 22.5135C57.5158 22.5135 50.6252 12.3944 54.9806 7.34561C58.3933 3.39112 61.7953 6.98808 61.7953 6.98808C61.7953 6.98808 63.8213 4.65872 59.1301 1.6143C56.0748 -0.368361 51.3186 -1.53846 47.1149 4.44204C45.8148 6.28386 44.3522 12.4485 45.3814 16.3922C45.7715 17.8657 52.8354 22.4919 57.5049 22.5244L57.5158 22.5135Z" fill="#161415"/>
<path d="M58.7074 17.454C58.7074 17.454 59.5958 20.455 57.5156 22.5135C57.5156 22.5135 60.3109 20.8776 60.8201 16.7822L58.7074 17.454Z" fill="#161415"/>
<path d="M50.3647 26.7064C50.8956 26.9339 51.4806 27.0206 51.979 27.4323C52.5857 27.9307 55.4243 35.6771 53.68 34.9296C53.3983 35.0704 53.3441 35.5796 53.0516 35.6663C52.7049 35.7638 52.5749 35.1463 52.2173 35.3304C51.9573 35.4713 51.8923 35.9588 51.5889 36.0997C51.3289 36.2297 50.863 36.1647 50.603 36.0347C49.7688 35.623 49.8013 34.4204 49.8771 33.5428C50.0071 32.091 50.0288 29.9892 49.9746 28.7216C49.9638 28.3965 50.0071 28.1473 49.9205 27.8332C49.8663 27.6381 49.6171 27.2589 49.693 27.0639L50.3647 26.6956V26.7064Z" fill="#B9D2DB"/>
<path d="M55.3919 34.1278C56.692 33.6186 57.1362 31.8743 56.9845 30.6826C56.8654 29.7183 55.9444 29.4041 54.6227 28.8841C53.7234 28.5374 52.8675 28.2449 52.51 28.4074C51.3832 29.2741 54.4602 30.195 55.186 30.5959C55.186 30.5959 52.055 29.2416 51.6108 29.7291C50.809 30.6609 53.8318 31.4843 54.5468 31.8202C53.8859 31.4193 52.575 31.0184 52.3366 31.1051C51.7516 30.9426 51.7408 31.4193 51.7733 31.5493C51.9466 32.1885 54.406 32.8927 54.406 32.8927C53.9726 32.7627 52.4558 31.9718 52.5858 32.7736C52.6725 33.2936 53.3551 33.5211 53.7018 33.7161C54.3735 34.0953 55.0885 34.2362 55.3811 34.117L55.3919 34.1278Z" fill="#F88667"/>
<path d="M54.6332 30.8126C54.0915 30.4225 53.474 31.2351 53.0406 31.3868C53.5498 30.9642 55.3158 30.1733 55.1316 29.6316C54.9908 29.1983 54.5249 29.2958 54.0265 29.5341C54.2974 29.3174 55.2074 28.364 54.6982 28.0932C54.3515 27.909 53.7773 28.3749 53.4415 28.5915C53.3765 28.6349 53.3223 28.6782 53.2573 28.7216C53.4415 28.5049 53.5715 28.2882 53.5715 28.0715C53.5498 27.0423 52.4772 28.0173 52.033 28.364C51.5563 28.7324 50.7004 29.8917 50.0829 29.4366C49.8553 29.2633 49.8987 29.3608 49.9853 29.0791C50.0937 28.2557 49.9853 27.9632 49.9312 27.8548C49.4653 27.9957 49.0861 28.5049 48.9778 28.7324C48.7502 29.2199 48.7719 29.1008 48.5119 29.5883C48.0135 30.52 47.2876 31.5168 46.7676 32.4485C46.9626 32.6327 47.1251 32.8386 47.2551 33.0878L47.2876 33.1419C47.2876 33.1419 47.331 33.1961 47.3418 33.2286C47.4501 33.3803 47.5693 33.532 47.6885 33.6836C47.8618 33.8895 48.046 34.0953 48.2302 34.3012C48.8261 34.1062 49.4436 33.9545 50.0829 33.7811C50.9388 33.5536 51.3396 33.0553 52.1089 32.6869C52.4664 32.5135 52.7264 32.416 52.9973 32.221C53.344 31.9718 53.7773 31.8093 54.1457 31.571C54.4057 31.3976 54.9149 31.0184 54.6441 30.8342L54.6332 30.8126Z" fill="#F88667"/>
<path d="M47.017 31.1484C47.017 31.1484 42.1632 33.7595 41.9249 34.2037C41.9249 34.2037 44.731 28.8732 45.8902 27.9198C47.8079 26.3489 47.3312 19.0141 44.2434 19.3716C43.6692 19.4366 40.6031 22.221 39.2597 24.2037C34.4168 31.3651 31.9466 39.6533 35.2185 42.2535C38.9455 45.2221 49.7147 34.5721 49.7147 34.5721L47.017 31.1484Z" fill="#2E2E2C"/>
<path d="M43.5606 12.286C43.5606 12.286 52.748 17.1073 52.5205 27.974C52.5205 27.974 50.2995 28.5807 49.6711 27.2373C48.436 24.6262 44.6332 20.4334 41.8271 21.2676C37.9268 22.4269 39.4328 12.6544 43.5606 12.286Z" fill="#B9D2DB"/>
<path d="M64.7635 28.1798C65.0885 30.4767 65.056 34.6587 63.2034 34.052C62.1091 33.6945 59.8989 32.3294 59.0538 31.6035C58.3821 31.0292 57.5154 30.7042 56.8653 30.1192C56.1611 31.4843 55.5869 32.9469 54.7852 34.247C55.9661 35.0812 57.017 36.0888 57.9921 37.1181C58.9888 38.1582 60.1048 39.0466 61.2099 40.0108C62.0874 40.7801 63.8317 41.4301 65.0993 41.1268C68.2954 40.3467 67.8837 35.2546 67.1579 33.4128C66.7678 32.4269 65.6736 29.9458 64.7635 28.1907V28.1798Z" fill="#2E2E2C"/>
<path d="M27.2124 19.0466C28.675 21.2459 29.2709 23.8353 27.2124 25.4713L24.493 22.026C25.2623 21.3868 24.7964 20.455 24.3955 19.9567C24.1463 19.6425 23.3338 18.6132 22.7054 19.1116C21.2861 20.2275 27.7866 25.4171 23.778 28.5807C21.3728 30.4767 18.9892 29.3066 17.0066 27.1289L14.5689 29.2958L12.9004 27.1939L15.5764 25.2871C14.103 22.9686 13.5396 20.1842 15.6956 18.4724L18.415 21.9177L18.3392 21.9718C17.4074 22.7411 18.0575 23.9545 18.48 24.4854C18.8917 25.0054 19.7368 26.0022 20.4302 25.4605C21.9036 24.3012 15.5439 19.0033 19.4118 15.948C21.6436 14.182 23.8755 15.2329 25.7498 17.2264L28.22 15.0596L29.8885 17.1614L27.2233 19.0358L27.2124 19.0466Z" fill="#2E2E2C"/>
</g>
<defs>
<clipPath id="clip0_123_3922">
<rect width="80.8992" height="100" fill="white" transform="translate(0.0507812)"/>
</clipPath>
</defs>
</svg>
