<svg width="54" height="61" viewBox="0 0 54 61" fill="none" xmlns="http://www.w3.org/2000/svg">
<path d="M23.1072 0C16.9788 6.76281e-06 11.1014 2.43449 6.768 6.76789C2.43457 11.1013 4.53518e-05 16.9786 0 23.107C-3.1826e-06 29.2354 2.4345 35.1128 6.76794 39.4463C11.1014 43.7797 16.9788 46.2142 23.1072 46.2142C29.2356 46.2142 35.113 43.7797 39.4465 39.4463C43.7799 35.1128 46.2144 29.2354 46.2144 23.107C46.2144 16.9786 43.7798 11.1013 39.4464 6.76789C35.113 2.43449 29.2356 6.76281e-06 23.1072 0ZM23.1072 4.01642C25.6672 4.01641 28.2021 4.51019 30.5672 5.46958C32.9323 6.42897 35.0812 7.83517 36.8914 9.6079C38.7016 11.3806 40.1375 13.4852 41.1171 15.8013C42.0968 18.1175 42.601 20.6 42.601 23.107C42.601 25.614 42.0968 28.0965 41.1171 30.4127C40.1375 32.7289 38.7016 34.8334 36.8914 36.6061C35.0812 38.3789 32.9323 39.7851 30.5672 40.7445C28.2021 41.7038 25.6672 42.1976 23.1072 42.1976C17.9372 42.1976 12.9789 40.1862 9.32311 36.6061C5.66735 33.0259 3.61356 28.1701 3.61356 23.107C3.61356 18.0439 5.66735 13.1881 9.32311 9.60797C12.9789 6.02779 17.9372 4.01645 23.1072 4.01642Z" fill="#2B0000"/>
<path d="M50.6644 52.0114L40.2273 39.9118C38.4282 37.8261 36.2327 37.1005 35.3235 38.2911C34.4144 39.4818 35.1358 42.1378 36.9349 44.2235L47.372 56.3232C49.1712 58.4089 51.3667 59.1345 52.2759 57.9438C53.185 56.7532 52.4636 54.0972 50.6644 52.0114Z" fill="#2B0000"/>
</svg>
