<svg width="32" height="32" viewBox="0 0 32 32" fill="none" xmlns="http://www.w3.org/2000/svg">
<g clip-path="url(#clip0_98_6799)">
<path d="M15.9654 6.0658C13.3786 6.0658 11.2686 8.1758 11.2686 10.7627C11.2686 12.8792 12.6796 14.6691 14.6067 15.2571V30.6412C14.6067 31.3924 15.2207 31.9999 15.9654 31.9999C16.7102 31.9999 17.3242 31.3859 17.3242 30.7065V15.2571C19.2513 14.6691 20.6623 12.8727 20.6623 10.7627C20.6623 8.1758 18.5523 6.0658 15.9654 6.0658ZM15.9654 12.7355C14.8745 12.7355 13.9926 11.8536 13.9926 10.7627C13.9926 9.67175 14.8745 8.78986 15.9654 8.78986C17.0564 8.78986 17.9383 9.67175 17.9383 10.7627C17.9383 11.8536 17.0564 12.7355 15.9654 12.7355Z" fill="white"/>
<path d="M27.9458 0.415209C27.4036 -0.126992 26.587 -0.126992 26.0383 0.349883C25.4961 0.892083 25.4961 1.70865 25.9729 2.25738C30.3955 6.95427 30.3955 14.6496 25.9729 19.3465C25.4961 19.8887 25.4961 20.7771 26.0383 21.254C26.2996 21.5414 27.2664 21.9334 27.9458 21.1168C33.3286 15.3943 33.3286 6.13117 27.9458 0.415209Z" fill="white"/>
<path d="M23.8627 4.77239C23.3205 4.23019 22.504 4.23019 21.9552 4.70706C21.413 5.24926 21.413 6.06583 21.8899 6.61456C24.0718 8.92708 24.0718 12.6768 21.8899 14.9893C21.413 15.5315 21.413 16.4199 21.9552 16.8968C22.1186 17.0927 23.1572 17.6153 23.8627 16.7596C26.9918 13.4868 26.9918 8.11051 23.8627 4.77239Z" fill="white"/>
<path d="M5.95728 2.25083C6.43416 1.70863 6.43416 0.892066 5.95728 0.415191C5.41508 -0.0616839 4.52666 -0.0616839 4.04978 0.480516C-1.32649 6.19648 -1.32649 15.4596 4.04978 21.1756C4.92514 21.953 5.61759 21.4499 5.88543 21.2409C6.42763 20.6987 6.42763 19.8821 5.95075 19.3334C1.52823 14.643 1.52823 6.94772 5.95728 2.25083Z" fill="white"/>
<path d="M10.0403 4.77237C9.49808 4.29549 8.60965 4.29549 8.13278 4.83769C5.06902 8.10396 5.06902 13.4868 8.13278 16.8184C9.04733 17.6349 9.80511 17.158 10.0403 16.9555C10.5825 16.4133 10.5825 15.5968 10.1056 15.048C7.92374 12.7355 7.92374 8.98585 10.1056 6.67334C10.5825 6.13114 10.5825 5.24924 10.0403 4.77237Z" fill="white"/>
</g>
<defs>
<clipPath id="clip0_98_6799">
<rect width="32" height="32" fill="white"/>
</clipPath>
</defs>
</svg>
